G04 EAGLE Gerber RS-274X export*
G75*
%MOMM*%
%FSLAX34Y34*%
%LPD*%
%INSilkscreen Top*%
%IPPOS*%
%AMOC8*
5,1,8,0,0,1.08239X$1,22.5*%
G01*
%ADD10C,0.152400*%
%ADD11C,0.127000*%
%ADD12C,0.304800*%
%ADD13R,0.508000X0.381000*%
%ADD14C,0.101600*%
%ADD15C,0.000000*%
%ADD16C,0.076200*%


D10*
X252730Y395036D02*
X252730Y455996D01*
X57150Y455996D01*
X57150Y395036D01*
X93980Y395036D01*
X236220Y395036D02*
X252730Y395036D01*
X144780Y395036D02*
X134620Y395036D01*
X160020Y395036D02*
X195580Y395036D01*
X210820Y395036D02*
X220980Y395036D01*
X119380Y395036D02*
X109220Y395036D01*
D11*
X73025Y406639D02*
X64135Y406639D01*
X64135Y409108D01*
X64137Y409205D01*
X64143Y409302D01*
X64152Y409398D01*
X64165Y409494D01*
X64182Y409590D01*
X64203Y409684D01*
X64228Y409778D01*
X64256Y409871D01*
X64288Y409963D01*
X64323Y410053D01*
X64362Y410142D01*
X64404Y410229D01*
X64450Y410314D01*
X64499Y410398D01*
X64551Y410480D01*
X64607Y410559D01*
X64665Y410637D01*
X64727Y410711D01*
X64791Y410784D01*
X64858Y410854D01*
X64928Y410921D01*
X65001Y410985D01*
X65075Y411047D01*
X65153Y411105D01*
X65232Y411161D01*
X65314Y411213D01*
X65398Y411262D01*
X65483Y411308D01*
X65570Y411350D01*
X65659Y411389D01*
X65749Y411424D01*
X65841Y411456D01*
X65934Y411484D01*
X66028Y411509D01*
X66122Y411530D01*
X66218Y411547D01*
X66314Y411560D01*
X66410Y411569D01*
X66507Y411575D01*
X66604Y411577D01*
X70556Y411577D01*
X70653Y411575D01*
X70750Y411569D01*
X70846Y411560D01*
X70942Y411547D01*
X71038Y411530D01*
X71132Y411509D01*
X71226Y411484D01*
X71319Y411456D01*
X71411Y411424D01*
X71501Y411389D01*
X71590Y411350D01*
X71677Y411308D01*
X71762Y411262D01*
X71846Y411213D01*
X71928Y411161D01*
X72007Y411105D01*
X72085Y411047D01*
X72159Y410985D01*
X72232Y410921D01*
X72302Y410854D01*
X72369Y410784D01*
X72433Y410711D01*
X72495Y410637D01*
X72553Y410559D01*
X72609Y410480D01*
X72661Y410398D01*
X72710Y410314D01*
X72756Y410229D01*
X72798Y410142D01*
X72837Y410053D01*
X72872Y409963D01*
X72904Y409871D01*
X72932Y409778D01*
X72957Y409684D01*
X72978Y409590D01*
X72995Y409494D01*
X73008Y409398D01*
X73017Y409302D01*
X73023Y409205D01*
X73025Y409108D01*
X73025Y406639D01*
X73025Y418029D02*
X73025Y420004D01*
X73025Y418029D02*
X73023Y417940D01*
X73017Y417852D01*
X73007Y417764D01*
X72993Y417676D01*
X72975Y417589D01*
X72954Y417503D01*
X72928Y417418D01*
X72899Y417335D01*
X72866Y417252D01*
X72829Y417172D01*
X72789Y417093D01*
X72745Y417016D01*
X72698Y416940D01*
X72648Y416868D01*
X72594Y416797D01*
X72537Y416729D01*
X72477Y416663D01*
X72415Y416601D01*
X72349Y416541D01*
X72281Y416484D01*
X72210Y416430D01*
X72138Y416380D01*
X72063Y416333D01*
X71985Y416289D01*
X71906Y416249D01*
X71826Y416212D01*
X71743Y416179D01*
X71660Y416150D01*
X71575Y416124D01*
X71489Y416103D01*
X71402Y416085D01*
X71314Y416071D01*
X71226Y416061D01*
X71138Y416055D01*
X71049Y416053D01*
X66111Y416053D01*
X66022Y416055D01*
X65934Y416061D01*
X65846Y416071D01*
X65758Y416085D01*
X65671Y416103D01*
X65585Y416124D01*
X65500Y416150D01*
X65417Y416179D01*
X65334Y416212D01*
X65254Y416249D01*
X65175Y416289D01*
X65098Y416333D01*
X65022Y416380D01*
X64950Y416430D01*
X64879Y416484D01*
X64811Y416541D01*
X64745Y416601D01*
X64683Y416663D01*
X64623Y416729D01*
X64566Y416797D01*
X64512Y416868D01*
X64462Y416940D01*
X64415Y417015D01*
X64371Y417093D01*
X64331Y417172D01*
X64294Y417252D01*
X64261Y417335D01*
X64232Y417418D01*
X64206Y417503D01*
X64185Y417589D01*
X64167Y417676D01*
X64153Y417764D01*
X64143Y417852D01*
X64137Y417940D01*
X64135Y418029D01*
X64135Y420004D01*
X69568Y423823D02*
X69568Y429750D01*
X73025Y434375D02*
X64135Y434375D01*
X64135Y436845D01*
X64137Y436942D01*
X64143Y437039D01*
X64152Y437135D01*
X64165Y437231D01*
X64182Y437327D01*
X64203Y437421D01*
X64228Y437515D01*
X64256Y437608D01*
X64288Y437700D01*
X64323Y437790D01*
X64362Y437879D01*
X64404Y437966D01*
X64450Y438051D01*
X64499Y438135D01*
X64551Y438217D01*
X64607Y438296D01*
X64665Y438374D01*
X64727Y438448D01*
X64791Y438521D01*
X64858Y438591D01*
X64928Y438658D01*
X65001Y438722D01*
X65075Y438784D01*
X65153Y438842D01*
X65232Y438898D01*
X65314Y438950D01*
X65398Y438999D01*
X65483Y439045D01*
X65570Y439087D01*
X65659Y439126D01*
X65749Y439161D01*
X65841Y439193D01*
X65934Y439221D01*
X66028Y439246D01*
X66122Y439267D01*
X66218Y439284D01*
X66314Y439297D01*
X66410Y439306D01*
X66507Y439312D01*
X66604Y439314D01*
X70556Y439314D01*
X70653Y439312D01*
X70750Y439306D01*
X70846Y439297D01*
X70942Y439284D01*
X71038Y439267D01*
X71132Y439246D01*
X71226Y439221D01*
X71319Y439193D01*
X71411Y439161D01*
X71501Y439126D01*
X71590Y439087D01*
X71677Y439045D01*
X71762Y438999D01*
X71846Y438950D01*
X71928Y438898D01*
X72007Y438842D01*
X72085Y438784D01*
X72159Y438722D01*
X72232Y438658D01*
X72302Y438591D01*
X72369Y438521D01*
X72433Y438448D01*
X72495Y438374D01*
X72553Y438296D01*
X72609Y438217D01*
X72661Y438135D01*
X72710Y438051D01*
X72756Y437966D01*
X72798Y437879D01*
X72837Y437790D01*
X72872Y437700D01*
X72904Y437608D01*
X72932Y437515D01*
X72957Y437421D01*
X72978Y437327D01*
X72995Y437231D01*
X73008Y437135D01*
X73017Y437039D01*
X73023Y436942D01*
X73025Y436845D01*
X73025Y434375D01*
X73025Y445765D02*
X73025Y447741D01*
X73025Y445765D02*
X73023Y445676D01*
X73017Y445588D01*
X73007Y445500D01*
X72993Y445412D01*
X72975Y445325D01*
X72954Y445239D01*
X72928Y445154D01*
X72899Y445071D01*
X72866Y444988D01*
X72829Y444908D01*
X72789Y444829D01*
X72745Y444752D01*
X72698Y444676D01*
X72648Y444604D01*
X72594Y444533D01*
X72537Y444465D01*
X72477Y444399D01*
X72415Y444337D01*
X72349Y444277D01*
X72281Y444220D01*
X72210Y444166D01*
X72138Y444116D01*
X72063Y444069D01*
X71985Y444025D01*
X71906Y443985D01*
X71826Y443948D01*
X71743Y443915D01*
X71660Y443886D01*
X71575Y443860D01*
X71489Y443839D01*
X71402Y443821D01*
X71314Y443807D01*
X71226Y443797D01*
X71138Y443791D01*
X71049Y443789D01*
X71049Y443790D02*
X66111Y443790D01*
X66111Y443789D02*
X66022Y443791D01*
X65934Y443797D01*
X65846Y443807D01*
X65758Y443821D01*
X65671Y443839D01*
X65585Y443860D01*
X65500Y443886D01*
X65417Y443915D01*
X65334Y443948D01*
X65254Y443985D01*
X65175Y444025D01*
X65098Y444069D01*
X65022Y444116D01*
X64950Y444166D01*
X64879Y444220D01*
X64811Y444277D01*
X64745Y444337D01*
X64683Y444399D01*
X64623Y444465D01*
X64566Y444533D01*
X64512Y444604D01*
X64462Y444676D01*
X64415Y444751D01*
X64371Y444829D01*
X64331Y444908D01*
X64294Y444988D01*
X64261Y445071D01*
X64232Y445154D01*
X64206Y445239D01*
X64185Y445325D01*
X64167Y445412D01*
X64153Y445500D01*
X64143Y445588D01*
X64137Y445676D01*
X64135Y445765D01*
X64135Y447741D01*
X224155Y428762D02*
X226131Y426292D01*
X224155Y428762D02*
X233045Y428762D01*
X233045Y431231D02*
X233045Y426292D01*
X99836Y426292D02*
X99836Y429255D01*
X99838Y429341D01*
X99844Y429427D01*
X99853Y429513D01*
X99866Y429598D01*
X99883Y429683D01*
X99903Y429766D01*
X99927Y429849D01*
X99955Y429931D01*
X99986Y430011D01*
X100021Y430090D01*
X100059Y430167D01*
X100101Y430243D01*
X100145Y430317D01*
X100193Y430388D01*
X100244Y430458D01*
X100298Y430525D01*
X100355Y430590D01*
X100415Y430652D01*
X100477Y430712D01*
X100542Y430769D01*
X100609Y430823D01*
X100679Y430874D01*
X100750Y430922D01*
X100824Y430966D01*
X100900Y431008D01*
X100977Y431046D01*
X101056Y431081D01*
X101136Y431112D01*
X101218Y431140D01*
X101301Y431164D01*
X101384Y431184D01*
X101469Y431201D01*
X101554Y431214D01*
X101640Y431223D01*
X101726Y431229D01*
X101812Y431231D01*
X102306Y431231D01*
X102404Y431229D01*
X102502Y431223D01*
X102600Y431213D01*
X102697Y431200D01*
X102794Y431182D01*
X102890Y431161D01*
X102984Y431136D01*
X103078Y431107D01*
X103171Y431075D01*
X103262Y431038D01*
X103352Y430999D01*
X103440Y430955D01*
X103526Y430908D01*
X103611Y430858D01*
X103693Y430805D01*
X103773Y430748D01*
X103851Y430688D01*
X103926Y430625D01*
X103999Y430559D01*
X104069Y430490D01*
X104136Y430419D01*
X104201Y430345D01*
X104262Y430268D01*
X104321Y430189D01*
X104376Y430108D01*
X104428Y430025D01*
X104476Y429939D01*
X104521Y429852D01*
X104563Y429763D01*
X104601Y429673D01*
X104635Y429581D01*
X104666Y429488D01*
X104693Y429393D01*
X104716Y429298D01*
X104736Y429201D01*
X104751Y429105D01*
X104763Y429007D01*
X104771Y428909D01*
X104775Y428811D01*
X104775Y428713D01*
X104771Y428615D01*
X104763Y428517D01*
X104751Y428419D01*
X104736Y428323D01*
X104716Y428226D01*
X104693Y428131D01*
X104666Y428036D01*
X104635Y427943D01*
X104601Y427851D01*
X104563Y427761D01*
X104521Y427672D01*
X104476Y427585D01*
X104428Y427499D01*
X104376Y427416D01*
X104321Y427335D01*
X104262Y427256D01*
X104201Y427179D01*
X104136Y427105D01*
X104069Y427034D01*
X103999Y426965D01*
X103926Y426899D01*
X103851Y426836D01*
X103773Y426776D01*
X103693Y426719D01*
X103611Y426666D01*
X103526Y426616D01*
X103440Y426569D01*
X103352Y426525D01*
X103262Y426486D01*
X103171Y426449D01*
X103078Y426417D01*
X102984Y426388D01*
X102890Y426363D01*
X102794Y426342D01*
X102697Y426324D01*
X102600Y426311D01*
X102502Y426301D01*
X102404Y426295D01*
X102306Y426293D01*
X102306Y426292D02*
X99836Y426292D01*
X99712Y426294D01*
X99588Y426300D01*
X99464Y426310D01*
X99341Y426323D01*
X99218Y426341D01*
X99096Y426362D01*
X98974Y426387D01*
X98853Y426416D01*
X98734Y426449D01*
X98615Y426485D01*
X98498Y426526D01*
X98382Y426569D01*
X98267Y426617D01*
X98154Y426668D01*
X98042Y426723D01*
X97933Y426781D01*
X97825Y426842D01*
X97719Y426907D01*
X97615Y426975D01*
X97514Y427047D01*
X97414Y427121D01*
X97318Y427199D01*
X97223Y427279D01*
X97131Y427363D01*
X97042Y427449D01*
X96956Y427538D01*
X96872Y427630D01*
X96792Y427725D01*
X96714Y427821D01*
X96640Y427921D01*
X96568Y428022D01*
X96500Y428126D01*
X96435Y428232D01*
X96374Y428340D01*
X96316Y428449D01*
X96261Y428561D01*
X96210Y428674D01*
X96162Y428789D01*
X96119Y428905D01*
X96078Y429022D01*
X96042Y429141D01*
X96009Y429260D01*
X95980Y429381D01*
X95955Y429503D01*
X95934Y429625D01*
X95916Y429748D01*
X95903Y429871D01*
X95893Y429995D01*
X95887Y430119D01*
X95885Y430243D01*
X257175Y427675D02*
X268605Y427675D01*
X257175Y427675D02*
X257175Y430850D01*
X257177Y430961D01*
X257183Y431071D01*
X257192Y431182D01*
X257206Y431292D01*
X257223Y431401D01*
X257244Y431510D01*
X257269Y431618D01*
X257298Y431725D01*
X257330Y431831D01*
X257366Y431936D01*
X257406Y432039D01*
X257449Y432141D01*
X257496Y432242D01*
X257547Y432341D01*
X257600Y432438D01*
X257657Y432532D01*
X257718Y432625D01*
X257781Y432716D01*
X257848Y432805D01*
X257918Y432891D01*
X257991Y432974D01*
X258066Y433056D01*
X258144Y433134D01*
X258226Y433209D01*
X258309Y433282D01*
X258395Y433352D01*
X258484Y433419D01*
X258575Y433482D01*
X258668Y433543D01*
X258763Y433600D01*
X258859Y433653D01*
X258958Y433704D01*
X259059Y433751D01*
X259161Y433794D01*
X259264Y433834D01*
X259369Y433870D01*
X259475Y433902D01*
X259582Y433931D01*
X259690Y433956D01*
X259799Y433977D01*
X259908Y433994D01*
X260018Y434008D01*
X260129Y434017D01*
X260239Y434023D01*
X260350Y434025D01*
X265430Y434025D01*
X265541Y434023D01*
X265651Y434017D01*
X265762Y434008D01*
X265872Y433994D01*
X265981Y433977D01*
X266090Y433956D01*
X266198Y433931D01*
X266305Y433902D01*
X266411Y433870D01*
X266516Y433834D01*
X266619Y433794D01*
X266721Y433751D01*
X266822Y433704D01*
X266921Y433653D01*
X267018Y433600D01*
X267112Y433543D01*
X267205Y433482D01*
X267296Y433419D01*
X267385Y433352D01*
X267471Y433282D01*
X267554Y433209D01*
X267636Y433134D01*
X267714Y433056D01*
X267789Y432974D01*
X267862Y432891D01*
X267932Y432805D01*
X267999Y432716D01*
X268062Y432625D01*
X268123Y432532D01*
X268180Y432438D01*
X268233Y432341D01*
X268284Y432242D01*
X268331Y432141D01*
X268374Y432039D01*
X268414Y431936D01*
X268450Y431831D01*
X268482Y431725D01*
X268511Y431618D01*
X268536Y431510D01*
X268557Y431401D01*
X268574Y431292D01*
X268588Y431182D01*
X268597Y431071D01*
X268603Y430961D01*
X268605Y430850D01*
X268605Y427675D01*
X268605Y441989D02*
X268605Y444529D01*
X268605Y441989D02*
X268603Y441889D01*
X268597Y441790D01*
X268587Y441690D01*
X268574Y441592D01*
X268556Y441493D01*
X268535Y441396D01*
X268510Y441300D01*
X268481Y441204D01*
X268448Y441110D01*
X268412Y441017D01*
X268372Y440926D01*
X268328Y440836D01*
X268281Y440748D01*
X268231Y440662D01*
X268177Y440578D01*
X268120Y440496D01*
X268060Y440417D01*
X267996Y440339D01*
X267930Y440265D01*
X267861Y440193D01*
X267789Y440124D01*
X267715Y440058D01*
X267637Y439994D01*
X267558Y439934D01*
X267476Y439877D01*
X267392Y439823D01*
X267306Y439773D01*
X267218Y439726D01*
X267128Y439682D01*
X267037Y439642D01*
X266944Y439606D01*
X266850Y439573D01*
X266754Y439544D01*
X266658Y439519D01*
X266561Y439498D01*
X266462Y439480D01*
X266364Y439467D01*
X266264Y439457D01*
X266165Y439451D01*
X266065Y439449D01*
X259715Y439449D01*
X259615Y439451D01*
X259516Y439457D01*
X259416Y439467D01*
X259318Y439480D01*
X259219Y439498D01*
X259122Y439519D01*
X259026Y439544D01*
X258930Y439573D01*
X258836Y439606D01*
X258743Y439642D01*
X258652Y439682D01*
X258562Y439726D01*
X258474Y439773D01*
X258388Y439823D01*
X258304Y439877D01*
X258222Y439934D01*
X258143Y439994D01*
X258065Y440058D01*
X257991Y440124D01*
X257919Y440193D01*
X257850Y440265D01*
X257784Y440339D01*
X257720Y440417D01*
X257660Y440496D01*
X257603Y440578D01*
X257549Y440662D01*
X257499Y440748D01*
X257452Y440836D01*
X257408Y440926D01*
X257368Y441017D01*
X257332Y441110D01*
X257299Y441204D01*
X257270Y441300D01*
X257245Y441396D01*
X257224Y441493D01*
X257206Y441592D01*
X257193Y441690D01*
X257183Y441790D01*
X257177Y441889D01*
X257175Y441989D01*
X257175Y444529D01*
X259715Y449011D02*
X257175Y452186D01*
X268605Y452186D01*
X268605Y449011D02*
X268605Y455361D01*
D10*
X280670Y342834D02*
X283210Y342834D01*
X280670Y342834D02*
X280670Y345374D01*
X280670Y342834D02*
X278130Y342834D01*
X280670Y342834D02*
X280670Y340294D01*
X241300Y355534D02*
X241308Y356157D01*
X241331Y356780D01*
X241369Y357403D01*
X241422Y358024D01*
X241491Y358643D01*
X241575Y359261D01*
X241674Y359876D01*
X241788Y360489D01*
X241917Y361099D01*
X242061Y361706D01*
X242220Y362309D01*
X242394Y362907D01*
X242582Y363502D01*
X242785Y364091D01*
X243002Y364675D01*
X243233Y365254D01*
X243479Y365827D01*
X243739Y366394D01*
X244012Y366954D01*
X244299Y367507D01*
X244600Y368054D01*
X244914Y368592D01*
X245241Y369123D01*
X245581Y369645D01*
X245933Y370160D01*
X246299Y370665D01*
X246676Y371161D01*
X247066Y371648D01*
X247467Y372125D01*
X247880Y372592D01*
X248304Y373048D01*
X248739Y373495D01*
X249186Y373930D01*
X249642Y374354D01*
X250109Y374767D01*
X250586Y375168D01*
X251073Y375558D01*
X251569Y375935D01*
X252074Y376301D01*
X252589Y376653D01*
X253111Y376993D01*
X253642Y377320D01*
X254180Y377634D01*
X254727Y377935D01*
X255280Y378222D01*
X255840Y378495D01*
X256407Y378755D01*
X256980Y379001D01*
X257559Y379232D01*
X258143Y379449D01*
X258732Y379652D01*
X259327Y379840D01*
X259925Y380014D01*
X260528Y380173D01*
X261135Y380317D01*
X261745Y380446D01*
X262358Y380560D01*
X262973Y380659D01*
X263591Y380743D01*
X264210Y380812D01*
X264831Y380865D01*
X265454Y380903D01*
X266077Y380926D01*
X266700Y380934D01*
X267323Y380926D01*
X267946Y380903D01*
X268569Y380865D01*
X269190Y380812D01*
X269809Y380743D01*
X270427Y380659D01*
X271042Y380560D01*
X271655Y380446D01*
X272265Y380317D01*
X272872Y380173D01*
X273475Y380014D01*
X274073Y379840D01*
X274668Y379652D01*
X275257Y379449D01*
X275841Y379232D01*
X276420Y379001D01*
X276993Y378755D01*
X277560Y378495D01*
X278120Y378222D01*
X278673Y377935D01*
X279220Y377634D01*
X279758Y377320D01*
X280289Y376993D01*
X280811Y376653D01*
X281326Y376301D01*
X281831Y375935D01*
X282327Y375558D01*
X282814Y375168D01*
X283291Y374767D01*
X283758Y374354D01*
X284214Y373930D01*
X284661Y373495D01*
X285096Y373048D01*
X285520Y372592D01*
X285933Y372125D01*
X286334Y371648D01*
X286724Y371161D01*
X287101Y370665D01*
X287467Y370160D01*
X287819Y369645D01*
X288159Y369123D01*
X288486Y368592D01*
X288800Y368054D01*
X289101Y367507D01*
X289388Y366954D01*
X289661Y366394D01*
X289921Y365827D01*
X290167Y365254D01*
X290398Y364675D01*
X290615Y364091D01*
X290818Y363502D01*
X291006Y362907D01*
X291180Y362309D01*
X291339Y361706D01*
X291483Y361099D01*
X291612Y360489D01*
X291726Y359876D01*
X291825Y359261D01*
X291909Y358643D01*
X291978Y358024D01*
X292031Y357403D01*
X292069Y356780D01*
X292092Y356157D01*
X292100Y355534D01*
X292092Y354911D01*
X292069Y354288D01*
X292031Y353665D01*
X291978Y353044D01*
X291909Y352425D01*
X291825Y351807D01*
X291726Y351192D01*
X291612Y350579D01*
X291483Y349969D01*
X291339Y349362D01*
X291180Y348759D01*
X291006Y348161D01*
X290818Y347566D01*
X290615Y346977D01*
X290398Y346393D01*
X290167Y345814D01*
X289921Y345241D01*
X289661Y344674D01*
X289388Y344114D01*
X289101Y343561D01*
X288800Y343014D01*
X288486Y342476D01*
X288159Y341945D01*
X287819Y341423D01*
X287467Y340908D01*
X287101Y340403D01*
X286724Y339907D01*
X286334Y339420D01*
X285933Y338943D01*
X285520Y338476D01*
X285096Y338020D01*
X284661Y337573D01*
X284214Y337138D01*
X283758Y336714D01*
X283291Y336301D01*
X282814Y335900D01*
X282327Y335510D01*
X281831Y335133D01*
X281326Y334767D01*
X280811Y334415D01*
X280289Y334075D01*
X279758Y333748D01*
X279220Y333434D01*
X278673Y333133D01*
X278120Y332846D01*
X277560Y332573D01*
X276993Y332313D01*
X276420Y332067D01*
X275841Y331836D01*
X275257Y331619D01*
X274668Y331416D01*
X274073Y331228D01*
X273475Y331054D01*
X272872Y330895D01*
X272265Y330751D01*
X271655Y330622D01*
X271042Y330508D01*
X270427Y330409D01*
X269809Y330325D01*
X269190Y330256D01*
X268569Y330203D01*
X267946Y330165D01*
X267323Y330142D01*
X266700Y330134D01*
X266077Y330142D01*
X265454Y330165D01*
X264831Y330203D01*
X264210Y330256D01*
X263591Y330325D01*
X262973Y330409D01*
X262358Y330508D01*
X261745Y330622D01*
X261135Y330751D01*
X260528Y330895D01*
X259925Y331054D01*
X259327Y331228D01*
X258732Y331416D01*
X258143Y331619D01*
X257559Y331836D01*
X256980Y332067D01*
X256407Y332313D01*
X255840Y332573D01*
X255280Y332846D01*
X254727Y333133D01*
X254180Y333434D01*
X253642Y333748D01*
X253111Y334075D01*
X252589Y334415D01*
X252074Y334767D01*
X251569Y335133D01*
X251073Y335510D01*
X250586Y335900D01*
X250109Y336301D01*
X249642Y336714D01*
X249186Y337138D01*
X248739Y337573D01*
X248304Y338020D01*
X247880Y338476D01*
X247467Y338943D01*
X247066Y339420D01*
X246676Y339907D01*
X246299Y340403D01*
X245933Y340908D01*
X245581Y341423D01*
X245241Y341945D01*
X244914Y342476D01*
X244600Y343014D01*
X244299Y343561D01*
X244012Y344114D01*
X243739Y344674D01*
X243479Y345241D01*
X243233Y345814D01*
X243002Y346393D01*
X242785Y346977D01*
X242582Y347566D01*
X242394Y348161D01*
X242220Y348759D01*
X242061Y349362D01*
X241917Y349969D01*
X241788Y350579D01*
X241674Y351192D01*
X241575Y351807D01*
X241491Y352425D01*
X241422Y353044D01*
X241369Y353665D01*
X241331Y354288D01*
X241308Y354911D01*
X241300Y355534D01*
D11*
X231103Y330769D02*
X228563Y330769D01*
X228463Y330771D01*
X228364Y330777D01*
X228264Y330787D01*
X228166Y330800D01*
X228067Y330818D01*
X227970Y330839D01*
X227874Y330864D01*
X227778Y330893D01*
X227684Y330926D01*
X227591Y330962D01*
X227500Y331002D01*
X227410Y331046D01*
X227322Y331093D01*
X227236Y331143D01*
X227152Y331197D01*
X227070Y331254D01*
X226991Y331314D01*
X226913Y331378D01*
X226839Y331444D01*
X226767Y331513D01*
X226698Y331585D01*
X226632Y331659D01*
X226568Y331737D01*
X226508Y331816D01*
X226451Y331898D01*
X226397Y331982D01*
X226347Y332068D01*
X226300Y332156D01*
X226256Y332246D01*
X226216Y332337D01*
X226180Y332430D01*
X226147Y332524D01*
X226118Y332620D01*
X226093Y332716D01*
X226072Y332813D01*
X226054Y332912D01*
X226041Y333010D01*
X226031Y333110D01*
X226025Y333209D01*
X226023Y333309D01*
X226023Y339659D01*
X226025Y339759D01*
X226031Y339858D01*
X226041Y339958D01*
X226054Y340056D01*
X226072Y340155D01*
X226093Y340252D01*
X226118Y340348D01*
X226147Y340444D01*
X226180Y340538D01*
X226216Y340631D01*
X226256Y340722D01*
X226300Y340812D01*
X226347Y340900D01*
X226397Y340986D01*
X226451Y341070D01*
X226508Y341152D01*
X226568Y341231D01*
X226632Y341309D01*
X226698Y341383D01*
X226767Y341455D01*
X226839Y341524D01*
X226913Y341590D01*
X226991Y341654D01*
X227070Y341714D01*
X227152Y341771D01*
X227236Y341825D01*
X227322Y341875D01*
X227410Y341922D01*
X227500Y341966D01*
X227591Y342006D01*
X227684Y342042D01*
X227778Y342075D01*
X227874Y342104D01*
X227970Y342129D01*
X228067Y342150D01*
X228166Y342168D01*
X228264Y342181D01*
X228364Y342191D01*
X228463Y342197D01*
X228563Y342199D01*
X231103Y342199D01*
X238125Y335849D02*
X241935Y335849D01*
X238125Y335849D02*
X238025Y335851D01*
X237926Y335857D01*
X237826Y335867D01*
X237728Y335880D01*
X237629Y335898D01*
X237532Y335919D01*
X237436Y335944D01*
X237340Y335973D01*
X237246Y336006D01*
X237153Y336042D01*
X237062Y336082D01*
X236972Y336126D01*
X236884Y336173D01*
X236798Y336223D01*
X236714Y336277D01*
X236632Y336334D01*
X236553Y336394D01*
X236475Y336458D01*
X236401Y336524D01*
X236329Y336593D01*
X236260Y336665D01*
X236194Y336739D01*
X236130Y336817D01*
X236070Y336896D01*
X236013Y336978D01*
X235959Y337062D01*
X235909Y337148D01*
X235862Y337236D01*
X235818Y337326D01*
X235778Y337417D01*
X235742Y337510D01*
X235709Y337604D01*
X235680Y337700D01*
X235655Y337796D01*
X235634Y337893D01*
X235616Y337992D01*
X235603Y338090D01*
X235593Y338190D01*
X235587Y338289D01*
X235585Y338389D01*
X235585Y339024D01*
X235587Y339135D01*
X235593Y339245D01*
X235602Y339356D01*
X235616Y339466D01*
X235633Y339575D01*
X235654Y339684D01*
X235679Y339792D01*
X235708Y339899D01*
X235740Y340005D01*
X235776Y340110D01*
X235816Y340213D01*
X235859Y340315D01*
X235906Y340416D01*
X235957Y340515D01*
X236010Y340612D01*
X236067Y340706D01*
X236128Y340799D01*
X236191Y340890D01*
X236258Y340979D01*
X236328Y341065D01*
X236401Y341148D01*
X236476Y341230D01*
X236554Y341308D01*
X236636Y341383D01*
X236719Y341456D01*
X236805Y341526D01*
X236894Y341593D01*
X236985Y341656D01*
X237078Y341717D01*
X237173Y341774D01*
X237269Y341827D01*
X237368Y341878D01*
X237469Y341925D01*
X237571Y341968D01*
X237674Y342008D01*
X237779Y342044D01*
X237885Y342076D01*
X237992Y342105D01*
X238100Y342130D01*
X238209Y342151D01*
X238318Y342168D01*
X238428Y342182D01*
X238539Y342191D01*
X238649Y342197D01*
X238760Y342199D01*
X238871Y342197D01*
X238981Y342191D01*
X239092Y342182D01*
X239202Y342168D01*
X239311Y342151D01*
X239420Y342130D01*
X239528Y342105D01*
X239635Y342076D01*
X239741Y342044D01*
X239846Y342008D01*
X239949Y341968D01*
X240051Y341925D01*
X240152Y341878D01*
X240251Y341827D01*
X240348Y341774D01*
X240442Y341717D01*
X240535Y341656D01*
X240626Y341593D01*
X240715Y341526D01*
X240801Y341456D01*
X240884Y341383D01*
X240966Y341308D01*
X241044Y341230D01*
X241119Y341148D01*
X241192Y341065D01*
X241262Y340979D01*
X241329Y340890D01*
X241392Y340799D01*
X241453Y340706D01*
X241510Y340612D01*
X241563Y340515D01*
X241614Y340416D01*
X241661Y340315D01*
X241704Y340213D01*
X241744Y340110D01*
X241780Y340005D01*
X241812Y339899D01*
X241841Y339792D01*
X241866Y339684D01*
X241887Y339575D01*
X241904Y339466D01*
X241918Y339356D01*
X241927Y339245D01*
X241933Y339135D01*
X241935Y339024D01*
X241935Y335849D01*
X241933Y335709D01*
X241927Y335569D01*
X241918Y335429D01*
X241904Y335290D01*
X241887Y335151D01*
X241866Y335013D01*
X241841Y334875D01*
X241812Y334738D01*
X241780Y334602D01*
X241743Y334467D01*
X241703Y334333D01*
X241660Y334200D01*
X241612Y334068D01*
X241562Y333937D01*
X241507Y333808D01*
X241449Y333681D01*
X241388Y333555D01*
X241323Y333431D01*
X241254Y333309D01*
X241183Y333189D01*
X241108Y333071D01*
X241030Y332954D01*
X240948Y332840D01*
X240864Y332729D01*
X240776Y332620D01*
X240686Y332513D01*
X240592Y332408D01*
X240496Y332307D01*
X240397Y332208D01*
X240296Y332112D01*
X240191Y332018D01*
X240084Y331928D01*
X239975Y331840D01*
X239864Y331756D01*
X239750Y331674D01*
X239633Y331596D01*
X239515Y331521D01*
X239395Y331450D01*
X239273Y331381D01*
X239149Y331316D01*
X239023Y331255D01*
X238896Y331197D01*
X238767Y331142D01*
X238636Y331092D01*
X238504Y331044D01*
X238371Y331001D01*
X238237Y330961D01*
X238102Y330924D01*
X237966Y330892D01*
X237829Y330863D01*
X237691Y330838D01*
X237553Y330817D01*
X237414Y330800D01*
X237275Y330786D01*
X237135Y330777D01*
X236995Y330771D01*
X236855Y330769D01*
D10*
X100330Y292166D02*
X97790Y292166D01*
X100330Y292166D02*
X100330Y289626D01*
X100330Y292166D02*
X102870Y292166D01*
X100330Y292166D02*
X100330Y294706D01*
X88900Y279466D02*
X88908Y280089D01*
X88931Y280712D01*
X88969Y281335D01*
X89022Y281956D01*
X89091Y282575D01*
X89175Y283193D01*
X89274Y283808D01*
X89388Y284421D01*
X89517Y285031D01*
X89661Y285638D01*
X89820Y286241D01*
X89994Y286839D01*
X90182Y287434D01*
X90385Y288023D01*
X90602Y288607D01*
X90833Y289186D01*
X91079Y289759D01*
X91339Y290326D01*
X91612Y290886D01*
X91899Y291439D01*
X92200Y291986D01*
X92514Y292524D01*
X92841Y293055D01*
X93181Y293577D01*
X93533Y294092D01*
X93899Y294597D01*
X94276Y295093D01*
X94666Y295580D01*
X95067Y296057D01*
X95480Y296524D01*
X95904Y296980D01*
X96339Y297427D01*
X96786Y297862D01*
X97242Y298286D01*
X97709Y298699D01*
X98186Y299100D01*
X98673Y299490D01*
X99169Y299867D01*
X99674Y300233D01*
X100189Y300585D01*
X100711Y300925D01*
X101242Y301252D01*
X101780Y301566D01*
X102327Y301867D01*
X102880Y302154D01*
X103440Y302427D01*
X104007Y302687D01*
X104580Y302933D01*
X105159Y303164D01*
X105743Y303381D01*
X106332Y303584D01*
X106927Y303772D01*
X107525Y303946D01*
X108128Y304105D01*
X108735Y304249D01*
X109345Y304378D01*
X109958Y304492D01*
X110573Y304591D01*
X111191Y304675D01*
X111810Y304744D01*
X112431Y304797D01*
X113054Y304835D01*
X113677Y304858D01*
X114300Y304866D01*
X114923Y304858D01*
X115546Y304835D01*
X116169Y304797D01*
X116790Y304744D01*
X117409Y304675D01*
X118027Y304591D01*
X118642Y304492D01*
X119255Y304378D01*
X119865Y304249D01*
X120472Y304105D01*
X121075Y303946D01*
X121673Y303772D01*
X122268Y303584D01*
X122857Y303381D01*
X123441Y303164D01*
X124020Y302933D01*
X124593Y302687D01*
X125160Y302427D01*
X125720Y302154D01*
X126273Y301867D01*
X126820Y301566D01*
X127358Y301252D01*
X127889Y300925D01*
X128411Y300585D01*
X128926Y300233D01*
X129431Y299867D01*
X129927Y299490D01*
X130414Y299100D01*
X130891Y298699D01*
X131358Y298286D01*
X131814Y297862D01*
X132261Y297427D01*
X132696Y296980D01*
X133120Y296524D01*
X133533Y296057D01*
X133934Y295580D01*
X134324Y295093D01*
X134701Y294597D01*
X135067Y294092D01*
X135419Y293577D01*
X135759Y293055D01*
X136086Y292524D01*
X136400Y291986D01*
X136701Y291439D01*
X136988Y290886D01*
X137261Y290326D01*
X137521Y289759D01*
X137767Y289186D01*
X137998Y288607D01*
X138215Y288023D01*
X138418Y287434D01*
X138606Y286839D01*
X138780Y286241D01*
X138939Y285638D01*
X139083Y285031D01*
X139212Y284421D01*
X139326Y283808D01*
X139425Y283193D01*
X139509Y282575D01*
X139578Y281956D01*
X139631Y281335D01*
X139669Y280712D01*
X139692Y280089D01*
X139700Y279466D01*
X139692Y278843D01*
X139669Y278220D01*
X139631Y277597D01*
X139578Y276976D01*
X139509Y276357D01*
X139425Y275739D01*
X139326Y275124D01*
X139212Y274511D01*
X139083Y273901D01*
X138939Y273294D01*
X138780Y272691D01*
X138606Y272093D01*
X138418Y271498D01*
X138215Y270909D01*
X137998Y270325D01*
X137767Y269746D01*
X137521Y269173D01*
X137261Y268606D01*
X136988Y268046D01*
X136701Y267493D01*
X136400Y266946D01*
X136086Y266408D01*
X135759Y265877D01*
X135419Y265355D01*
X135067Y264840D01*
X134701Y264335D01*
X134324Y263839D01*
X133934Y263352D01*
X133533Y262875D01*
X133120Y262408D01*
X132696Y261952D01*
X132261Y261505D01*
X131814Y261070D01*
X131358Y260646D01*
X130891Y260233D01*
X130414Y259832D01*
X129927Y259442D01*
X129431Y259065D01*
X128926Y258699D01*
X128411Y258347D01*
X127889Y258007D01*
X127358Y257680D01*
X126820Y257366D01*
X126273Y257065D01*
X125720Y256778D01*
X125160Y256505D01*
X124593Y256245D01*
X124020Y255999D01*
X123441Y255768D01*
X122857Y255551D01*
X122268Y255348D01*
X121673Y255160D01*
X121075Y254986D01*
X120472Y254827D01*
X119865Y254683D01*
X119255Y254554D01*
X118642Y254440D01*
X118027Y254341D01*
X117409Y254257D01*
X116790Y254188D01*
X116169Y254135D01*
X115546Y254097D01*
X114923Y254074D01*
X114300Y254066D01*
X113677Y254074D01*
X113054Y254097D01*
X112431Y254135D01*
X111810Y254188D01*
X111191Y254257D01*
X110573Y254341D01*
X109958Y254440D01*
X109345Y254554D01*
X108735Y254683D01*
X108128Y254827D01*
X107525Y254986D01*
X106927Y255160D01*
X106332Y255348D01*
X105743Y255551D01*
X105159Y255768D01*
X104580Y255999D01*
X104007Y256245D01*
X103440Y256505D01*
X102880Y256778D01*
X102327Y257065D01*
X101780Y257366D01*
X101242Y257680D01*
X100711Y258007D01*
X100189Y258347D01*
X99674Y258699D01*
X99169Y259065D01*
X98673Y259442D01*
X98186Y259832D01*
X97709Y260233D01*
X97242Y260646D01*
X96786Y261070D01*
X96339Y261505D01*
X95904Y261952D01*
X95480Y262408D01*
X95067Y262875D01*
X94666Y263352D01*
X94276Y263839D01*
X93899Y264335D01*
X93533Y264840D01*
X93181Y265355D01*
X92841Y265877D01*
X92514Y266408D01*
X92200Y266946D01*
X91899Y267493D01*
X91612Y268046D01*
X91339Y268606D01*
X91079Y269173D01*
X90833Y269746D01*
X90602Y270325D01*
X90385Y270909D01*
X90182Y271498D01*
X89994Y272093D01*
X89820Y272691D01*
X89661Y273294D01*
X89517Y273901D01*
X89388Y274511D01*
X89274Y275124D01*
X89175Y275739D01*
X89091Y276357D01*
X89022Y276976D01*
X88969Y277597D01*
X88931Y278220D01*
X88908Y278843D01*
X88900Y279466D01*
D11*
X141605Y292801D02*
X144145Y292801D01*
X141605Y292801D02*
X141505Y292803D01*
X141406Y292809D01*
X141306Y292819D01*
X141208Y292832D01*
X141109Y292850D01*
X141012Y292871D01*
X140916Y292896D01*
X140820Y292925D01*
X140726Y292958D01*
X140633Y292994D01*
X140542Y293034D01*
X140452Y293078D01*
X140364Y293125D01*
X140278Y293175D01*
X140194Y293229D01*
X140112Y293286D01*
X140033Y293346D01*
X139955Y293410D01*
X139881Y293476D01*
X139809Y293545D01*
X139740Y293617D01*
X139674Y293691D01*
X139610Y293769D01*
X139550Y293848D01*
X139493Y293930D01*
X139439Y294014D01*
X139389Y294100D01*
X139342Y294188D01*
X139298Y294278D01*
X139258Y294369D01*
X139222Y294462D01*
X139189Y294556D01*
X139160Y294652D01*
X139135Y294748D01*
X139114Y294845D01*
X139096Y294944D01*
X139083Y295042D01*
X139073Y295142D01*
X139067Y295241D01*
X139065Y295341D01*
X139065Y301691D01*
X139067Y301791D01*
X139073Y301890D01*
X139083Y301990D01*
X139096Y302088D01*
X139114Y302187D01*
X139135Y302284D01*
X139160Y302380D01*
X139189Y302476D01*
X139222Y302570D01*
X139258Y302663D01*
X139298Y302754D01*
X139342Y302844D01*
X139389Y302932D01*
X139439Y303018D01*
X139493Y303102D01*
X139550Y303184D01*
X139610Y303263D01*
X139674Y303341D01*
X139740Y303415D01*
X139809Y303487D01*
X139881Y303556D01*
X139955Y303622D01*
X140033Y303686D01*
X140112Y303746D01*
X140194Y303803D01*
X140278Y303857D01*
X140364Y303907D01*
X140452Y303954D01*
X140542Y303998D01*
X140633Y304038D01*
X140726Y304074D01*
X140820Y304107D01*
X140916Y304136D01*
X141012Y304161D01*
X141109Y304182D01*
X141208Y304200D01*
X141306Y304213D01*
X141406Y304223D01*
X141505Y304229D01*
X141605Y304231D01*
X144145Y304231D01*
X148627Y301691D02*
X151802Y304231D01*
X151802Y292801D01*
X148627Y292801D02*
X154977Y292801D01*
X160058Y298516D02*
X160061Y298741D01*
X160069Y298966D01*
X160082Y299190D01*
X160101Y299414D01*
X160125Y299638D01*
X160154Y299861D01*
X160189Y300083D01*
X160229Y300304D01*
X160275Y300524D01*
X160325Y300743D01*
X160381Y300961D01*
X160442Y301178D01*
X160508Y301393D01*
X160579Y301606D01*
X160656Y301817D01*
X160737Y302027D01*
X160823Y302235D01*
X160914Y302440D01*
X161010Y302643D01*
X161009Y302644D02*
X161041Y302732D01*
X161077Y302819D01*
X161116Y302905D01*
X161159Y302989D01*
X161205Y303071D01*
X161254Y303151D01*
X161306Y303229D01*
X161362Y303305D01*
X161420Y303379D01*
X161482Y303450D01*
X161546Y303519D01*
X161613Y303585D01*
X161682Y303648D01*
X161754Y303709D01*
X161828Y303767D01*
X161905Y303821D01*
X161983Y303873D01*
X162064Y303921D01*
X162146Y303966D01*
X162231Y304008D01*
X162317Y304046D01*
X162404Y304081D01*
X162492Y304113D01*
X162582Y304140D01*
X162673Y304165D01*
X162765Y304185D01*
X162857Y304202D01*
X162951Y304215D01*
X163044Y304224D01*
X163138Y304230D01*
X163232Y304232D01*
X163326Y304230D01*
X163420Y304224D01*
X163513Y304215D01*
X163607Y304202D01*
X163699Y304185D01*
X163791Y304165D01*
X163882Y304140D01*
X163972Y304113D01*
X164060Y304081D01*
X164147Y304046D01*
X164233Y304008D01*
X164318Y303966D01*
X164400Y303921D01*
X164481Y303873D01*
X164559Y303821D01*
X164636Y303767D01*
X164710Y303709D01*
X164782Y303648D01*
X164851Y303585D01*
X164918Y303519D01*
X164982Y303450D01*
X165044Y303379D01*
X165102Y303305D01*
X165158Y303229D01*
X165210Y303151D01*
X165259Y303071D01*
X165305Y302989D01*
X165348Y302905D01*
X165387Y302819D01*
X165423Y302732D01*
X165455Y302644D01*
X165455Y302643D02*
X165551Y302440D01*
X165642Y302235D01*
X165728Y302027D01*
X165809Y301817D01*
X165886Y301606D01*
X165957Y301393D01*
X166023Y301178D01*
X166084Y300961D01*
X166140Y300743D01*
X166190Y300524D01*
X166236Y300304D01*
X166276Y300083D01*
X166311Y299861D01*
X166340Y299638D01*
X166364Y299414D01*
X166383Y299190D01*
X166396Y298966D01*
X166404Y298741D01*
X166407Y298516D01*
X160058Y298516D02*
X160061Y298291D01*
X160069Y298066D01*
X160082Y297842D01*
X160101Y297618D01*
X160125Y297394D01*
X160154Y297171D01*
X160189Y296949D01*
X160229Y296728D01*
X160275Y296508D01*
X160325Y296289D01*
X160381Y296071D01*
X160442Y295854D01*
X160508Y295639D01*
X160579Y295426D01*
X160656Y295215D01*
X160737Y295005D01*
X160823Y294797D01*
X160914Y294592D01*
X161010Y294389D01*
X161009Y294389D02*
X161041Y294301D01*
X161077Y294214D01*
X161116Y294128D01*
X161159Y294044D01*
X161205Y293962D01*
X161254Y293882D01*
X161306Y293804D01*
X161362Y293728D01*
X161420Y293654D01*
X161482Y293583D01*
X161546Y293514D01*
X161613Y293448D01*
X161682Y293385D01*
X161754Y293324D01*
X161828Y293266D01*
X161905Y293212D01*
X161983Y293160D01*
X162064Y293112D01*
X162146Y293067D01*
X162231Y293025D01*
X162317Y292987D01*
X162404Y292952D01*
X162492Y292920D01*
X162582Y292893D01*
X162673Y292868D01*
X162765Y292848D01*
X162857Y292831D01*
X162951Y292818D01*
X163044Y292809D01*
X163138Y292803D01*
X163232Y292801D01*
X165455Y294389D02*
X165551Y294592D01*
X165642Y294797D01*
X165728Y295005D01*
X165809Y295215D01*
X165886Y295426D01*
X165957Y295639D01*
X166023Y295854D01*
X166084Y296071D01*
X166140Y296289D01*
X166190Y296508D01*
X166236Y296728D01*
X166276Y296949D01*
X166311Y297171D01*
X166340Y297394D01*
X166364Y297618D01*
X166383Y297842D01*
X166396Y298066D01*
X166404Y298291D01*
X166407Y298516D01*
X165455Y294389D02*
X165423Y294301D01*
X165387Y294214D01*
X165348Y294128D01*
X165305Y294044D01*
X165259Y293962D01*
X165210Y293882D01*
X165158Y293804D01*
X165102Y293728D01*
X165044Y293654D01*
X164982Y293583D01*
X164918Y293514D01*
X164851Y293448D01*
X164782Y293385D01*
X164710Y293324D01*
X164636Y293266D01*
X164559Y293212D01*
X164481Y293160D01*
X164400Y293112D01*
X164318Y293067D01*
X164233Y293025D01*
X164147Y292987D01*
X164060Y292952D01*
X163972Y292920D01*
X163882Y292893D01*
X163791Y292868D01*
X163699Y292848D01*
X163607Y292831D01*
X163513Y292818D01*
X163420Y292809D01*
X163326Y292803D01*
X163232Y292801D01*
X160692Y295341D02*
X165772Y301691D01*
D10*
X125730Y241234D02*
X123190Y241234D01*
X125730Y241234D02*
X125730Y238694D01*
X125730Y241234D02*
X128270Y241234D01*
X125730Y241234D02*
X125730Y243774D01*
X114300Y228534D02*
X114308Y229157D01*
X114331Y229780D01*
X114369Y230403D01*
X114422Y231024D01*
X114491Y231643D01*
X114575Y232261D01*
X114674Y232876D01*
X114788Y233489D01*
X114917Y234099D01*
X115061Y234706D01*
X115220Y235309D01*
X115394Y235907D01*
X115582Y236502D01*
X115785Y237091D01*
X116002Y237675D01*
X116233Y238254D01*
X116479Y238827D01*
X116739Y239394D01*
X117012Y239954D01*
X117299Y240507D01*
X117600Y241054D01*
X117914Y241592D01*
X118241Y242123D01*
X118581Y242645D01*
X118933Y243160D01*
X119299Y243665D01*
X119676Y244161D01*
X120066Y244648D01*
X120467Y245125D01*
X120880Y245592D01*
X121304Y246048D01*
X121739Y246495D01*
X122186Y246930D01*
X122642Y247354D01*
X123109Y247767D01*
X123586Y248168D01*
X124073Y248558D01*
X124569Y248935D01*
X125074Y249301D01*
X125589Y249653D01*
X126111Y249993D01*
X126642Y250320D01*
X127180Y250634D01*
X127727Y250935D01*
X128280Y251222D01*
X128840Y251495D01*
X129407Y251755D01*
X129980Y252001D01*
X130559Y252232D01*
X131143Y252449D01*
X131732Y252652D01*
X132327Y252840D01*
X132925Y253014D01*
X133528Y253173D01*
X134135Y253317D01*
X134745Y253446D01*
X135358Y253560D01*
X135973Y253659D01*
X136591Y253743D01*
X137210Y253812D01*
X137831Y253865D01*
X138454Y253903D01*
X139077Y253926D01*
X139700Y253934D01*
X140323Y253926D01*
X140946Y253903D01*
X141569Y253865D01*
X142190Y253812D01*
X142809Y253743D01*
X143427Y253659D01*
X144042Y253560D01*
X144655Y253446D01*
X145265Y253317D01*
X145872Y253173D01*
X146475Y253014D01*
X147073Y252840D01*
X147668Y252652D01*
X148257Y252449D01*
X148841Y252232D01*
X149420Y252001D01*
X149993Y251755D01*
X150560Y251495D01*
X151120Y251222D01*
X151673Y250935D01*
X152220Y250634D01*
X152758Y250320D01*
X153289Y249993D01*
X153811Y249653D01*
X154326Y249301D01*
X154831Y248935D01*
X155327Y248558D01*
X155814Y248168D01*
X156291Y247767D01*
X156758Y247354D01*
X157214Y246930D01*
X157661Y246495D01*
X158096Y246048D01*
X158520Y245592D01*
X158933Y245125D01*
X159334Y244648D01*
X159724Y244161D01*
X160101Y243665D01*
X160467Y243160D01*
X160819Y242645D01*
X161159Y242123D01*
X161486Y241592D01*
X161800Y241054D01*
X162101Y240507D01*
X162388Y239954D01*
X162661Y239394D01*
X162921Y238827D01*
X163167Y238254D01*
X163398Y237675D01*
X163615Y237091D01*
X163818Y236502D01*
X164006Y235907D01*
X164180Y235309D01*
X164339Y234706D01*
X164483Y234099D01*
X164612Y233489D01*
X164726Y232876D01*
X164825Y232261D01*
X164909Y231643D01*
X164978Y231024D01*
X165031Y230403D01*
X165069Y229780D01*
X165092Y229157D01*
X165100Y228534D01*
X165092Y227911D01*
X165069Y227288D01*
X165031Y226665D01*
X164978Y226044D01*
X164909Y225425D01*
X164825Y224807D01*
X164726Y224192D01*
X164612Y223579D01*
X164483Y222969D01*
X164339Y222362D01*
X164180Y221759D01*
X164006Y221161D01*
X163818Y220566D01*
X163615Y219977D01*
X163398Y219393D01*
X163167Y218814D01*
X162921Y218241D01*
X162661Y217674D01*
X162388Y217114D01*
X162101Y216561D01*
X161800Y216014D01*
X161486Y215476D01*
X161159Y214945D01*
X160819Y214423D01*
X160467Y213908D01*
X160101Y213403D01*
X159724Y212907D01*
X159334Y212420D01*
X158933Y211943D01*
X158520Y211476D01*
X158096Y211020D01*
X157661Y210573D01*
X157214Y210138D01*
X156758Y209714D01*
X156291Y209301D01*
X155814Y208900D01*
X155327Y208510D01*
X154831Y208133D01*
X154326Y207767D01*
X153811Y207415D01*
X153289Y207075D01*
X152758Y206748D01*
X152220Y206434D01*
X151673Y206133D01*
X151120Y205846D01*
X150560Y205573D01*
X149993Y205313D01*
X149420Y205067D01*
X148841Y204836D01*
X148257Y204619D01*
X147668Y204416D01*
X147073Y204228D01*
X146475Y204054D01*
X145872Y203895D01*
X145265Y203751D01*
X144655Y203622D01*
X144042Y203508D01*
X143427Y203409D01*
X142809Y203325D01*
X142190Y203256D01*
X141569Y203203D01*
X140946Y203165D01*
X140323Y203142D01*
X139700Y203134D01*
X139077Y203142D01*
X138454Y203165D01*
X137831Y203203D01*
X137210Y203256D01*
X136591Y203325D01*
X135973Y203409D01*
X135358Y203508D01*
X134745Y203622D01*
X134135Y203751D01*
X133528Y203895D01*
X132925Y204054D01*
X132327Y204228D01*
X131732Y204416D01*
X131143Y204619D01*
X130559Y204836D01*
X129980Y205067D01*
X129407Y205313D01*
X128840Y205573D01*
X128280Y205846D01*
X127727Y206133D01*
X127180Y206434D01*
X126642Y206748D01*
X126111Y207075D01*
X125589Y207415D01*
X125074Y207767D01*
X124569Y208133D01*
X124073Y208510D01*
X123586Y208900D01*
X123109Y209301D01*
X122642Y209714D01*
X122186Y210138D01*
X121739Y210573D01*
X121304Y211020D01*
X120880Y211476D01*
X120467Y211943D01*
X120066Y212420D01*
X119676Y212907D01*
X119299Y213403D01*
X118933Y213908D01*
X118581Y214423D01*
X118241Y214945D01*
X117914Y215476D01*
X117600Y216014D01*
X117299Y216561D01*
X117012Y217114D01*
X116739Y217674D01*
X116479Y218241D01*
X116233Y218814D01*
X116002Y219393D01*
X115785Y219977D01*
X115582Y220566D01*
X115394Y221161D01*
X115220Y221759D01*
X115061Y222362D01*
X114917Y222969D01*
X114788Y223579D01*
X114674Y224192D01*
X114575Y224807D01*
X114491Y225425D01*
X114422Y226044D01*
X114369Y226665D01*
X114331Y227288D01*
X114308Y227911D01*
X114300Y228534D01*
D11*
X167005Y241869D02*
X169545Y241869D01*
X167005Y241869D02*
X166905Y241871D01*
X166806Y241877D01*
X166706Y241887D01*
X166608Y241900D01*
X166509Y241918D01*
X166412Y241939D01*
X166316Y241964D01*
X166220Y241993D01*
X166126Y242026D01*
X166033Y242062D01*
X165942Y242102D01*
X165852Y242146D01*
X165764Y242193D01*
X165678Y242243D01*
X165594Y242297D01*
X165512Y242354D01*
X165433Y242414D01*
X165355Y242478D01*
X165281Y242544D01*
X165209Y242613D01*
X165140Y242685D01*
X165074Y242759D01*
X165010Y242837D01*
X164950Y242916D01*
X164893Y242998D01*
X164839Y243082D01*
X164789Y243168D01*
X164742Y243256D01*
X164698Y243346D01*
X164658Y243437D01*
X164622Y243530D01*
X164589Y243624D01*
X164560Y243720D01*
X164535Y243816D01*
X164514Y243913D01*
X164496Y244012D01*
X164483Y244110D01*
X164473Y244210D01*
X164467Y244309D01*
X164465Y244409D01*
X164465Y250759D01*
X164467Y250859D01*
X164473Y250958D01*
X164483Y251058D01*
X164496Y251156D01*
X164514Y251255D01*
X164535Y251352D01*
X164560Y251448D01*
X164589Y251544D01*
X164622Y251638D01*
X164658Y251731D01*
X164698Y251822D01*
X164742Y251912D01*
X164789Y252000D01*
X164839Y252086D01*
X164893Y252170D01*
X164950Y252252D01*
X165010Y252331D01*
X165074Y252409D01*
X165140Y252483D01*
X165209Y252555D01*
X165281Y252624D01*
X165355Y252690D01*
X165433Y252754D01*
X165512Y252814D01*
X165594Y252871D01*
X165678Y252925D01*
X165764Y252975D01*
X165852Y253022D01*
X165942Y253066D01*
X166033Y253106D01*
X166126Y253142D01*
X166220Y253175D01*
X166316Y253204D01*
X166412Y253229D01*
X166509Y253250D01*
X166608Y253268D01*
X166706Y253281D01*
X166806Y253291D01*
X166905Y253297D01*
X167005Y253299D01*
X169545Y253299D01*
X174027Y250759D02*
X177202Y253299D01*
X177202Y241869D01*
X174027Y241869D02*
X180377Y241869D01*
X185457Y250759D02*
X188632Y253299D01*
X188632Y241869D01*
X185457Y241869D02*
X191807Y241869D01*
D10*
X92776Y323850D02*
X92776Y336550D01*
X92778Y336690D01*
X92784Y336830D01*
X92793Y336970D01*
X92807Y337109D01*
X92824Y337248D01*
X92845Y337386D01*
X92870Y337524D01*
X92899Y337661D01*
X92931Y337797D01*
X92968Y337932D01*
X93008Y338066D01*
X93051Y338199D01*
X93099Y338331D01*
X93149Y338462D01*
X93204Y338591D01*
X93262Y338718D01*
X93323Y338844D01*
X93388Y338968D01*
X93457Y339090D01*
X93528Y339210D01*
X93603Y339328D01*
X93681Y339445D01*
X93763Y339559D01*
X93847Y339670D01*
X93935Y339779D01*
X94025Y339886D01*
X94119Y339991D01*
X94215Y340092D01*
X94314Y340191D01*
X94415Y340287D01*
X94520Y340381D01*
X94627Y340471D01*
X94736Y340559D01*
X94847Y340643D01*
X94961Y340725D01*
X95078Y340803D01*
X95196Y340878D01*
X95316Y340949D01*
X95438Y341018D01*
X95562Y341083D01*
X95688Y341144D01*
X95815Y341202D01*
X95944Y341257D01*
X96075Y341307D01*
X96207Y341355D01*
X96340Y341398D01*
X96474Y341438D01*
X96609Y341475D01*
X96745Y341507D01*
X96882Y341536D01*
X97020Y341561D01*
X97158Y341582D01*
X97297Y341599D01*
X97436Y341613D01*
X97576Y341622D01*
X97716Y341628D01*
X97856Y341630D01*
X92776Y323850D02*
X92778Y323710D01*
X92784Y323570D01*
X92793Y323430D01*
X92807Y323291D01*
X92824Y323152D01*
X92845Y323014D01*
X92870Y322876D01*
X92899Y322739D01*
X92931Y322603D01*
X92968Y322468D01*
X93008Y322334D01*
X93051Y322201D01*
X93099Y322069D01*
X93149Y321938D01*
X93204Y321809D01*
X93262Y321682D01*
X93323Y321556D01*
X93388Y321432D01*
X93457Y321310D01*
X93528Y321190D01*
X93603Y321072D01*
X93681Y320955D01*
X93763Y320841D01*
X93847Y320730D01*
X93935Y320621D01*
X94025Y320514D01*
X94119Y320409D01*
X94215Y320308D01*
X94314Y320209D01*
X94415Y320113D01*
X94520Y320019D01*
X94627Y319929D01*
X94736Y319841D01*
X94847Y319757D01*
X94961Y319675D01*
X95078Y319597D01*
X95196Y319522D01*
X95316Y319451D01*
X95438Y319382D01*
X95562Y319317D01*
X95688Y319256D01*
X95815Y319198D01*
X95944Y319143D01*
X96075Y319093D01*
X96207Y319045D01*
X96340Y319002D01*
X96474Y318962D01*
X96609Y318925D01*
X96745Y318893D01*
X96882Y318864D01*
X97020Y318839D01*
X97158Y318818D01*
X97297Y318801D01*
X97436Y318787D01*
X97576Y318778D01*
X97716Y318772D01*
X97856Y318770D01*
X97856Y341630D02*
X130876Y341630D01*
X135956Y336550D02*
X135956Y323850D01*
X130876Y318770D02*
X97856Y318770D01*
X130876Y341630D02*
X131016Y341628D01*
X131156Y341622D01*
X131296Y341613D01*
X131435Y341599D01*
X131574Y341582D01*
X131712Y341561D01*
X131850Y341536D01*
X131987Y341507D01*
X132123Y341475D01*
X132258Y341438D01*
X132392Y341398D01*
X132525Y341355D01*
X132657Y341307D01*
X132788Y341257D01*
X132917Y341202D01*
X133044Y341144D01*
X133170Y341083D01*
X133294Y341018D01*
X133416Y340949D01*
X133536Y340878D01*
X133654Y340803D01*
X133771Y340725D01*
X133885Y340643D01*
X133996Y340559D01*
X134105Y340471D01*
X134212Y340381D01*
X134317Y340287D01*
X134418Y340191D01*
X134517Y340092D01*
X134613Y339991D01*
X134707Y339886D01*
X134797Y339779D01*
X134885Y339670D01*
X134969Y339559D01*
X135051Y339445D01*
X135129Y339328D01*
X135204Y339210D01*
X135275Y339090D01*
X135344Y338968D01*
X135409Y338844D01*
X135470Y338718D01*
X135528Y338591D01*
X135583Y338462D01*
X135633Y338331D01*
X135681Y338199D01*
X135724Y338066D01*
X135764Y337932D01*
X135801Y337797D01*
X135833Y337661D01*
X135862Y337524D01*
X135887Y337386D01*
X135908Y337248D01*
X135925Y337109D01*
X135939Y336970D01*
X135948Y336830D01*
X135954Y336690D01*
X135956Y336550D01*
X135956Y323850D02*
X135954Y323710D01*
X135948Y323570D01*
X135939Y323430D01*
X135925Y323291D01*
X135908Y323152D01*
X135887Y323014D01*
X135862Y322876D01*
X135833Y322739D01*
X135801Y322603D01*
X135764Y322468D01*
X135724Y322334D01*
X135681Y322201D01*
X135633Y322069D01*
X135583Y321938D01*
X135528Y321809D01*
X135470Y321682D01*
X135409Y321556D01*
X135344Y321432D01*
X135275Y321310D01*
X135204Y321190D01*
X135129Y321072D01*
X135051Y320955D01*
X134969Y320841D01*
X134885Y320730D01*
X134797Y320621D01*
X134707Y320514D01*
X134613Y320409D01*
X134517Y320308D01*
X134418Y320209D01*
X134317Y320113D01*
X134212Y320019D01*
X134105Y319929D01*
X133996Y319841D01*
X133885Y319757D01*
X133771Y319675D01*
X133654Y319597D01*
X133536Y319522D01*
X133416Y319451D01*
X133294Y319382D01*
X133170Y319317D01*
X133044Y319256D01*
X132917Y319198D01*
X132788Y319143D01*
X132657Y319093D01*
X132525Y319045D01*
X132392Y319002D01*
X132258Y318962D01*
X132123Y318925D01*
X131987Y318893D01*
X131850Y318864D01*
X131712Y318839D01*
X131574Y318818D01*
X131435Y318801D01*
X131296Y318787D01*
X131156Y318778D01*
X131016Y318772D01*
X130876Y318770D01*
D12*
X111318Y322580D02*
X111318Y337820D01*
X117668Y337820D02*
X117668Y322580D01*
D11*
X102301Y344805D02*
X99761Y344805D01*
X99661Y344807D01*
X99562Y344813D01*
X99462Y344823D01*
X99364Y344836D01*
X99265Y344854D01*
X99168Y344875D01*
X99072Y344900D01*
X98976Y344929D01*
X98882Y344962D01*
X98789Y344998D01*
X98698Y345038D01*
X98608Y345082D01*
X98520Y345129D01*
X98434Y345179D01*
X98350Y345233D01*
X98268Y345290D01*
X98189Y345350D01*
X98111Y345414D01*
X98037Y345480D01*
X97965Y345549D01*
X97896Y345621D01*
X97830Y345695D01*
X97766Y345773D01*
X97706Y345852D01*
X97649Y345934D01*
X97595Y346018D01*
X97545Y346104D01*
X97498Y346192D01*
X97454Y346282D01*
X97414Y346373D01*
X97378Y346466D01*
X97345Y346560D01*
X97316Y346656D01*
X97291Y346752D01*
X97270Y346849D01*
X97252Y346948D01*
X97239Y347046D01*
X97229Y347146D01*
X97223Y347245D01*
X97221Y347345D01*
X97221Y353695D01*
X97223Y353795D01*
X97229Y353894D01*
X97239Y353994D01*
X97252Y354092D01*
X97270Y354191D01*
X97291Y354288D01*
X97316Y354384D01*
X97345Y354480D01*
X97378Y354574D01*
X97414Y354667D01*
X97454Y354758D01*
X97498Y354848D01*
X97545Y354936D01*
X97595Y355022D01*
X97649Y355106D01*
X97706Y355188D01*
X97766Y355267D01*
X97830Y355345D01*
X97896Y355419D01*
X97965Y355491D01*
X98037Y355560D01*
X98111Y355626D01*
X98189Y355690D01*
X98268Y355750D01*
X98350Y355807D01*
X98434Y355861D01*
X98520Y355911D01*
X98608Y355958D01*
X98698Y356002D01*
X98789Y356042D01*
X98882Y356078D01*
X98976Y356111D01*
X99072Y356140D01*
X99168Y356165D01*
X99265Y356186D01*
X99364Y356204D01*
X99462Y356217D01*
X99562Y356227D01*
X99661Y356233D01*
X99761Y356235D01*
X102301Y356235D01*
X106783Y353695D02*
X109958Y356235D01*
X109958Y344805D01*
X106783Y344805D02*
X113133Y344805D01*
X124564Y353378D02*
X124562Y353482D01*
X124556Y353587D01*
X124547Y353691D01*
X124534Y353794D01*
X124516Y353897D01*
X124496Y353999D01*
X124471Y354101D01*
X124443Y354201D01*
X124411Y354301D01*
X124375Y354399D01*
X124336Y354496D01*
X124294Y354591D01*
X124248Y354685D01*
X124198Y354777D01*
X124146Y354867D01*
X124090Y354955D01*
X124030Y355041D01*
X123968Y355125D01*
X123903Y355206D01*
X123835Y355285D01*
X123763Y355362D01*
X123690Y355435D01*
X123613Y355507D01*
X123534Y355575D01*
X123453Y355640D01*
X123369Y355702D01*
X123283Y355762D01*
X123195Y355818D01*
X123105Y355870D01*
X123013Y355920D01*
X122919Y355966D01*
X122824Y356008D01*
X122727Y356047D01*
X122629Y356083D01*
X122529Y356115D01*
X122429Y356143D01*
X122327Y356168D01*
X122225Y356188D01*
X122122Y356206D01*
X122019Y356219D01*
X121915Y356228D01*
X121810Y356234D01*
X121706Y356236D01*
X121706Y356235D02*
X121588Y356233D01*
X121469Y356227D01*
X121351Y356218D01*
X121234Y356205D01*
X121117Y356187D01*
X121000Y356167D01*
X120884Y356142D01*
X120769Y356114D01*
X120656Y356081D01*
X120543Y356046D01*
X120431Y356006D01*
X120321Y355964D01*
X120212Y355917D01*
X120104Y355867D01*
X119999Y355814D01*
X119895Y355757D01*
X119793Y355697D01*
X119693Y355634D01*
X119595Y355567D01*
X119499Y355498D01*
X119406Y355425D01*
X119315Y355349D01*
X119226Y355271D01*
X119140Y355189D01*
X119057Y355105D01*
X118976Y355019D01*
X118899Y354929D01*
X118824Y354838D01*
X118752Y354744D01*
X118683Y354647D01*
X118618Y354549D01*
X118555Y354448D01*
X118496Y354345D01*
X118440Y354241D01*
X118388Y354135D01*
X118339Y354027D01*
X118294Y353918D01*
X118252Y353807D01*
X118214Y353695D01*
X123611Y351156D02*
X123687Y351231D01*
X123762Y351310D01*
X123833Y351391D01*
X123902Y351475D01*
X123967Y351561D01*
X124029Y351649D01*
X124089Y351739D01*
X124145Y351831D01*
X124198Y351926D01*
X124247Y352022D01*
X124293Y352120D01*
X124336Y352219D01*
X124375Y352320D01*
X124410Y352422D01*
X124442Y352525D01*
X124470Y352629D01*
X124495Y352734D01*
X124516Y352841D01*
X124533Y352947D01*
X124546Y353054D01*
X124555Y353162D01*
X124561Y353270D01*
X124563Y353378D01*
X123611Y351155D02*
X118213Y344805D01*
X124563Y344805D01*
D10*
X118044Y349250D02*
X118044Y361950D01*
X118046Y362090D01*
X118052Y362230D01*
X118061Y362370D01*
X118075Y362509D01*
X118092Y362648D01*
X118113Y362786D01*
X118138Y362924D01*
X118167Y363061D01*
X118199Y363197D01*
X118236Y363332D01*
X118276Y363466D01*
X118319Y363599D01*
X118367Y363731D01*
X118417Y363862D01*
X118472Y363991D01*
X118530Y364118D01*
X118591Y364244D01*
X118656Y364368D01*
X118725Y364490D01*
X118796Y364610D01*
X118871Y364728D01*
X118949Y364845D01*
X119031Y364959D01*
X119115Y365070D01*
X119203Y365179D01*
X119293Y365286D01*
X119387Y365391D01*
X119483Y365492D01*
X119582Y365591D01*
X119683Y365687D01*
X119788Y365781D01*
X119895Y365871D01*
X120004Y365959D01*
X120115Y366043D01*
X120229Y366125D01*
X120346Y366203D01*
X120464Y366278D01*
X120584Y366349D01*
X120706Y366418D01*
X120830Y366483D01*
X120956Y366544D01*
X121083Y366602D01*
X121212Y366657D01*
X121343Y366707D01*
X121475Y366755D01*
X121608Y366798D01*
X121742Y366838D01*
X121877Y366875D01*
X122013Y366907D01*
X122150Y366936D01*
X122288Y366961D01*
X122426Y366982D01*
X122565Y366999D01*
X122704Y367013D01*
X122844Y367022D01*
X122984Y367028D01*
X123124Y367030D01*
X118044Y349250D02*
X118046Y349110D01*
X118052Y348970D01*
X118061Y348830D01*
X118075Y348691D01*
X118092Y348552D01*
X118113Y348414D01*
X118138Y348276D01*
X118167Y348139D01*
X118199Y348003D01*
X118236Y347868D01*
X118276Y347734D01*
X118319Y347601D01*
X118367Y347469D01*
X118417Y347338D01*
X118472Y347209D01*
X118530Y347082D01*
X118591Y346956D01*
X118656Y346832D01*
X118725Y346710D01*
X118796Y346590D01*
X118871Y346472D01*
X118949Y346355D01*
X119031Y346241D01*
X119115Y346130D01*
X119203Y346021D01*
X119293Y345914D01*
X119387Y345809D01*
X119483Y345708D01*
X119582Y345609D01*
X119683Y345513D01*
X119788Y345419D01*
X119895Y345329D01*
X120004Y345241D01*
X120115Y345157D01*
X120229Y345075D01*
X120346Y344997D01*
X120464Y344922D01*
X120584Y344851D01*
X120706Y344782D01*
X120830Y344717D01*
X120956Y344656D01*
X121083Y344598D01*
X121212Y344543D01*
X121343Y344493D01*
X121475Y344445D01*
X121608Y344402D01*
X121742Y344362D01*
X121877Y344325D01*
X122013Y344293D01*
X122150Y344264D01*
X122288Y344239D01*
X122426Y344218D01*
X122565Y344201D01*
X122704Y344187D01*
X122844Y344178D01*
X122984Y344172D01*
X123124Y344170D01*
X123124Y367030D02*
X156144Y367030D01*
X161224Y361950D02*
X161224Y349250D01*
X156144Y344170D02*
X123124Y344170D01*
X156144Y367030D02*
X156284Y367028D01*
X156424Y367022D01*
X156564Y367013D01*
X156703Y366999D01*
X156842Y366982D01*
X156980Y366961D01*
X157118Y366936D01*
X157255Y366907D01*
X157391Y366875D01*
X157526Y366838D01*
X157660Y366798D01*
X157793Y366755D01*
X157925Y366707D01*
X158056Y366657D01*
X158185Y366602D01*
X158312Y366544D01*
X158438Y366483D01*
X158562Y366418D01*
X158684Y366349D01*
X158804Y366278D01*
X158922Y366203D01*
X159039Y366125D01*
X159153Y366043D01*
X159264Y365959D01*
X159373Y365871D01*
X159480Y365781D01*
X159585Y365687D01*
X159686Y365591D01*
X159785Y365492D01*
X159881Y365391D01*
X159975Y365286D01*
X160065Y365179D01*
X160153Y365070D01*
X160237Y364959D01*
X160319Y364845D01*
X160397Y364728D01*
X160472Y364610D01*
X160543Y364490D01*
X160612Y364368D01*
X160677Y364244D01*
X160738Y364118D01*
X160796Y363991D01*
X160851Y363862D01*
X160901Y363731D01*
X160949Y363599D01*
X160992Y363466D01*
X161032Y363332D01*
X161069Y363197D01*
X161101Y363061D01*
X161130Y362924D01*
X161155Y362786D01*
X161176Y362648D01*
X161193Y362509D01*
X161207Y362370D01*
X161216Y362230D01*
X161222Y362090D01*
X161224Y361950D01*
X161224Y349250D02*
X161222Y349110D01*
X161216Y348970D01*
X161207Y348830D01*
X161193Y348691D01*
X161176Y348552D01*
X161155Y348414D01*
X161130Y348276D01*
X161101Y348139D01*
X161069Y348003D01*
X161032Y347868D01*
X160992Y347734D01*
X160949Y347601D01*
X160901Y347469D01*
X160851Y347338D01*
X160796Y347209D01*
X160738Y347082D01*
X160677Y346956D01*
X160612Y346832D01*
X160543Y346710D01*
X160472Y346590D01*
X160397Y346472D01*
X160319Y346355D01*
X160237Y346241D01*
X160153Y346130D01*
X160065Y346021D01*
X159975Y345914D01*
X159881Y345809D01*
X159785Y345708D01*
X159686Y345609D01*
X159585Y345513D01*
X159480Y345419D01*
X159373Y345329D01*
X159264Y345241D01*
X159153Y345157D01*
X159039Y345075D01*
X158922Y344997D01*
X158804Y344922D01*
X158684Y344851D01*
X158562Y344782D01*
X158438Y344717D01*
X158312Y344656D01*
X158185Y344598D01*
X158056Y344543D01*
X157925Y344493D01*
X157793Y344445D01*
X157660Y344402D01*
X157526Y344362D01*
X157391Y344325D01*
X157255Y344293D01*
X157118Y344264D01*
X156980Y344239D01*
X156842Y344218D01*
X156703Y344201D01*
X156564Y344187D01*
X156424Y344178D01*
X156284Y344172D01*
X156144Y344170D01*
D12*
X136586Y347980D02*
X136586Y363220D01*
X142936Y363220D02*
X142936Y347980D01*
D11*
X127569Y370205D02*
X125029Y370205D01*
X124929Y370207D01*
X124830Y370213D01*
X124730Y370223D01*
X124632Y370236D01*
X124533Y370254D01*
X124436Y370275D01*
X124340Y370300D01*
X124244Y370329D01*
X124150Y370362D01*
X124057Y370398D01*
X123966Y370438D01*
X123876Y370482D01*
X123788Y370529D01*
X123702Y370579D01*
X123618Y370633D01*
X123536Y370690D01*
X123457Y370750D01*
X123379Y370814D01*
X123305Y370880D01*
X123233Y370949D01*
X123164Y371021D01*
X123098Y371095D01*
X123034Y371173D01*
X122974Y371252D01*
X122917Y371334D01*
X122863Y371418D01*
X122813Y371504D01*
X122766Y371592D01*
X122722Y371682D01*
X122682Y371773D01*
X122646Y371866D01*
X122613Y371960D01*
X122584Y372056D01*
X122559Y372152D01*
X122538Y372249D01*
X122520Y372348D01*
X122507Y372446D01*
X122497Y372546D01*
X122491Y372645D01*
X122489Y372745D01*
X122489Y379095D01*
X122491Y379195D01*
X122497Y379294D01*
X122507Y379394D01*
X122520Y379492D01*
X122538Y379591D01*
X122559Y379688D01*
X122584Y379784D01*
X122613Y379880D01*
X122646Y379974D01*
X122682Y380067D01*
X122722Y380158D01*
X122766Y380248D01*
X122813Y380336D01*
X122863Y380422D01*
X122917Y380506D01*
X122974Y380588D01*
X123034Y380667D01*
X123098Y380745D01*
X123164Y380819D01*
X123233Y380891D01*
X123305Y380960D01*
X123379Y381026D01*
X123457Y381090D01*
X123536Y381150D01*
X123618Y381207D01*
X123702Y381261D01*
X123788Y381311D01*
X123876Y381358D01*
X123966Y381402D01*
X124057Y381442D01*
X124150Y381478D01*
X124244Y381511D01*
X124340Y381540D01*
X124436Y381565D01*
X124533Y381586D01*
X124632Y381604D01*
X124730Y381617D01*
X124830Y381627D01*
X124929Y381633D01*
X125029Y381635D01*
X127569Y381635D01*
X132051Y379095D02*
X135226Y381635D01*
X135226Y370205D01*
X132051Y370205D02*
X138401Y370205D01*
X143481Y370205D02*
X146656Y370205D01*
X146767Y370207D01*
X146877Y370213D01*
X146988Y370222D01*
X147098Y370236D01*
X147207Y370253D01*
X147316Y370274D01*
X147424Y370299D01*
X147531Y370328D01*
X147637Y370360D01*
X147742Y370396D01*
X147845Y370436D01*
X147947Y370479D01*
X148048Y370526D01*
X148147Y370577D01*
X148243Y370630D01*
X148338Y370687D01*
X148431Y370748D01*
X148522Y370811D01*
X148611Y370878D01*
X148697Y370948D01*
X148780Y371021D01*
X148862Y371096D01*
X148940Y371174D01*
X149015Y371256D01*
X149088Y371339D01*
X149158Y371425D01*
X149225Y371514D01*
X149288Y371605D01*
X149349Y371698D01*
X149406Y371792D01*
X149459Y371889D01*
X149510Y371988D01*
X149557Y372089D01*
X149600Y372191D01*
X149640Y372294D01*
X149676Y372399D01*
X149708Y372505D01*
X149737Y372612D01*
X149762Y372720D01*
X149783Y372829D01*
X149800Y372938D01*
X149814Y373048D01*
X149823Y373159D01*
X149829Y373269D01*
X149831Y373380D01*
X149829Y373491D01*
X149823Y373601D01*
X149814Y373712D01*
X149800Y373822D01*
X149783Y373931D01*
X149762Y374040D01*
X149737Y374148D01*
X149708Y374255D01*
X149676Y374361D01*
X149640Y374466D01*
X149600Y374569D01*
X149557Y374671D01*
X149510Y374772D01*
X149459Y374871D01*
X149406Y374967D01*
X149349Y375062D01*
X149288Y375155D01*
X149225Y375246D01*
X149158Y375335D01*
X149088Y375421D01*
X149015Y375504D01*
X148940Y375586D01*
X148862Y375664D01*
X148780Y375739D01*
X148697Y375812D01*
X148611Y375882D01*
X148522Y375949D01*
X148431Y376012D01*
X148338Y376073D01*
X148244Y376130D01*
X148147Y376183D01*
X148048Y376234D01*
X147947Y376281D01*
X147845Y376324D01*
X147742Y376364D01*
X147637Y376400D01*
X147531Y376432D01*
X147424Y376461D01*
X147316Y376486D01*
X147207Y376507D01*
X147098Y376524D01*
X146988Y376538D01*
X146877Y376547D01*
X146767Y376553D01*
X146656Y376555D01*
X147291Y381635D02*
X143481Y381635D01*
X147291Y381635D02*
X147391Y381633D01*
X147490Y381627D01*
X147590Y381617D01*
X147688Y381604D01*
X147787Y381586D01*
X147884Y381565D01*
X147980Y381540D01*
X148076Y381511D01*
X148170Y381478D01*
X148263Y381442D01*
X148354Y381402D01*
X148444Y381358D01*
X148532Y381311D01*
X148618Y381261D01*
X148702Y381207D01*
X148784Y381150D01*
X148863Y381090D01*
X148941Y381026D01*
X149015Y380960D01*
X149087Y380891D01*
X149156Y380819D01*
X149222Y380745D01*
X149286Y380667D01*
X149346Y380588D01*
X149403Y380506D01*
X149457Y380422D01*
X149507Y380336D01*
X149554Y380248D01*
X149598Y380158D01*
X149638Y380067D01*
X149674Y379974D01*
X149707Y379880D01*
X149736Y379784D01*
X149761Y379688D01*
X149782Y379591D01*
X149800Y379492D01*
X149813Y379394D01*
X149823Y379294D01*
X149829Y379195D01*
X149831Y379095D01*
X149829Y378995D01*
X149823Y378896D01*
X149813Y378796D01*
X149800Y378698D01*
X149782Y378599D01*
X149761Y378502D01*
X149736Y378406D01*
X149707Y378310D01*
X149674Y378216D01*
X149638Y378123D01*
X149598Y378032D01*
X149554Y377942D01*
X149507Y377854D01*
X149457Y377768D01*
X149403Y377684D01*
X149346Y377602D01*
X149286Y377523D01*
X149222Y377445D01*
X149156Y377371D01*
X149087Y377299D01*
X149015Y377230D01*
X148941Y377164D01*
X148863Y377100D01*
X148784Y377040D01*
X148702Y376983D01*
X148618Y376929D01*
X148532Y376879D01*
X148444Y376832D01*
X148354Y376788D01*
X148263Y376748D01*
X148170Y376712D01*
X148076Y376679D01*
X147980Y376650D01*
X147884Y376625D01*
X147787Y376604D01*
X147688Y376586D01*
X147590Y376573D01*
X147490Y376563D01*
X147391Y376557D01*
X147291Y376555D01*
X144751Y376555D01*
D10*
X109286Y165100D02*
X109386Y165098D01*
X109485Y165092D01*
X109585Y165082D01*
X109683Y165069D01*
X109782Y165051D01*
X109879Y165030D01*
X109975Y165005D01*
X110071Y164976D01*
X110165Y164943D01*
X110258Y164907D01*
X110349Y164867D01*
X110439Y164823D01*
X110527Y164776D01*
X110613Y164726D01*
X110697Y164672D01*
X110779Y164615D01*
X110858Y164555D01*
X110936Y164491D01*
X111010Y164425D01*
X111082Y164356D01*
X111151Y164284D01*
X111217Y164210D01*
X111281Y164132D01*
X111341Y164053D01*
X111398Y163971D01*
X111452Y163887D01*
X111502Y163801D01*
X111549Y163713D01*
X111593Y163623D01*
X111633Y163532D01*
X111669Y163439D01*
X111702Y163345D01*
X111731Y163249D01*
X111756Y163153D01*
X111777Y163056D01*
X111795Y162957D01*
X111808Y162859D01*
X111818Y162759D01*
X111824Y162660D01*
X111826Y162560D01*
X94046Y165100D02*
X93946Y165098D01*
X93847Y165092D01*
X93747Y165082D01*
X93649Y165069D01*
X93550Y165051D01*
X93453Y165030D01*
X93357Y165005D01*
X93261Y164976D01*
X93167Y164943D01*
X93074Y164907D01*
X92983Y164867D01*
X92893Y164823D01*
X92805Y164776D01*
X92719Y164726D01*
X92635Y164672D01*
X92553Y164615D01*
X92474Y164555D01*
X92396Y164491D01*
X92322Y164425D01*
X92250Y164356D01*
X92181Y164284D01*
X92115Y164210D01*
X92051Y164132D01*
X91991Y164053D01*
X91934Y163971D01*
X91880Y163887D01*
X91830Y163801D01*
X91783Y163713D01*
X91739Y163623D01*
X91699Y163532D01*
X91663Y163439D01*
X91630Y163345D01*
X91601Y163249D01*
X91576Y163153D01*
X91555Y163056D01*
X91537Y162957D01*
X91524Y162859D01*
X91514Y162759D01*
X91508Y162660D01*
X91506Y162560D01*
X91506Y116840D02*
X91508Y116740D01*
X91514Y116641D01*
X91524Y116541D01*
X91537Y116443D01*
X91555Y116344D01*
X91576Y116247D01*
X91601Y116151D01*
X91630Y116055D01*
X91663Y115961D01*
X91699Y115868D01*
X91739Y115777D01*
X91783Y115687D01*
X91830Y115599D01*
X91880Y115513D01*
X91934Y115429D01*
X91991Y115347D01*
X92051Y115268D01*
X92115Y115190D01*
X92181Y115116D01*
X92250Y115044D01*
X92322Y114975D01*
X92396Y114909D01*
X92474Y114845D01*
X92553Y114785D01*
X92635Y114728D01*
X92719Y114674D01*
X92805Y114624D01*
X92893Y114577D01*
X92983Y114533D01*
X93074Y114493D01*
X93167Y114457D01*
X93261Y114424D01*
X93357Y114395D01*
X93453Y114370D01*
X93550Y114349D01*
X93649Y114331D01*
X93747Y114318D01*
X93847Y114308D01*
X93946Y114302D01*
X94046Y114300D01*
X109286Y114300D02*
X109386Y114302D01*
X109485Y114308D01*
X109585Y114318D01*
X109683Y114331D01*
X109782Y114349D01*
X109879Y114370D01*
X109975Y114395D01*
X110071Y114424D01*
X110165Y114457D01*
X110258Y114493D01*
X110349Y114533D01*
X110439Y114577D01*
X110527Y114624D01*
X110613Y114674D01*
X110697Y114728D01*
X110779Y114785D01*
X110858Y114845D01*
X110936Y114909D01*
X111010Y114975D01*
X111082Y115044D01*
X111151Y115116D01*
X111217Y115190D01*
X111281Y115268D01*
X111341Y115347D01*
X111398Y115429D01*
X111452Y115513D01*
X111502Y115599D01*
X111549Y115687D01*
X111593Y115777D01*
X111633Y115868D01*
X111669Y115961D01*
X111702Y116055D01*
X111731Y116151D01*
X111756Y116247D01*
X111777Y116344D01*
X111795Y116443D01*
X111808Y116541D01*
X111818Y116641D01*
X111824Y116740D01*
X111826Y116840D01*
X109286Y165100D02*
X94046Y165100D01*
X111826Y162560D02*
X111826Y158750D01*
X110556Y157480D01*
X91506Y158750D02*
X91506Y162560D01*
X91506Y158750D02*
X92776Y157480D01*
X110556Y121920D02*
X111826Y120650D01*
X110556Y121920D02*
X110556Y157480D01*
X92776Y121920D02*
X91506Y120650D01*
X92776Y121920D02*
X92776Y157480D01*
X111826Y120650D02*
X111826Y116840D01*
X91506Y116840D02*
X91506Y120650D01*
X94046Y114300D02*
X109286Y114300D01*
D13*
X101666Y112395D03*
X101666Y167005D03*
D14*
X115128Y141888D02*
X124018Y141888D01*
X115128Y141888D02*
X115128Y144357D01*
X115130Y144455D01*
X115136Y144553D01*
X115146Y144651D01*
X115159Y144748D01*
X115177Y144845D01*
X115198Y144941D01*
X115223Y145035D01*
X115252Y145129D01*
X115284Y145222D01*
X115321Y145313D01*
X115360Y145403D01*
X115404Y145491D01*
X115451Y145577D01*
X115501Y145662D01*
X115554Y145744D01*
X115611Y145824D01*
X115671Y145902D01*
X115734Y145977D01*
X115800Y146050D01*
X115869Y146120D01*
X115940Y146187D01*
X116014Y146252D01*
X116091Y146313D01*
X116170Y146372D01*
X116251Y146427D01*
X116334Y146479D01*
X116420Y146527D01*
X116507Y146572D01*
X116596Y146614D01*
X116686Y146652D01*
X116778Y146686D01*
X116871Y146717D01*
X116966Y146744D01*
X117061Y146767D01*
X117158Y146787D01*
X117254Y146802D01*
X117352Y146814D01*
X117450Y146822D01*
X117548Y146826D01*
X117646Y146826D01*
X117744Y146822D01*
X117842Y146814D01*
X117940Y146802D01*
X118036Y146787D01*
X118133Y146767D01*
X118228Y146744D01*
X118323Y146717D01*
X118416Y146686D01*
X118508Y146652D01*
X118598Y146614D01*
X118687Y146572D01*
X118774Y146527D01*
X118860Y146479D01*
X118943Y146427D01*
X119024Y146372D01*
X119103Y146313D01*
X119180Y146252D01*
X119254Y146187D01*
X119325Y146120D01*
X119394Y146050D01*
X119460Y145977D01*
X119523Y145902D01*
X119583Y145824D01*
X119640Y145744D01*
X119693Y145662D01*
X119743Y145577D01*
X119790Y145491D01*
X119834Y145403D01*
X119873Y145313D01*
X119910Y145222D01*
X119942Y145129D01*
X119971Y145035D01*
X119996Y144941D01*
X120017Y144845D01*
X120035Y144748D01*
X120048Y144651D01*
X120058Y144553D01*
X120064Y144455D01*
X120066Y144357D01*
X120067Y144357D02*
X120067Y141888D01*
X120067Y144851D02*
X124018Y146827D01*
X117104Y150738D02*
X115128Y153207D01*
X124018Y153207D01*
X124018Y150738D02*
X124018Y155677D01*
X124018Y159653D02*
X124018Y162123D01*
X124016Y162221D01*
X124010Y162319D01*
X124000Y162417D01*
X123987Y162514D01*
X123969Y162611D01*
X123948Y162707D01*
X123923Y162801D01*
X123894Y162895D01*
X123862Y162988D01*
X123825Y163079D01*
X123786Y163169D01*
X123742Y163257D01*
X123695Y163343D01*
X123645Y163428D01*
X123592Y163510D01*
X123535Y163590D01*
X123475Y163668D01*
X123412Y163743D01*
X123346Y163816D01*
X123277Y163886D01*
X123206Y163953D01*
X123132Y164018D01*
X123055Y164079D01*
X122976Y164138D01*
X122895Y164193D01*
X122812Y164245D01*
X122726Y164293D01*
X122639Y164338D01*
X122550Y164380D01*
X122460Y164418D01*
X122368Y164452D01*
X122275Y164483D01*
X122180Y164510D01*
X122085Y164533D01*
X121988Y164553D01*
X121892Y164568D01*
X121794Y164580D01*
X121696Y164588D01*
X121598Y164592D01*
X121500Y164592D01*
X121402Y164588D01*
X121304Y164580D01*
X121206Y164568D01*
X121110Y164553D01*
X121013Y164533D01*
X120918Y164510D01*
X120823Y164483D01*
X120730Y164452D01*
X120638Y164418D01*
X120548Y164380D01*
X120459Y164338D01*
X120372Y164293D01*
X120286Y164245D01*
X120203Y164193D01*
X120122Y164138D01*
X120043Y164079D01*
X119966Y164018D01*
X119892Y163953D01*
X119821Y163886D01*
X119752Y163816D01*
X119686Y163743D01*
X119623Y163668D01*
X119563Y163590D01*
X119506Y163510D01*
X119453Y163428D01*
X119403Y163343D01*
X119356Y163257D01*
X119312Y163169D01*
X119273Y163079D01*
X119236Y162988D01*
X119204Y162895D01*
X119175Y162801D01*
X119150Y162707D01*
X119129Y162611D01*
X119111Y162514D01*
X119098Y162417D01*
X119088Y162319D01*
X119082Y162221D01*
X119080Y162123D01*
X115128Y162616D02*
X115128Y159653D01*
X115128Y162616D02*
X115130Y162703D01*
X115136Y162791D01*
X115145Y162878D01*
X115159Y162964D01*
X115176Y163050D01*
X115197Y163134D01*
X115222Y163218D01*
X115251Y163301D01*
X115283Y163382D01*
X115318Y163462D01*
X115357Y163540D01*
X115400Y163617D01*
X115446Y163691D01*
X115495Y163763D01*
X115547Y163833D01*
X115603Y163901D01*
X115661Y163966D01*
X115722Y164029D01*
X115786Y164088D01*
X115853Y164145D01*
X115921Y164199D01*
X115993Y164250D01*
X116066Y164297D01*
X116141Y164342D01*
X116219Y164383D01*
X116298Y164420D01*
X116378Y164454D01*
X116460Y164484D01*
X116543Y164511D01*
X116628Y164534D01*
X116713Y164553D01*
X116799Y164568D01*
X116886Y164580D01*
X116973Y164588D01*
X117060Y164592D01*
X117148Y164592D01*
X117235Y164588D01*
X117322Y164580D01*
X117409Y164568D01*
X117495Y164553D01*
X117580Y164534D01*
X117665Y164511D01*
X117748Y164484D01*
X117830Y164454D01*
X117910Y164420D01*
X117989Y164383D01*
X118067Y164342D01*
X118142Y164297D01*
X118215Y164250D01*
X118287Y164199D01*
X118355Y164145D01*
X118422Y164088D01*
X118486Y164029D01*
X118547Y163966D01*
X118605Y163901D01*
X118661Y163833D01*
X118713Y163763D01*
X118762Y163691D01*
X118808Y163617D01*
X118851Y163540D01*
X118890Y163462D01*
X118925Y163382D01*
X118957Y163301D01*
X118986Y163218D01*
X119011Y163134D01*
X119032Y163050D01*
X119049Y162964D01*
X119063Y162878D01*
X119072Y162791D01*
X119078Y162703D01*
X119080Y162616D01*
X119079Y162616D02*
X119079Y160641D01*
D10*
X134620Y165034D02*
X134720Y165032D01*
X134819Y165026D01*
X134919Y165016D01*
X135017Y165003D01*
X135116Y164985D01*
X135213Y164964D01*
X135309Y164939D01*
X135405Y164910D01*
X135499Y164877D01*
X135592Y164841D01*
X135683Y164801D01*
X135773Y164757D01*
X135861Y164710D01*
X135947Y164660D01*
X136031Y164606D01*
X136113Y164549D01*
X136192Y164489D01*
X136270Y164425D01*
X136344Y164359D01*
X136416Y164290D01*
X136485Y164218D01*
X136551Y164144D01*
X136615Y164066D01*
X136675Y163987D01*
X136732Y163905D01*
X136786Y163821D01*
X136836Y163735D01*
X136883Y163647D01*
X136927Y163557D01*
X136967Y163466D01*
X137003Y163373D01*
X137036Y163279D01*
X137065Y163183D01*
X137090Y163087D01*
X137111Y162990D01*
X137129Y162891D01*
X137142Y162793D01*
X137152Y162693D01*
X137158Y162594D01*
X137160Y162494D01*
X119380Y165034D02*
X119280Y165032D01*
X119181Y165026D01*
X119081Y165016D01*
X118983Y165003D01*
X118884Y164985D01*
X118787Y164964D01*
X118691Y164939D01*
X118595Y164910D01*
X118501Y164877D01*
X118408Y164841D01*
X118317Y164801D01*
X118227Y164757D01*
X118139Y164710D01*
X118053Y164660D01*
X117969Y164606D01*
X117887Y164549D01*
X117808Y164489D01*
X117730Y164425D01*
X117656Y164359D01*
X117584Y164290D01*
X117515Y164218D01*
X117449Y164144D01*
X117385Y164066D01*
X117325Y163987D01*
X117268Y163905D01*
X117214Y163821D01*
X117164Y163735D01*
X117117Y163647D01*
X117073Y163557D01*
X117033Y163466D01*
X116997Y163373D01*
X116964Y163279D01*
X116935Y163183D01*
X116910Y163087D01*
X116889Y162990D01*
X116871Y162891D01*
X116858Y162793D01*
X116848Y162693D01*
X116842Y162594D01*
X116840Y162494D01*
X116840Y116774D02*
X116842Y116674D01*
X116848Y116575D01*
X116858Y116475D01*
X116871Y116377D01*
X116889Y116278D01*
X116910Y116181D01*
X116935Y116085D01*
X116964Y115989D01*
X116997Y115895D01*
X117033Y115802D01*
X117073Y115711D01*
X117117Y115621D01*
X117164Y115533D01*
X117214Y115447D01*
X117268Y115363D01*
X117325Y115281D01*
X117385Y115202D01*
X117449Y115124D01*
X117515Y115050D01*
X117584Y114978D01*
X117656Y114909D01*
X117730Y114843D01*
X117808Y114779D01*
X117887Y114719D01*
X117969Y114662D01*
X118053Y114608D01*
X118139Y114558D01*
X118227Y114511D01*
X118317Y114467D01*
X118408Y114427D01*
X118501Y114391D01*
X118595Y114358D01*
X118691Y114329D01*
X118787Y114304D01*
X118884Y114283D01*
X118983Y114265D01*
X119081Y114252D01*
X119181Y114242D01*
X119280Y114236D01*
X119380Y114234D01*
X134620Y114234D02*
X134720Y114236D01*
X134819Y114242D01*
X134919Y114252D01*
X135017Y114265D01*
X135116Y114283D01*
X135213Y114304D01*
X135309Y114329D01*
X135405Y114358D01*
X135499Y114391D01*
X135592Y114427D01*
X135683Y114467D01*
X135773Y114511D01*
X135861Y114558D01*
X135947Y114608D01*
X136031Y114662D01*
X136113Y114719D01*
X136192Y114779D01*
X136270Y114843D01*
X136344Y114909D01*
X136416Y114978D01*
X136485Y115050D01*
X136551Y115124D01*
X136615Y115202D01*
X136675Y115281D01*
X136732Y115363D01*
X136786Y115447D01*
X136836Y115533D01*
X136883Y115621D01*
X136927Y115711D01*
X136967Y115802D01*
X137003Y115895D01*
X137036Y115989D01*
X137065Y116085D01*
X137090Y116181D01*
X137111Y116278D01*
X137129Y116377D01*
X137142Y116475D01*
X137152Y116575D01*
X137158Y116674D01*
X137160Y116774D01*
X134620Y165034D02*
X119380Y165034D01*
X137160Y162494D02*
X137160Y158684D01*
X135890Y157414D01*
X116840Y158684D02*
X116840Y162494D01*
X116840Y158684D02*
X118110Y157414D01*
X135890Y121854D02*
X137160Y120584D01*
X135890Y121854D02*
X135890Y157414D01*
X118110Y121854D02*
X116840Y120584D01*
X118110Y121854D02*
X118110Y157414D01*
X137160Y120584D02*
X137160Y116774D01*
X116840Y116774D02*
X116840Y120584D01*
X119380Y114234D02*
X134620Y114234D01*
D13*
X127000Y112329D03*
X127000Y166939D03*
D14*
X140462Y141822D02*
X149352Y141822D01*
X140462Y141822D02*
X140462Y144291D01*
X140464Y144389D01*
X140470Y144487D01*
X140480Y144585D01*
X140493Y144682D01*
X140511Y144779D01*
X140532Y144875D01*
X140557Y144969D01*
X140586Y145063D01*
X140618Y145156D01*
X140655Y145247D01*
X140694Y145337D01*
X140738Y145425D01*
X140785Y145511D01*
X140835Y145596D01*
X140888Y145678D01*
X140945Y145758D01*
X141005Y145836D01*
X141068Y145911D01*
X141134Y145984D01*
X141203Y146054D01*
X141274Y146121D01*
X141348Y146186D01*
X141425Y146247D01*
X141504Y146306D01*
X141585Y146361D01*
X141668Y146413D01*
X141754Y146461D01*
X141841Y146506D01*
X141930Y146548D01*
X142020Y146586D01*
X142112Y146620D01*
X142205Y146651D01*
X142300Y146678D01*
X142395Y146701D01*
X142492Y146721D01*
X142588Y146736D01*
X142686Y146748D01*
X142784Y146756D01*
X142882Y146760D01*
X142980Y146760D01*
X143078Y146756D01*
X143176Y146748D01*
X143274Y146736D01*
X143370Y146721D01*
X143467Y146701D01*
X143562Y146678D01*
X143657Y146651D01*
X143750Y146620D01*
X143842Y146586D01*
X143932Y146548D01*
X144021Y146506D01*
X144108Y146461D01*
X144194Y146413D01*
X144277Y146361D01*
X144358Y146306D01*
X144437Y146247D01*
X144514Y146186D01*
X144588Y146121D01*
X144659Y146054D01*
X144728Y145984D01*
X144794Y145911D01*
X144857Y145836D01*
X144917Y145758D01*
X144974Y145678D01*
X145027Y145596D01*
X145077Y145511D01*
X145124Y145425D01*
X145168Y145337D01*
X145207Y145247D01*
X145244Y145156D01*
X145276Y145063D01*
X145305Y144969D01*
X145330Y144875D01*
X145351Y144779D01*
X145369Y144682D01*
X145382Y144585D01*
X145392Y144487D01*
X145398Y144389D01*
X145400Y144291D01*
X145401Y144291D02*
X145401Y141822D01*
X145401Y144785D02*
X149352Y146761D01*
X142438Y150672D02*
X140462Y153141D01*
X149352Y153141D01*
X149352Y150672D02*
X149352Y155611D01*
X147376Y159587D02*
X140462Y161563D01*
X147376Y159587D02*
X147376Y164526D01*
X145401Y163044D02*
X149352Y163044D01*
D15*
X622300Y139700D02*
X622300Y317500D01*
X190500Y317500D01*
X190500Y139700D01*
X622300Y139700D01*
D16*
X210019Y228981D02*
X200781Y228981D01*
X205913Y232060D01*
X200781Y235140D01*
X210019Y235140D01*
X207453Y239394D02*
X203347Y239394D01*
X203248Y239396D01*
X203148Y239402D01*
X203049Y239411D01*
X202951Y239425D01*
X202853Y239442D01*
X202755Y239463D01*
X202659Y239488D01*
X202564Y239517D01*
X202469Y239549D01*
X202377Y239585D01*
X202285Y239624D01*
X202195Y239667D01*
X202107Y239713D01*
X202021Y239763D01*
X201937Y239816D01*
X201855Y239872D01*
X201775Y239932D01*
X201698Y239994D01*
X201623Y240060D01*
X201550Y240128D01*
X201481Y240199D01*
X201414Y240273D01*
X201350Y240349D01*
X201289Y240428D01*
X201231Y240509D01*
X201176Y240592D01*
X201125Y240677D01*
X201077Y240764D01*
X201032Y240853D01*
X200991Y240944D01*
X200953Y241036D01*
X200919Y241129D01*
X200889Y241224D01*
X200862Y241320D01*
X200839Y241417D01*
X200820Y241514D01*
X200805Y241613D01*
X200793Y241712D01*
X200785Y241811D01*
X200781Y241910D01*
X200781Y242010D01*
X200785Y242109D01*
X200793Y242208D01*
X200805Y242307D01*
X200820Y242406D01*
X200839Y242503D01*
X200862Y242600D01*
X200889Y242696D01*
X200919Y242791D01*
X200953Y242884D01*
X200991Y242976D01*
X201032Y243067D01*
X201077Y243156D01*
X201125Y243243D01*
X201176Y243328D01*
X201231Y243411D01*
X201289Y243492D01*
X201350Y243571D01*
X201414Y243647D01*
X201481Y243721D01*
X201550Y243792D01*
X201623Y243860D01*
X201698Y243926D01*
X201775Y243988D01*
X201855Y244048D01*
X201937Y244104D01*
X202021Y244157D01*
X202107Y244207D01*
X202195Y244253D01*
X202285Y244296D01*
X202377Y244335D01*
X202469Y244371D01*
X202564Y244403D01*
X202659Y244432D01*
X202755Y244457D01*
X202853Y244478D01*
X202951Y244495D01*
X203049Y244509D01*
X203148Y244518D01*
X203248Y244524D01*
X203347Y244526D01*
X207453Y244526D01*
X207552Y244524D01*
X207652Y244518D01*
X207751Y244509D01*
X207849Y244495D01*
X207947Y244478D01*
X208045Y244457D01*
X208141Y244432D01*
X208236Y244403D01*
X208331Y244371D01*
X208423Y244335D01*
X208515Y244296D01*
X208605Y244253D01*
X208693Y244207D01*
X208779Y244157D01*
X208863Y244104D01*
X208945Y244048D01*
X209025Y243988D01*
X209102Y243926D01*
X209177Y243860D01*
X209250Y243792D01*
X209319Y243721D01*
X209386Y243647D01*
X209450Y243571D01*
X209511Y243492D01*
X209569Y243411D01*
X209624Y243328D01*
X209675Y243243D01*
X209723Y243156D01*
X209768Y243067D01*
X209809Y242976D01*
X209847Y242884D01*
X209881Y242791D01*
X209911Y242696D01*
X209938Y242600D01*
X209961Y242503D01*
X209980Y242406D01*
X209995Y242307D01*
X210007Y242208D01*
X210015Y242109D01*
X210019Y242010D01*
X210019Y241910D01*
X210015Y241811D01*
X210007Y241712D01*
X209995Y241613D01*
X209980Y241514D01*
X209961Y241417D01*
X209938Y241320D01*
X209911Y241224D01*
X209881Y241129D01*
X209847Y241036D01*
X209809Y240944D01*
X209768Y240853D01*
X209723Y240764D01*
X209675Y240677D01*
X209624Y240592D01*
X209569Y240509D01*
X209511Y240428D01*
X209450Y240349D01*
X209386Y240273D01*
X209319Y240199D01*
X209250Y240128D01*
X209177Y240060D01*
X209102Y239994D01*
X209025Y239932D01*
X208945Y239872D01*
X208863Y239816D01*
X208779Y239763D01*
X208693Y239713D01*
X208605Y239667D01*
X208515Y239624D01*
X208423Y239585D01*
X208331Y239549D01*
X208236Y239517D01*
X208141Y239488D01*
X208045Y239463D01*
X207947Y239442D01*
X207849Y239425D01*
X207751Y239411D01*
X207652Y239402D01*
X207552Y239396D01*
X207453Y239394D01*
X210019Y248694D02*
X200781Y248694D01*
X200781Y251260D01*
X200783Y251358D01*
X200789Y251456D01*
X200798Y251554D01*
X200811Y251652D01*
X200828Y251749D01*
X200848Y251845D01*
X200873Y251940D01*
X200901Y252034D01*
X200932Y252127D01*
X200967Y252219D01*
X201006Y252310D01*
X201047Y252399D01*
X201093Y252486D01*
X201141Y252571D01*
X201193Y252655D01*
X201248Y252736D01*
X201306Y252816D01*
X201367Y252893D01*
X201431Y252967D01*
X201498Y253039D01*
X201568Y253109D01*
X201640Y253176D01*
X201714Y253240D01*
X201791Y253301D01*
X201871Y253359D01*
X201952Y253414D01*
X202036Y253466D01*
X202121Y253514D01*
X202208Y253560D01*
X202297Y253601D01*
X202388Y253640D01*
X202480Y253675D01*
X202573Y253706D01*
X202667Y253734D01*
X202762Y253759D01*
X202858Y253779D01*
X202955Y253796D01*
X203053Y253809D01*
X203151Y253818D01*
X203249Y253824D01*
X203347Y253826D01*
X207453Y253826D01*
X207551Y253824D01*
X207649Y253818D01*
X207747Y253809D01*
X207845Y253796D01*
X207942Y253779D01*
X208038Y253759D01*
X208133Y253734D01*
X208227Y253706D01*
X208320Y253675D01*
X208412Y253640D01*
X208503Y253601D01*
X208592Y253560D01*
X208679Y253514D01*
X208764Y253466D01*
X208848Y253414D01*
X208929Y253359D01*
X209009Y253301D01*
X209086Y253240D01*
X209160Y253176D01*
X209232Y253109D01*
X209302Y253039D01*
X209369Y252967D01*
X209433Y252893D01*
X209494Y252816D01*
X209552Y252736D01*
X209607Y252655D01*
X209659Y252571D01*
X209707Y252486D01*
X209753Y252399D01*
X209794Y252310D01*
X209833Y252219D01*
X209868Y252127D01*
X209899Y252034D01*
X209927Y251940D01*
X209952Y251845D01*
X209972Y251749D01*
X209989Y251652D01*
X210002Y251554D01*
X210011Y251456D01*
X210017Y251358D01*
X210019Y251260D01*
X210019Y248694D01*
X207453Y258294D02*
X200781Y258294D01*
X207453Y258294D02*
X207552Y258296D01*
X207652Y258302D01*
X207751Y258311D01*
X207849Y258325D01*
X207947Y258342D01*
X208045Y258363D01*
X208141Y258388D01*
X208236Y258417D01*
X208331Y258449D01*
X208423Y258485D01*
X208515Y258524D01*
X208605Y258567D01*
X208693Y258613D01*
X208779Y258663D01*
X208863Y258716D01*
X208945Y258772D01*
X209025Y258832D01*
X209102Y258894D01*
X209177Y258960D01*
X209250Y259028D01*
X209319Y259099D01*
X209386Y259173D01*
X209450Y259249D01*
X209511Y259328D01*
X209569Y259409D01*
X209624Y259492D01*
X209675Y259577D01*
X209723Y259664D01*
X209768Y259753D01*
X209809Y259844D01*
X209847Y259936D01*
X209881Y260029D01*
X209911Y260124D01*
X209938Y260220D01*
X209961Y260317D01*
X209980Y260414D01*
X209995Y260513D01*
X210007Y260612D01*
X210015Y260711D01*
X210019Y260810D01*
X210019Y260910D01*
X210015Y261009D01*
X210007Y261108D01*
X209995Y261207D01*
X209980Y261306D01*
X209961Y261403D01*
X209938Y261500D01*
X209911Y261596D01*
X209881Y261691D01*
X209847Y261784D01*
X209809Y261876D01*
X209768Y261967D01*
X209723Y262056D01*
X209675Y262143D01*
X209624Y262228D01*
X209569Y262311D01*
X209511Y262392D01*
X209450Y262471D01*
X209386Y262547D01*
X209319Y262621D01*
X209250Y262692D01*
X209177Y262760D01*
X209102Y262826D01*
X209025Y262888D01*
X208945Y262948D01*
X208863Y263004D01*
X208779Y263057D01*
X208693Y263107D01*
X208605Y263153D01*
X208515Y263196D01*
X208423Y263235D01*
X208331Y263271D01*
X208236Y263303D01*
X208141Y263332D01*
X208045Y263357D01*
X207947Y263378D01*
X207849Y263395D01*
X207751Y263409D01*
X207652Y263418D01*
X207552Y263424D01*
X207453Y263426D01*
X200781Y263426D01*
X200781Y267911D02*
X210019Y267911D01*
X210019Y272017D01*
X202834Y275394D02*
X200781Y277960D01*
X210019Y277960D01*
X210019Y275394D02*
X210019Y280526D01*
D10*
X596900Y209550D02*
X596900Y196850D01*
X590550Y190500D01*
X577850Y190500D01*
X571500Y196850D01*
X596900Y234950D02*
X590550Y241300D01*
X596900Y234950D02*
X596900Y222250D01*
X590550Y215900D01*
X577850Y215900D01*
X571500Y222250D01*
X571500Y234950D01*
X577850Y241300D01*
X590550Y215900D02*
X596900Y209550D01*
X577850Y215900D02*
X571500Y209550D01*
X571500Y196850D01*
X596900Y273050D02*
X596900Y285750D01*
X596900Y273050D02*
X590550Y266700D01*
X577850Y266700D01*
X571500Y273050D01*
X590550Y266700D02*
X596900Y260350D01*
X596900Y247650D01*
X590550Y241300D01*
X577850Y241300D01*
X571500Y247650D01*
X571500Y260350D01*
X577850Y266700D01*
X577850Y292100D02*
X590550Y292100D01*
X596900Y285750D01*
X577850Y292100D02*
X571500Y285750D01*
X571500Y273050D01*
X596900Y184150D02*
X596900Y171450D01*
X590550Y165100D01*
X577850Y165100D01*
X571500Y171450D01*
X590550Y190500D02*
X596900Y184150D01*
X577850Y190500D02*
X571500Y184150D01*
X571500Y171450D01*
D11*
X603123Y269038D02*
X612013Y269038D01*
X612113Y269036D01*
X612212Y269030D01*
X612312Y269020D01*
X612410Y269007D01*
X612509Y268989D01*
X612606Y268968D01*
X612702Y268943D01*
X612798Y268914D01*
X612892Y268881D01*
X612985Y268845D01*
X613076Y268805D01*
X613166Y268761D01*
X613254Y268714D01*
X613340Y268664D01*
X613424Y268610D01*
X613506Y268553D01*
X613585Y268493D01*
X613663Y268429D01*
X613737Y268363D01*
X613809Y268294D01*
X613878Y268222D01*
X613944Y268148D01*
X614008Y268070D01*
X614068Y267991D01*
X614125Y267909D01*
X614179Y267825D01*
X614229Y267739D01*
X614276Y267651D01*
X614320Y267561D01*
X614360Y267470D01*
X614396Y267377D01*
X614429Y267283D01*
X614458Y267187D01*
X614483Y267091D01*
X614504Y266994D01*
X614522Y266895D01*
X614535Y266797D01*
X614545Y266697D01*
X614551Y266598D01*
X614553Y266498D01*
X614553Y265228D01*
X614553Y275019D02*
X603123Y275019D01*
X603123Y278194D01*
X603125Y278305D01*
X603131Y278415D01*
X603140Y278526D01*
X603154Y278636D01*
X603171Y278745D01*
X603192Y278854D01*
X603217Y278962D01*
X603246Y279069D01*
X603278Y279175D01*
X603314Y279280D01*
X603354Y279383D01*
X603397Y279485D01*
X603444Y279586D01*
X603495Y279685D01*
X603548Y279782D01*
X603605Y279876D01*
X603666Y279969D01*
X603729Y280060D01*
X603796Y280149D01*
X603866Y280235D01*
X603939Y280318D01*
X604014Y280400D01*
X604092Y280478D01*
X604174Y280553D01*
X604257Y280626D01*
X604343Y280696D01*
X604432Y280763D01*
X604523Y280826D01*
X604616Y280887D01*
X604711Y280944D01*
X604807Y280997D01*
X604906Y281048D01*
X605007Y281095D01*
X605109Y281138D01*
X605212Y281178D01*
X605317Y281214D01*
X605423Y281246D01*
X605530Y281275D01*
X605638Y281300D01*
X605747Y281321D01*
X605856Y281338D01*
X605966Y281352D01*
X606077Y281361D01*
X606187Y281367D01*
X606298Y281369D01*
X606409Y281367D01*
X606519Y281361D01*
X606630Y281352D01*
X606740Y281338D01*
X606849Y281321D01*
X606958Y281300D01*
X607066Y281275D01*
X607173Y281246D01*
X607279Y281214D01*
X607384Y281178D01*
X607487Y281138D01*
X607589Y281095D01*
X607690Y281048D01*
X607789Y280997D01*
X607886Y280944D01*
X607980Y280887D01*
X608073Y280826D01*
X608164Y280763D01*
X608253Y280696D01*
X608339Y280626D01*
X608422Y280553D01*
X608504Y280478D01*
X608582Y280400D01*
X608657Y280318D01*
X608730Y280235D01*
X608800Y280149D01*
X608867Y280060D01*
X608930Y279969D01*
X608991Y279876D01*
X609048Y279782D01*
X609101Y279685D01*
X609152Y279586D01*
X609199Y279485D01*
X609242Y279383D01*
X609282Y279280D01*
X609318Y279175D01*
X609350Y279069D01*
X609379Y278962D01*
X609404Y278854D01*
X609425Y278745D01*
X609442Y278636D01*
X609456Y278526D01*
X609465Y278415D01*
X609471Y278305D01*
X609473Y278194D01*
X609473Y275019D01*
X603123Y289370D02*
X603125Y289474D01*
X603131Y289579D01*
X603140Y289683D01*
X603153Y289786D01*
X603171Y289889D01*
X603191Y289991D01*
X603216Y290093D01*
X603244Y290193D01*
X603276Y290293D01*
X603312Y290391D01*
X603351Y290488D01*
X603393Y290583D01*
X603439Y290677D01*
X603489Y290769D01*
X603541Y290859D01*
X603597Y290947D01*
X603657Y291033D01*
X603719Y291117D01*
X603784Y291198D01*
X603852Y291277D01*
X603924Y291354D01*
X603997Y291427D01*
X604074Y291499D01*
X604153Y291567D01*
X604234Y291632D01*
X604318Y291694D01*
X604404Y291754D01*
X604492Y291810D01*
X604582Y291862D01*
X604674Y291912D01*
X604768Y291958D01*
X604863Y292000D01*
X604960Y292039D01*
X605058Y292075D01*
X605158Y292107D01*
X605258Y292135D01*
X605360Y292160D01*
X605462Y292180D01*
X605565Y292198D01*
X605668Y292211D01*
X605772Y292220D01*
X605877Y292226D01*
X605981Y292228D01*
X603123Y289370D02*
X603125Y289252D01*
X603131Y289133D01*
X603140Y289015D01*
X603153Y288898D01*
X603171Y288781D01*
X603191Y288664D01*
X603216Y288548D01*
X603244Y288433D01*
X603277Y288320D01*
X603312Y288207D01*
X603352Y288095D01*
X603394Y287985D01*
X603441Y287876D01*
X603491Y287768D01*
X603544Y287663D01*
X603601Y287559D01*
X603661Y287457D01*
X603724Y287357D01*
X603791Y287259D01*
X603860Y287163D01*
X603933Y287070D01*
X604009Y286979D01*
X604087Y286890D01*
X604169Y286804D01*
X604253Y286721D01*
X604339Y286640D01*
X604429Y286563D01*
X604520Y286488D01*
X604614Y286416D01*
X604711Y286347D01*
X604809Y286282D01*
X604910Y286219D01*
X605013Y286160D01*
X605117Y286104D01*
X605223Y286052D01*
X605331Y286003D01*
X605440Y285958D01*
X605551Y285916D01*
X605663Y285878D01*
X608203Y291275D02*
X608128Y291351D01*
X608049Y291426D01*
X607968Y291497D01*
X607884Y291566D01*
X607798Y291631D01*
X607710Y291693D01*
X607620Y291753D01*
X607528Y291809D01*
X607433Y291862D01*
X607337Y291911D01*
X607239Y291957D01*
X607140Y292000D01*
X607039Y292039D01*
X606937Y292074D01*
X606834Y292106D01*
X606730Y292134D01*
X606625Y292159D01*
X606518Y292180D01*
X606412Y292197D01*
X606305Y292210D01*
X606197Y292219D01*
X606089Y292225D01*
X605981Y292227D01*
X608203Y291275D02*
X614553Y285877D01*
X614553Y292227D01*
D10*
X596900Y400050D02*
X596900Y412750D01*
X596900Y400050D02*
X590550Y393700D01*
X577850Y393700D01*
X571500Y400050D01*
X590550Y393700D02*
X596900Y387350D01*
X596900Y374650D01*
X590550Y368300D01*
X577850Y368300D01*
X571500Y374650D01*
X571500Y387350D01*
X577850Y393700D01*
X577850Y419100D02*
X590550Y419100D01*
X596900Y412750D01*
X577850Y419100D02*
X571500Y412750D01*
X571500Y400050D01*
X590550Y368300D02*
X596900Y361950D01*
X596900Y349250D01*
X590550Y342900D01*
X577850Y342900D01*
X571500Y349250D01*
X571500Y361950D01*
X577850Y368300D01*
D11*
X603123Y396038D02*
X612013Y396038D01*
X612113Y396036D01*
X612212Y396030D01*
X612312Y396020D01*
X612410Y396007D01*
X612509Y395989D01*
X612606Y395968D01*
X612702Y395943D01*
X612798Y395914D01*
X612892Y395881D01*
X612985Y395845D01*
X613076Y395805D01*
X613166Y395761D01*
X613254Y395714D01*
X613340Y395664D01*
X613424Y395610D01*
X613506Y395553D01*
X613585Y395493D01*
X613663Y395429D01*
X613737Y395363D01*
X613809Y395294D01*
X613878Y395222D01*
X613944Y395148D01*
X614008Y395070D01*
X614068Y394991D01*
X614125Y394909D01*
X614179Y394825D01*
X614229Y394739D01*
X614276Y394651D01*
X614320Y394561D01*
X614360Y394470D01*
X614396Y394377D01*
X614429Y394283D01*
X614458Y394187D01*
X614483Y394091D01*
X614504Y393994D01*
X614522Y393895D01*
X614535Y393797D01*
X614545Y393697D01*
X614551Y393598D01*
X614553Y393498D01*
X614553Y392228D01*
X614553Y402019D02*
X603123Y402019D01*
X603123Y405194D01*
X603125Y405305D01*
X603131Y405415D01*
X603140Y405526D01*
X603154Y405636D01*
X603171Y405745D01*
X603192Y405854D01*
X603217Y405962D01*
X603246Y406069D01*
X603278Y406175D01*
X603314Y406280D01*
X603354Y406383D01*
X603397Y406485D01*
X603444Y406586D01*
X603495Y406685D01*
X603548Y406782D01*
X603605Y406876D01*
X603666Y406969D01*
X603729Y407060D01*
X603796Y407149D01*
X603866Y407235D01*
X603939Y407318D01*
X604014Y407400D01*
X604092Y407478D01*
X604174Y407553D01*
X604257Y407626D01*
X604343Y407696D01*
X604432Y407763D01*
X604523Y407826D01*
X604616Y407887D01*
X604711Y407944D01*
X604807Y407997D01*
X604906Y408048D01*
X605007Y408095D01*
X605109Y408138D01*
X605212Y408178D01*
X605317Y408214D01*
X605423Y408246D01*
X605530Y408275D01*
X605638Y408300D01*
X605747Y408321D01*
X605856Y408338D01*
X605966Y408352D01*
X606077Y408361D01*
X606187Y408367D01*
X606298Y408369D01*
X606409Y408367D01*
X606519Y408361D01*
X606630Y408352D01*
X606740Y408338D01*
X606849Y408321D01*
X606958Y408300D01*
X607066Y408275D01*
X607173Y408246D01*
X607279Y408214D01*
X607384Y408178D01*
X607487Y408138D01*
X607589Y408095D01*
X607690Y408048D01*
X607789Y407997D01*
X607886Y407944D01*
X607980Y407887D01*
X608073Y407826D01*
X608164Y407763D01*
X608253Y407696D01*
X608339Y407626D01*
X608422Y407553D01*
X608504Y407478D01*
X608582Y407400D01*
X608657Y407318D01*
X608730Y407235D01*
X608800Y407149D01*
X608867Y407060D01*
X608930Y406969D01*
X608991Y406876D01*
X609048Y406782D01*
X609101Y406685D01*
X609152Y406586D01*
X609199Y406485D01*
X609242Y406383D01*
X609282Y406280D01*
X609318Y406175D01*
X609350Y406069D01*
X609379Y405962D01*
X609404Y405854D01*
X609425Y405745D01*
X609442Y405636D01*
X609456Y405526D01*
X609465Y405415D01*
X609471Y405305D01*
X609473Y405194D01*
X609473Y402019D01*
X605663Y412877D02*
X603123Y416052D01*
X614553Y416052D01*
X614553Y412877D02*
X614553Y419227D01*
M02*
