0
SECTION
2
HEADER
9
$INSUNITS
70
4
9
$ACADVER
1
AC1014
9
$HANDSEED
5
FFFF
0
ENDSEC
0
SECTION
2
TABLES
0
TABLE
2
VPORT
5
8
100
AcDbSymbolTable
0
ENDTAB
0
TABLE
2
LTYPE
5
5
100
AcDbSymbolTable
0
LTYPE
5
14
100
AcDbSymbolTableRecord
100
AcDbLinetypeTableRecord
2
BYBLOCK
70
0
0
LTYPE
5
15
100
AcDbSymbolTableRecord
100
AcDbLinetypeTableRecord
2
BYLAYER
70
0
0
ENDTAB
0
TABLE
2
LAYER
5
2
100
AcDbSymbolTable
70
2
0
LAYER
5
50
100
AcDbSymbolTableRecord
100
AcDbLayerTableRecord
2
0
70
0
6
CONTINUOUS
0
ENDTAB
0
TABLE
2
STYLE
5
3
100
AcDbSymbolTable
70
1
0
STYLE
5
11
100
AcDbSymbolTableRecord
100
AcDbTextStyleTableRecord
2
STANDARD
70
0
0
ENDTAB
0
TABLE
2
VIEW
5
6
100
AcDbSymbolTable
70
0
0
ENDTAB
0
TABLE
2
UCS
5
7
100
AcDbSymbolTable
70
0
0
ENDTAB
0
TABLE
2
APPID
5
9
100
AcDbSymbolTable
70
2
0
APPID
5
12
100
AcDbSymbolTableRecord
100
AcDbRegAppTableRecord
2
ACAD
70
0
0
ENDTAB
0
TABLE
2
DIMSTYLE
5
A
100
AcDbSymbolTable
70
1
0
ENDTAB
0
TABLE
2
BLOCK_RECORD
5
1
100
AcDbSymbolTable
70
1
0
BLOCK_RECORD
5
1F
100
AcDbSymbolTableRecord
100
AcDbBlockTableRecord
2
*MODEL_SPACE
0
BLOCK_RECORD
5
1B
100
AcDbSymbolTableRecord
100
AcDbBlockTableRecord
2
*PAPER_SPACE
0
ENDTAB
0
ENDSEC
0
SECTION
2
BLOCKS
0
BLOCK
5
20
100
AcDbEntity
100
AcDbBlockBegin
2
*MODEL_SPACE
0
ENDBLK
5
21
100
AcDbEntity
100
AcDbBlockEnd
0
BLOCK
5
1C
100
AcDbEntity
100
AcDbBlockBegin
2
*PAPER_SPACE
0
ENDBLK
5
1D
100
AcDbEntity
100
AcDbBlockEnd
0
ENDSEC
0
SECTION
2
ENTITIES
0
LINE
5
100
100
AcDbEntity
8
0
100
AcDbLine
10
148.37056997560285
20
-120.76000000000001
30
0
11
143.37056997560285
21
-120.76000000000001
31
0
0
LINE
5
101
100
AcDbEntity
8
0
100
AcDbLine
10
143.37056997560285
20
-120.76000000000001
30
0
11
143.37056997560285
21
-118.76000000000002
31
0
0
LINE
5
102
100
AcDbEntity
8
0
100
AcDbLine
10
143.37056997560285
20
-118.76000000000002
30
0
11
148.37056997560285
21
-118.76000000000002
31
0
0
LINE
5
103
100
AcDbEntity
8
0
100
AcDbLine
10
148.37056997560285
20
-118.76000000000002
30
0
11
148.37056997560285
21
-120.76000000000001
31
0
0
LINE
5
104
100
AcDbEntity
8
0
100
AcDbLine
10
89.5
20
-80.153926935702088
30
0
11
87.5
21
-80.153926935702088
31
0
0
LINE
5
105
100
AcDbEntity
8
0
100
AcDbLine
10
87.5
20
-80.153926935702088
30
0
11
87.5
21
-75.153926935702103
31
0
0
LINE
5
106
100
AcDbEntity
8
0
100
AcDbLine
10
87.5
20
-75.153926935702103
30
0
11
89.5
21
-75.153926935702103
31
0
0
LINE
5
107
100
AcDbEntity
8
0
100
AcDbLine
10
89.5
20
-75.153926935702103
30
0
11
89.5
21
-80.153926935702088
31
0
0
LINE
5
108
100
AcDbEntity
8
0
100
AcDbLine
10
89.5
20
-108.12121344865872
30
0
11
89.5
21
-113.12121344865872
31
0
0
LINE
5
109
100
AcDbEntity
8
0
100
AcDbLine
10
89.5
20
-113.12121344865872
30
0
11
87.5
21
-113.12121344865872
31
0
0
LINE
5
110
100
AcDbEntity
8
0
100
AcDbLine
10
87.5
20
-113.12121344865872
30
0
11
87.5
21
-108.12121344865872
31
0
0
LINE
5
111
100
AcDbEntity
8
0
100
AcDbLine
10
87.5
20
-108.12121344865872
30
0
11
89.5
21
-108.12121344865872
31
0
0
LWPOLYLINE
5
112
100
AcDbEntity
8
0
100
AcDbPolyline
90
4
70
1
43
0.0
10
154.00212966852749
20
-108.12121344865872
10
156.00212966852749
20
-108.12121344865872
10
156.00212966852749
20
-113.12121344865872
10
154.00212966852749
20
-113.12121344865872
0
LINE
5
113
100
AcDbEntity
8
0
100
AcDbLine
10
95
20
-67.5
30
0
11
100
21
-67.5
31
0
0
LINE
5
114
100
AcDbEntity
8
0
100
AcDbLine
10
100
20
-67.5
30
0
11
100
21
-69.5
31
0
0
LINE
5
115
100
AcDbEntity
8
0
100
AcDbLine
10
100
20
-69.5
30
0
11
95
21
-69.5
31
0
0
LINE
5
116
100
AcDbEntity
8
0
100
AcDbLine
10
95
20
-69.5
30
0
11
95
21
-67.5
31
0
0
LINE
5
117
100
AcDbEntity
8
0
100
AcDbLine
10
95
20
-120.76000000000001
30
0
11
95
21
-118.76000000000002
31
0
0
LINE
5
118
100
AcDbEntity
8
0
100
AcDbLine
10
95
20
-118.76000000000002
30
0
11
100
21
-118.76000000000002
31
0
0
LINE
5
119
100
AcDbEntity
8
0
100
AcDbLine
10
100
20
-118.76000000000002
30
0
11
100
21
-120.76000000000001
31
0
0
LINE
5
120
100
AcDbEntity
8
0
100
AcDbLine
10
100
20
-120.76000000000001
30
0
11
95
21
-120.76000000000001
31
0
0
LWPOLYLINE
5
121
100
AcDbEntity
8
0
100
AcDbPolyline
90
8
70
1
43
0.0
10
156.37056997560285
20
-123.12121344865871
42
0.41409218622963395
10
158.37056980385736
20
-121.1220422923505
10
158.39293502827218
20
-67.154755779393881
42
0.41433494893467016
10
156.39293520001763
20
-65.153926935702103
10
87
20
-65.153926935702103
42
0.41421356237309509
10
85
20
-67.153926935702103
10
85
20
-121.12121344865869
42
0.41421356237310281
10
87.000000000000014
20
-123.12121344865869
0
LINE
5
122
100
AcDbEntity
8
0
100
AcDbLine
10
148.39293520001763
20
-69.5
30
0
11
143.39293520001763
21
-69.5
31
0
0
LINE
5
123
100
AcDbEntity
8
0
100
AcDbLine
10
143.39293520001763
20
-69.5
30
0
11
143.39293520001763
21
-67.5
31
0
0
LINE
5
124
100
AcDbEntity
8
0
100
AcDbLine
10
143.39293520001763
20
-67.5
30
0
11
148.39293520001763
21
-67.5
31
0
0
LINE
5
125
100
AcDbEntity
8
0
100
AcDbLine
10
148.39293520001763
20
-67.5
30
0
11
148.39293520001763
21
-69.5
31
0
0
LWPOLYLINE
5
126
100
AcDbEntity
8
0
100
AcDbPolyline
90
4
70
1
43
0.0
10
154.01000004293638
20
-75.153926935702103
10
156.01000004293638
20
-75.153926935702103
10
156.01000004293638
20
-80.153926935702088
10
154.01000004293638
20
-80.153926935702088
0
CIRCLE
5
127
100
AcDbEntity
8
0
100
AcDbCircle
10
150.96000000000001
20
-115.72
30
0
40
0.99999999999999645
210
0
220
-0
230
1
0
CIRCLE
5
128
100
AcDbEntity
8
0
100
AcDbCircle
10
150.96000000000001
20
-72.539999999999992
30
0
40
0.99999999999999645
210
0
220
-0
230
1
0
CIRCLE
5
129
100
AcDbEntity
8
0
100
AcDbCircle
10
92.539999999999992
20
-115.72
30
0
40
0.99999999999999978
210
0
220
-0
230
1
0
CIRCLE
5
130
100
AcDbEntity
8
0
100
AcDbCircle
10
92.539999999999992
20
-72.539999999999992
30
0
40
0.99999999999999978
210
0
220
-0
230
1
0
ENDSEC
0
SECTION
2
OBJECTS
0
DICTIONARY
5
C
100
AcDbDictionary
3
ACAD_GROUP
350
D
3
ACAD_MLINESTYLE
350
17
0
DICTIONARY
5
D
100
AcDbDictionary
0
DICTIONARY
5
1A
330
C
100
AcDbDictionary
0
DICTIONARY
5
17
100
AcDbDictionary
0
ENDSEC
0
EOF
