0
SECTION
2
HEADER
9
$INSUNITS
70
4
9
$ACADVER
1
AC1014
9
$HANDSEED
5
FFFF
0
ENDSEC
0
SECTION
2
TABLES
0
TABLE
2
VPORT
5
8
100
AcDbSymbolTable
0
ENDTAB
0
TABLE
2
LTYPE
5
5
100
AcDbSymbolTable
0
LTYPE
5
14
100
AcDbSymbolTableRecord
100
AcDbLinetypeTableRecord
2
BYBLOCK
70
0
0
LTYPE
5
15
100
AcDbSymbolTableRecord
100
AcDbLinetypeTableRecord
2
BYLAYER
70
0
0
ENDTAB
0
TABLE
2
LAYER
5
2
100
AcDbSymbolTable
70
2
0
LAYER
5
50
100
AcDbSymbolTableRecord
100
AcDbLayerTableRecord
2
0
70
0
6
CONTINUOUS
0
ENDTAB
0
TABLE
2
STYLE
5
3
100
AcDbSymbolTable
70
1
0
STYLE
5
11
100
AcDbSymbolTableRecord
100
AcDbTextStyleTableRecord
2
STANDARD
70
0
0
ENDTAB
0
TABLE
2
VIEW
5
6
100
AcDbSymbolTable
70
0
0
ENDTAB
0
TABLE
2
UCS
5
7
100
AcDbSymbolTable
70
0
0
ENDTAB
0
TABLE
2
APPID
5
9
100
AcDbSymbolTable
70
2
0
APPID
5
12
100
AcDbSymbolTableRecord
100
AcDbRegAppTableRecord
2
ACAD
70
0
0
ENDTAB
0
TABLE
2
DIMSTYLE
5
A
100
AcDbSymbolTable
70
1
0
ENDTAB
0
TABLE
2
BLOCK_RECORD
5
1
100
AcDbSymbolTable
70
1
0
BLOCK_RECORD
5
1F
100
AcDbSymbolTableRecord
100
AcDbBlockTableRecord
2
*MODEL_SPACE
0
BLOCK_RECORD
5
1B
100
AcDbSymbolTableRecord
100
AcDbBlockTableRecord
2
*PAPER_SPACE
0
ENDTAB
0
ENDSEC
0
SECTION
2
BLOCKS
0
BLOCK
5
20
100
AcDbEntity
100
AcDbBlockBegin
2
*MODEL_SPACE
0
ENDBLK
5
21
100
AcDbEntity
100
AcDbBlockEnd
0
BLOCK
5
1C
100
AcDbEntity
100
AcDbBlockBegin
2
*PAPER_SPACE
0
ENDBLK
5
1D
100
AcDbEntity
100
AcDbBlockEnd
0
ENDSEC
0
SECTION
2
ENTITIES
0
LWPOLYLINE
5
100
100
AcDbEntity
8
0
100
AcDbPolyline
90
4
70
1
43
0.0
10
-156.01000004293638
20
-91.637570192158719
10
-154.01000004293638
20
-91.637570192158719
10
-154.01000004293638
20
-96.637570192158719
10
-156.01000004293638
20
-96.637570192158719
0
LWPOLYLINE
5
101
100
AcDbEntity
8
0
100
AcDbPolyline
90
4
70
1
43
0.0
10
-124.19646759999999
20
-118.76000000000002
10
-119.19646759999999
20
-118.76000000000002
10
-119.19646759999999
20
-120.76000000000001
10
-124.19646759999999
20
-120.76000000000001
0
LWPOLYLINE
5
102
100
AcDbEntity
8
0
100
AcDbPolyline
90
4
70
1
43
0.0
10
-89.5
20
-96.637570192158719
10
-89.5
20
-91.637570192158719
10
-87.5
20
-91.637570192158719
10
-87.5
20
-96.637570192158719
0
LWPOLYLINE
5
103
100
AcDbEntity
8
0
100
AcDbPolyline
90
8
70
1
43
0.0
10
-156.39293520001763
20
-65.153926935702103
42
0.41433494893467143
10
-158.39293502827218
20
-67.154755779393881
10
-158.37056980385736
20
-121.1220422923505
42
0.41409218622962873
10
-156.37056997560285
20
-123.12121344865871
10
-87.000000000000014
20
-123.12121344865872
42
0.41421356237309509
10
-85
20
-121.12121344865869
10
-85
20
-67.153926935702088
42
0.4142135623730937
10
-87
20
-65.153926935702088
0
CIRCLE
5
104
100
AcDbEntity
8
0
100
AcDbCircle
10
-150.96000000000001
20
-115.72
30
0
40
0.99999999999999645
210
0
220
-0
230
1
0
CIRCLE
5
105
100
AcDbEntity
8
0
100
AcDbCircle
10
-92.539999999999992
20
-115.72
30
0
40
0.99999999999999978
210
0
220
-0
230
1
0
LWPOLYLINE
5
106
100
AcDbEntity
8
0
100
AcDbPolyline
90
8
70
1
43
0.0
10
-110.1399995
20
-103.53999999999999
42
0.41421356237310542
10
-111.1399995
20
-102.53999999999999
10
-150.14000049999999
20
-102.53999999999999
42
0.41421356237310542
10
-151.14000049999999
20
-103.53999999999999
10
-151.14000050000001
20
-105.04000000000002
42
0.41421356237307422
10
-150.14000049999999
20
-106.03999999999999
10
-111.1399995
20
-106.04000000000002
42
0.41421356237308465
10
-110.13999949999999
20
-105.03999999999998
0
CIRCLE
5
107
100
AcDbEntity
8
0
100
AcDbCircle
10
-92.539999999999992
20
-72.540000000000006
30
0
40
0.99999999999999978
210
0
220
-0
230
1
0
CIRCLE
5
108
100
AcDbEntity
8
0
100
AcDbCircle
10
-150.96000000000001
20
-72.540000000000006
30
0
40
0.99999999999999645
210
0
220
-0
230
1
0
LWPOLYLINE
5
109
100
AcDbEntity
8
0
100
AcDbPolyline
90
8
70
1
43
0.0
10
-150.14000049999999
20
-79.680000000000021
42
0.41421356237309509
10
-151.14000049999999
20
-80.680000000000007
10
-151.14000049999999
20
-82.180000000000007
42
0.41421356237310542
10
-150.14000049999999
20
-83.180000000000007
10
-111.1399995
20
-83.180000000000007
42
0.41421356237307422
10
-110.13999949999999
20
-82.180000000000007
10
-110.13999949999999
20
-80.680000000000007
42
0.41421356237308465
10
-111.1399995
20
-79.680000000000007
0
LWPOLYLINE
5
110
100
AcDbEntity
8
0
100
AcDbPolyline
90
4
70
1
43
0.0
10
-124.19646759999999
20
-69.5
10
-124.19646759999999
20
-67.5
10
-119.19646759999999
20
-67.5
10
-119.19646759999999
20
-69.5
0
ENDSEC
0
SECTION
2
OBJECTS
0
DICTIONARY
5
C
100
AcDbDictionary
3
ACAD_GROUP
350
D
3
ACAD_MLINESTYLE
350
17
0
DICTIONARY
5
D
100
AcDbDictionary
0
DICTIONARY
5
1A
330
C
100
AcDbDictionary
0
DICTIONARY
5
17
100
AcDbDictionary
0
ENDSEC
0
EOF
