G04 EAGLE Gerber RS-274X export*
G75*
%MOMM*%
%FSLAX34Y34*%
%LPD*%
%INBottom Copper*%
%IPPOS*%
%AMOC8*
5,1,8,0,0,1.08239X$1,22.5*%
G01*
%ADD10P,1.429621X8X292.500000*%
%ADD11P,1.429621X8X22.500000*%
%ADD12C,1.320800*%
%ADD13C,1.320800*%
%ADD14P,1.429621X8X112.500000*%
%ADD15C,1.524000*%
%ADD16C,2.250000*%
%ADD17C,1.508000*%
%ADD18C,1.270000*%
%ADD19C,1.350000*%

G36*
X588182Y10173D02*
X588182Y10173D01*
X588354Y10175D01*
X588465Y10193D01*
X588578Y10201D01*
X588747Y10237D01*
X588917Y10263D01*
X589025Y10296D01*
X589135Y10320D01*
X589297Y10379D01*
X589462Y10429D01*
X589564Y10477D01*
X589670Y10516D01*
X589823Y10597D01*
X589979Y10670D01*
X590073Y10731D01*
X590173Y10784D01*
X590312Y10886D01*
X590457Y10980D01*
X590542Y11054D01*
X590632Y11121D01*
X590756Y11241D01*
X590886Y11355D01*
X590960Y11440D01*
X591041Y11518D01*
X591146Y11655D01*
X591260Y11785D01*
X591321Y11880D01*
X591389Y11969D01*
X591475Y12119D01*
X591569Y12264D01*
X591616Y12366D01*
X591672Y12464D01*
X591735Y12625D01*
X591808Y12781D01*
X591840Y12889D01*
X591882Y12993D01*
X591923Y13161D01*
X591972Y13327D01*
X591989Y13438D01*
X592016Y13547D01*
X592033Y13719D01*
X592059Y13890D01*
X592060Y14002D01*
X592071Y14114D01*
X592064Y14287D01*
X592066Y14460D01*
X592051Y14571D01*
X592047Y14684D01*
X592015Y14854D01*
X591993Y15025D01*
X591968Y15106D01*
X591943Y15244D01*
X591767Y15767D01*
X591763Y15779D01*
X591761Y15784D01*
X589439Y21390D01*
X589439Y29410D01*
X592509Y36820D01*
X598180Y42491D01*
X605590Y45561D01*
X613610Y45561D01*
X619221Y43237D01*
X619384Y43182D01*
X619545Y43118D01*
X619655Y43092D01*
X619761Y43056D01*
X619931Y43025D01*
X620099Y42984D01*
X620211Y42973D01*
X620322Y42953D01*
X620494Y42946D01*
X620666Y42929D01*
X620779Y42934D01*
X620891Y42929D01*
X621063Y42946D01*
X621236Y42953D01*
X621346Y42974D01*
X621458Y42985D01*
X621626Y43026D01*
X621796Y43057D01*
X621902Y43093D01*
X622012Y43120D01*
X622172Y43184D01*
X622336Y43239D01*
X622437Y43289D01*
X622541Y43331D01*
X622691Y43416D01*
X622845Y43494D01*
X622938Y43558D01*
X623036Y43614D01*
X623172Y43719D01*
X623314Y43818D01*
X623397Y43894D01*
X623486Y43963D01*
X623606Y44087D01*
X623733Y44204D01*
X623804Y44291D01*
X623883Y44372D01*
X623984Y44511D01*
X624094Y44645D01*
X624152Y44741D01*
X624219Y44832D01*
X624300Y44984D01*
X624389Y45132D01*
X624434Y45236D01*
X624487Y45335D01*
X624546Y45497D01*
X624614Y45656D01*
X624643Y45765D01*
X624682Y45870D01*
X624718Y46039D01*
X624763Y46206D01*
X624771Y46291D01*
X624800Y46428D01*
X624838Y46978D01*
X624839Y46991D01*
X624839Y435609D01*
X624827Y435782D01*
X624825Y435954D01*
X624807Y436065D01*
X624799Y436178D01*
X624763Y436347D01*
X624737Y436517D01*
X624704Y436625D01*
X624680Y436735D01*
X624621Y436897D01*
X624571Y437062D01*
X624523Y437164D01*
X624484Y437270D01*
X624403Y437423D01*
X624330Y437579D01*
X624269Y437673D01*
X624216Y437773D01*
X624114Y437912D01*
X624020Y438057D01*
X623946Y438142D01*
X623879Y438232D01*
X623759Y438356D01*
X623645Y438486D01*
X623560Y438560D01*
X623482Y438641D01*
X623345Y438746D01*
X623215Y438860D01*
X623120Y438921D01*
X623031Y438989D01*
X622881Y439075D01*
X622736Y439169D01*
X622634Y439216D01*
X622536Y439272D01*
X622375Y439335D01*
X622219Y439408D01*
X622111Y439440D01*
X622007Y439482D01*
X621839Y439523D01*
X621673Y439572D01*
X621562Y439589D01*
X621453Y439616D01*
X621281Y439633D01*
X621110Y439659D01*
X620998Y439660D01*
X620886Y439671D01*
X620713Y439664D01*
X620540Y439666D01*
X620429Y439651D01*
X620316Y439647D01*
X620146Y439615D01*
X619975Y439593D01*
X619894Y439568D01*
X619756Y439543D01*
X619233Y439367D01*
X619221Y439363D01*
X619216Y439361D01*
X613610Y437039D01*
X605590Y437039D01*
X598180Y440109D01*
X592509Y445780D01*
X589439Y453190D01*
X589439Y461210D01*
X591763Y466821D01*
X591818Y466984D01*
X591882Y467145D01*
X591908Y467255D01*
X591944Y467361D01*
X591975Y467531D01*
X592016Y467699D01*
X592027Y467811D01*
X592047Y467922D01*
X592054Y468094D01*
X592071Y468266D01*
X592066Y468379D01*
X592071Y468491D01*
X592054Y468663D01*
X592047Y468836D01*
X592026Y468946D01*
X592015Y469058D01*
X591974Y469226D01*
X591943Y469396D01*
X591907Y469502D01*
X591880Y469612D01*
X591816Y469772D01*
X591761Y469936D01*
X591711Y470037D01*
X591669Y470141D01*
X591584Y470291D01*
X591506Y470445D01*
X591442Y470538D01*
X591386Y470636D01*
X591281Y470772D01*
X591182Y470914D01*
X591106Y470997D01*
X591037Y471086D01*
X590913Y471206D01*
X590796Y471333D01*
X590709Y471404D01*
X590628Y471483D01*
X590489Y471584D01*
X590355Y471694D01*
X590259Y471752D01*
X590168Y471819D01*
X590016Y471900D01*
X589868Y471989D01*
X589764Y472034D01*
X589665Y472087D01*
X589503Y472146D01*
X589344Y472214D01*
X589235Y472243D01*
X589130Y472282D01*
X588961Y472318D01*
X588794Y472363D01*
X588709Y472371D01*
X588572Y472400D01*
X588022Y472438D01*
X588009Y472439D01*
X46991Y472439D01*
X46818Y472427D01*
X46646Y472425D01*
X46535Y472407D01*
X46422Y472399D01*
X46253Y472363D01*
X46083Y472337D01*
X45975Y472304D01*
X45865Y472280D01*
X45703Y472221D01*
X45538Y472171D01*
X45436Y472123D01*
X45330Y472084D01*
X45177Y472003D01*
X45021Y471930D01*
X44927Y471869D01*
X44827Y471816D01*
X44688Y471714D01*
X44543Y471620D01*
X44458Y471546D01*
X44368Y471479D01*
X44244Y471359D01*
X44114Y471245D01*
X44040Y471160D01*
X43959Y471082D01*
X43854Y470945D01*
X43740Y470815D01*
X43679Y470720D01*
X43611Y470631D01*
X43525Y470481D01*
X43431Y470336D01*
X43384Y470234D01*
X43328Y470136D01*
X43265Y469975D01*
X43192Y469819D01*
X43160Y469711D01*
X43118Y469607D01*
X43077Y469439D01*
X43028Y469273D01*
X43011Y469162D01*
X42984Y469053D01*
X42967Y468881D01*
X42941Y468710D01*
X42940Y468598D01*
X42929Y468486D01*
X42936Y468313D01*
X42934Y468140D01*
X42949Y468029D01*
X42953Y467916D01*
X42985Y467746D01*
X43007Y467575D01*
X43032Y467494D01*
X43057Y467356D01*
X43233Y466833D01*
X43237Y466821D01*
X43239Y466816D01*
X44536Y463685D01*
X45561Y461210D01*
X45561Y453190D01*
X42491Y445780D01*
X36820Y440109D01*
X29410Y437039D01*
X21390Y437039D01*
X15779Y439363D01*
X15616Y439418D01*
X15455Y439482D01*
X15345Y439508D01*
X15239Y439544D01*
X15069Y439575D01*
X14901Y439616D01*
X14789Y439627D01*
X14678Y439647D01*
X14506Y439654D01*
X14334Y439671D01*
X14221Y439666D01*
X14109Y439671D01*
X13937Y439654D01*
X13764Y439647D01*
X13654Y439626D01*
X13542Y439615D01*
X13374Y439574D01*
X13204Y439543D01*
X13098Y439507D01*
X12988Y439480D01*
X12828Y439416D01*
X12664Y439361D01*
X12563Y439311D01*
X12459Y439269D01*
X12309Y439184D01*
X12155Y439106D01*
X12062Y439042D01*
X11964Y438986D01*
X11828Y438881D01*
X11686Y438782D01*
X11603Y438706D01*
X11514Y438637D01*
X11394Y438513D01*
X11267Y438396D01*
X11196Y438309D01*
X11117Y438228D01*
X11016Y438089D01*
X10906Y437955D01*
X10848Y437859D01*
X10781Y437768D01*
X10700Y437616D01*
X10611Y437468D01*
X10566Y437364D01*
X10513Y437265D01*
X10454Y437103D01*
X10386Y436944D01*
X10357Y436835D01*
X10318Y436730D01*
X10282Y436561D01*
X10237Y436394D01*
X10229Y436309D01*
X10200Y436172D01*
X10162Y435622D01*
X10161Y435609D01*
X10161Y154750D01*
X10169Y154635D01*
X10167Y154519D01*
X10189Y154351D01*
X10201Y154181D01*
X10225Y154069D01*
X10239Y153954D01*
X10284Y153790D01*
X10320Y153624D01*
X10359Y153516D01*
X10390Y153405D01*
X10457Y153249D01*
X10516Y153089D01*
X10570Y152987D01*
X10616Y152882D01*
X10704Y152736D01*
X10784Y152587D01*
X10852Y152494D01*
X10912Y152395D01*
X11020Y152264D01*
X11121Y152127D01*
X11201Y152044D01*
X11274Y151955D01*
X11399Y151840D01*
X11518Y151718D01*
X11609Y151648D01*
X11694Y151570D01*
X11834Y151474D01*
X11969Y151370D01*
X12069Y151313D01*
X12164Y151247D01*
X12316Y151172D01*
X12464Y151087D01*
X12571Y151045D01*
X12674Y150994D01*
X12835Y150940D01*
X12993Y150877D01*
X13106Y150850D01*
X13215Y150814D01*
X13382Y150783D01*
X13547Y150743D01*
X13662Y150732D01*
X13775Y150711D01*
X13945Y150704D01*
X14114Y150688D01*
X14229Y150693D01*
X14345Y150688D01*
X14514Y150705D01*
X14684Y150712D01*
X14797Y150733D01*
X14911Y150745D01*
X15077Y150785D01*
X15244Y150816D01*
X15353Y150853D01*
X15465Y150880D01*
X15623Y150944D01*
X15784Y150998D01*
X15887Y151049D01*
X15994Y151092D01*
X16141Y151177D01*
X16293Y151253D01*
X16388Y151318D01*
X16488Y151376D01*
X16577Y151449D01*
X16762Y151577D01*
X17006Y151802D01*
X17097Y151876D01*
X17299Y152078D01*
X17339Y152124D01*
X17383Y152165D01*
X17525Y152339D01*
X17673Y152509D01*
X17706Y152559D01*
X17744Y152606D01*
X17861Y152798D01*
X17983Y152987D01*
X18008Y153042D01*
X18039Y153093D01*
X18128Y153300D01*
X18223Y153504D01*
X18240Y153562D01*
X18264Y153617D01*
X18322Y153834D01*
X18388Y154049D01*
X18397Y154109D01*
X18413Y154167D01*
X18424Y154284D01*
X18475Y154612D01*
X18478Y154837D01*
X18489Y154952D01*
X18489Y176784D01*
X21003Y182853D01*
X25647Y187497D01*
X31716Y190011D01*
X155750Y190011D01*
X161819Y187497D01*
X166463Y182853D01*
X168977Y176784D01*
X168977Y161281D01*
X168981Y161221D01*
X168979Y161161D01*
X169001Y160937D01*
X169017Y160713D01*
X169029Y160654D01*
X169035Y160594D01*
X169089Y160375D01*
X169136Y160156D01*
X169156Y160099D01*
X169171Y160040D01*
X169231Y159891D01*
X169231Y147828D01*
X169247Y147599D01*
X169257Y147368D01*
X169267Y147314D01*
X169271Y147260D01*
X169319Y147034D01*
X169361Y146808D01*
X169378Y146756D01*
X169390Y146702D01*
X169469Y146486D01*
X169542Y146268D01*
X169567Y146219D01*
X169586Y146167D01*
X169694Y145964D01*
X169797Y145759D01*
X169828Y145713D01*
X169854Y145665D01*
X169990Y145479D01*
X170121Y145290D01*
X170158Y145249D01*
X170191Y145205D01*
X170351Y145040D01*
X170507Y144871D01*
X170550Y144836D01*
X170588Y144797D01*
X170770Y144656D01*
X170948Y144510D01*
X170996Y144482D01*
X171039Y144448D01*
X171239Y144334D01*
X171436Y144215D01*
X171486Y144193D01*
X171534Y144166D01*
X171748Y144081D01*
X171959Y143990D01*
X172012Y143976D01*
X172063Y143956D01*
X172288Y143901D01*
X172509Y143841D01*
X172553Y143837D01*
X172617Y143821D01*
X173184Y143766D01*
X173250Y143769D01*
X173294Y143765D01*
X184810Y143765D01*
X194631Y133944D01*
X194631Y119525D01*
X194626Y119509D01*
X194602Y119453D01*
X194543Y119237D01*
X194478Y119022D01*
X194469Y118962D01*
X194453Y118904D01*
X194442Y118786D01*
X194391Y118459D01*
X194388Y118234D01*
X194377Y118119D01*
X194377Y86316D01*
X191863Y80247D01*
X187219Y75603D01*
X181150Y73089D01*
X111390Y73089D01*
X111118Y73070D01*
X110848Y73053D01*
X110837Y73050D01*
X110821Y73049D01*
X110264Y72930D01*
X110211Y72911D01*
X107582Y73081D01*
X107416Y73080D01*
X107319Y73089D01*
X104673Y73089D01*
X104555Y73129D01*
X104298Y73217D01*
X104287Y73218D01*
X104272Y73223D01*
X103711Y73327D01*
X103655Y73329D01*
X101291Y74492D01*
X101137Y74555D01*
X101052Y74601D01*
X98607Y75613D01*
X98513Y75695D01*
X98309Y75875D01*
X98299Y75880D01*
X98288Y75891D01*
X97809Y76201D01*
X97758Y76225D01*
X96019Y78204D01*
X95901Y78321D01*
X95839Y78395D01*
X93968Y80266D01*
X93913Y80378D01*
X93793Y80622D01*
X93786Y80631D01*
X93779Y80645D01*
X93456Y81114D01*
X93417Y81157D01*
X92569Y83650D01*
X92504Y83803D01*
X92476Y83896D01*
X91463Y86341D01*
X91455Y86467D01*
X91437Y86736D01*
X91435Y86747D01*
X91434Y86763D01*
X91315Y87320D01*
X91274Y87431D01*
X91257Y87504D01*
X87643Y98123D01*
X87613Y98193D01*
X87591Y98266D01*
X87503Y98455D01*
X87422Y98648D01*
X87383Y98713D01*
X87350Y98783D01*
X87236Y98958D01*
X87129Y99137D01*
X87081Y99196D01*
X87040Y99261D01*
X86902Y99418D01*
X86772Y99580D01*
X86716Y99632D01*
X86665Y99690D01*
X86507Y99827D01*
X86355Y99969D01*
X86293Y100013D01*
X86235Y100063D01*
X86060Y100177D01*
X85889Y100296D01*
X85820Y100331D01*
X85756Y100373D01*
X85567Y100460D01*
X85381Y100555D01*
X85309Y100580D01*
X85239Y100612D01*
X85039Y100672D01*
X84842Y100740D01*
X84767Y100754D01*
X84694Y100776D01*
X84487Y100808D01*
X84282Y100847D01*
X84206Y100851D01*
X84130Y100863D01*
X83921Y100865D01*
X83713Y100876D01*
X83637Y100869D01*
X83561Y100870D01*
X83354Y100843D01*
X83146Y100824D01*
X83071Y100807D01*
X82995Y100797D01*
X82880Y100762D01*
X82591Y100694D01*
X82356Y100602D01*
X82241Y100567D01*
X76259Y98089D01*
X67741Y98089D01*
X59872Y101349D01*
X53849Y107372D01*
X50589Y115241D01*
X50589Y116701D01*
X50577Y116874D01*
X50575Y117046D01*
X50557Y117157D01*
X50549Y117270D01*
X50513Y117439D01*
X50487Y117609D01*
X50454Y117717D01*
X50430Y117827D01*
X50371Y117989D01*
X50321Y118154D01*
X50273Y118256D01*
X50234Y118362D01*
X50153Y118514D01*
X50080Y118671D01*
X50019Y118765D01*
X49966Y118865D01*
X49864Y119004D01*
X49770Y119149D01*
X49696Y119234D01*
X49629Y119324D01*
X49509Y119448D01*
X49395Y119578D01*
X49310Y119652D01*
X49232Y119733D01*
X49095Y119838D01*
X48965Y119952D01*
X48870Y120013D01*
X48781Y120081D01*
X48631Y120167D01*
X48486Y120261D01*
X48384Y120308D01*
X48286Y120364D01*
X48125Y120427D01*
X47969Y120500D01*
X47861Y120532D01*
X47757Y120574D01*
X47589Y120615D01*
X47423Y120664D01*
X47312Y120681D01*
X47203Y120708D01*
X47031Y120725D01*
X46860Y120751D01*
X46748Y120752D01*
X46636Y120763D01*
X46463Y120756D01*
X46290Y120758D01*
X46179Y120743D01*
X46066Y120739D01*
X45896Y120707D01*
X45725Y120685D01*
X45644Y120660D01*
X45506Y120635D01*
X44983Y120459D01*
X44971Y120455D01*
X44966Y120453D01*
X39259Y118089D01*
X30741Y118089D01*
X29763Y118494D01*
X29563Y118561D01*
X29366Y118635D01*
X29293Y118651D01*
X29223Y118675D01*
X29016Y118713D01*
X28809Y118759D01*
X28736Y118765D01*
X28663Y118778D01*
X28452Y118787D01*
X28241Y118803D01*
X28167Y118799D01*
X28093Y118802D01*
X27884Y118781D01*
X27673Y118768D01*
X27600Y118753D01*
X27526Y118746D01*
X27322Y118696D01*
X27114Y118654D01*
X27045Y118629D01*
X26973Y118611D01*
X26777Y118533D01*
X26578Y118462D01*
X26512Y118428D01*
X26443Y118400D01*
X26260Y118295D01*
X26073Y118197D01*
X26013Y118154D01*
X25949Y118117D01*
X25782Y117988D01*
X25611Y117865D01*
X25557Y117813D01*
X25499Y117768D01*
X25352Y117617D01*
X25199Y117471D01*
X25153Y117412D01*
X25102Y117359D01*
X24977Y117189D01*
X24847Y117023D01*
X24810Y116959D01*
X24766Y116899D01*
X24666Y116712D01*
X24561Y116530D01*
X24540Y116475D01*
X24498Y116396D01*
X24303Y115861D01*
X24294Y115819D01*
X24284Y115792D01*
X24087Y115058D01*
X23395Y113388D01*
X22491Y111822D01*
X21391Y110388D01*
X20112Y109109D01*
X18678Y108009D01*
X17112Y107105D01*
X15442Y106413D01*
X13696Y105945D01*
X13694Y105945D01*
X13449Y105895D01*
X13204Y105850D01*
X13171Y105838D01*
X13135Y105831D01*
X12900Y105747D01*
X12664Y105668D01*
X12632Y105652D01*
X12599Y105640D01*
X12378Y105525D01*
X12155Y105413D01*
X12125Y105393D01*
X12094Y105376D01*
X11891Y105231D01*
X11686Y105089D01*
X11659Y105065D01*
X11631Y105044D01*
X11451Y104873D01*
X11267Y104703D01*
X11244Y104675D01*
X11219Y104651D01*
X11064Y104455D01*
X10906Y104262D01*
X10888Y104231D01*
X10866Y104204D01*
X10740Y103988D01*
X10611Y103775D01*
X10597Y103742D01*
X10579Y103711D01*
X10484Y103480D01*
X10386Y103251D01*
X10377Y103217D01*
X10363Y103184D01*
X10302Y102942D01*
X10237Y102701D01*
X10234Y102672D01*
X10224Y102631D01*
X10163Y102065D01*
X10166Y101975D01*
X10161Y101916D01*
X10161Y46991D01*
X10173Y46818D01*
X10175Y46646D01*
X10193Y46535D01*
X10201Y46422D01*
X10237Y46253D01*
X10263Y46083D01*
X10296Y45975D01*
X10320Y45865D01*
X10379Y45703D01*
X10429Y45538D01*
X10477Y45436D01*
X10516Y45330D01*
X10597Y45177D01*
X10670Y45021D01*
X10731Y44927D01*
X10784Y44827D01*
X10886Y44688D01*
X10980Y44543D01*
X11054Y44458D01*
X11121Y44368D01*
X11241Y44244D01*
X11355Y44114D01*
X11440Y44040D01*
X11518Y43959D01*
X11655Y43854D01*
X11785Y43740D01*
X11880Y43679D01*
X11969Y43611D01*
X12119Y43525D01*
X12264Y43431D01*
X12366Y43384D01*
X12464Y43328D01*
X12625Y43265D01*
X12781Y43192D01*
X12889Y43160D01*
X12993Y43118D01*
X13161Y43077D01*
X13327Y43028D01*
X13438Y43011D01*
X13547Y42984D01*
X13719Y42967D01*
X13890Y42941D01*
X14002Y42940D01*
X14114Y42929D01*
X14287Y42936D01*
X14460Y42934D01*
X14571Y42949D01*
X14684Y42953D01*
X14854Y42985D01*
X15025Y43007D01*
X15106Y43032D01*
X15244Y43057D01*
X15767Y43233D01*
X15779Y43237D01*
X15784Y43239D01*
X21390Y45561D01*
X29410Y45561D01*
X36820Y42491D01*
X42491Y36820D01*
X45561Y29410D01*
X45561Y21390D01*
X43237Y15779D01*
X43182Y15616D01*
X43118Y15455D01*
X43092Y15345D01*
X43056Y15239D01*
X43025Y15069D01*
X42984Y14901D01*
X42973Y14789D01*
X42953Y14678D01*
X42946Y14506D01*
X42929Y14334D01*
X42934Y14221D01*
X42929Y14109D01*
X42946Y13937D01*
X42953Y13764D01*
X42974Y13654D01*
X42985Y13542D01*
X43026Y13374D01*
X43057Y13204D01*
X43093Y13098D01*
X43120Y12988D01*
X43184Y12828D01*
X43239Y12664D01*
X43289Y12563D01*
X43331Y12459D01*
X43416Y12309D01*
X43494Y12155D01*
X43558Y12062D01*
X43614Y11964D01*
X43719Y11828D01*
X43818Y11686D01*
X43894Y11603D01*
X43963Y11514D01*
X44087Y11394D01*
X44204Y11267D01*
X44291Y11196D01*
X44372Y11117D01*
X44511Y11016D01*
X44645Y10906D01*
X44741Y10848D01*
X44832Y10781D01*
X44984Y10700D01*
X45132Y10611D01*
X45236Y10566D01*
X45335Y10513D01*
X45497Y10454D01*
X45656Y10386D01*
X45765Y10357D01*
X45870Y10318D01*
X46039Y10282D01*
X46206Y10237D01*
X46291Y10229D01*
X46428Y10200D01*
X46978Y10162D01*
X46991Y10161D01*
X588009Y10161D01*
X588182Y10173D01*
G37*
%LPC*%
G36*
X373525Y59435D02*
X373525Y59435D01*
X373509Y59440D01*
X373453Y59464D01*
X373237Y59522D01*
X373021Y59588D01*
X372962Y59597D01*
X372903Y59613D01*
X372786Y59624D01*
X372458Y59675D01*
X372233Y59678D01*
X372119Y59689D01*
X326916Y59689D01*
X320847Y62203D01*
X316203Y66847D01*
X313689Y72916D01*
X313689Y181087D01*
X313738Y181235D01*
X313802Y181395D01*
X313829Y181505D01*
X313864Y181611D01*
X313896Y181781D01*
X313936Y181949D01*
X313947Y182061D01*
X313968Y182172D01*
X313975Y182344D01*
X313992Y182516D01*
X313987Y182629D01*
X313992Y182741D01*
X313975Y182913D01*
X313967Y183086D01*
X313947Y183196D01*
X313935Y183308D01*
X313895Y183476D01*
X313863Y183646D01*
X313827Y183752D01*
X313801Y183862D01*
X313737Y184022D01*
X313682Y184186D01*
X313631Y184287D01*
X313590Y184391D01*
X313504Y184541D01*
X313427Y184695D01*
X313363Y184788D01*
X313307Y184886D01*
X313201Y185022D01*
X313103Y185164D01*
X313026Y185247D01*
X312958Y185336D01*
X312834Y185456D01*
X312717Y185583D01*
X312629Y185654D01*
X312549Y185733D01*
X312409Y185834D01*
X312275Y185944D01*
X312179Y186002D01*
X312088Y186069D01*
X311936Y186150D01*
X311788Y186239D01*
X311685Y186284D01*
X311586Y186337D01*
X311423Y186396D01*
X311265Y186464D01*
X311156Y186493D01*
X311050Y186532D01*
X310881Y186568D01*
X310715Y186613D01*
X310630Y186621D01*
X310493Y186650D01*
X309943Y186688D01*
X309930Y186689D01*
X300040Y186689D01*
X299811Y186673D01*
X299580Y186663D01*
X299526Y186653D01*
X299472Y186649D01*
X299246Y186601D01*
X299020Y186559D01*
X298968Y186542D01*
X298914Y186530D01*
X298698Y186451D01*
X298480Y186378D01*
X298431Y186353D01*
X298379Y186334D01*
X298176Y186226D01*
X297971Y186123D01*
X297925Y186092D01*
X297877Y186066D01*
X297691Y185930D01*
X297502Y185799D01*
X297461Y185762D01*
X297417Y185729D01*
X297252Y185569D01*
X297083Y185413D01*
X297048Y185370D01*
X297009Y185332D01*
X296868Y185150D01*
X296722Y184972D01*
X296694Y184924D01*
X296660Y184881D01*
X296546Y184681D01*
X296427Y184484D01*
X296405Y184434D01*
X296378Y184386D01*
X296293Y184172D01*
X296202Y183961D01*
X296188Y183908D01*
X296168Y183857D01*
X296113Y183632D01*
X296053Y183411D01*
X296049Y183367D01*
X296033Y183303D01*
X295998Y182940D01*
X295990Y182890D01*
X295990Y182858D01*
X295978Y182736D01*
X295981Y182670D01*
X295977Y182626D01*
X295977Y182556D01*
X295985Y182438D01*
X295984Y182321D01*
X296002Y182174D01*
X296003Y182166D01*
X296005Y182155D01*
X296017Y181988D01*
X296041Y181872D01*
X296056Y181755D01*
X296090Y181646D01*
X296136Y181431D01*
X296231Y181171D01*
X296231Y174445D01*
X296202Y174379D01*
X296158Y174217D01*
X296105Y174058D01*
X296084Y173942D01*
X296053Y173829D01*
X296042Y173715D01*
X296002Y173498D01*
X295988Y173160D01*
X295977Y173044D01*
X295977Y161281D01*
X295981Y161221D01*
X295979Y161160D01*
X296001Y160937D01*
X296017Y160713D01*
X296029Y160654D01*
X296035Y160593D01*
X296089Y160375D01*
X296136Y160156D01*
X296157Y160099D01*
X296171Y160040D01*
X296231Y159891D01*
X296231Y145456D01*
X287960Y137185D01*
X287809Y137011D01*
X287653Y136842D01*
X287622Y136796D01*
X287586Y136755D01*
X287461Y136561D01*
X287331Y136372D01*
X287306Y136323D01*
X287276Y136277D01*
X287179Y136068D01*
X287077Y135862D01*
X287060Y135810D01*
X287037Y135760D01*
X286970Y135539D01*
X286897Y135321D01*
X286887Y135267D01*
X286871Y135215D01*
X286836Y134987D01*
X286795Y134761D01*
X286792Y134706D01*
X286784Y134651D01*
X286781Y134422D01*
X286772Y134191D01*
X286777Y134137D01*
X286776Y134082D01*
X286805Y133853D01*
X286828Y133624D01*
X286841Y133571D01*
X286848Y133517D01*
X286909Y133294D01*
X286964Y133071D01*
X286984Y133020D01*
X286999Y132967D01*
X287090Y132756D01*
X287176Y132542D01*
X287203Y132494D01*
X287225Y132444D01*
X287345Y132247D01*
X287459Y132048D01*
X287487Y132013D01*
X287521Y131957D01*
X287883Y131517D01*
X287932Y131473D01*
X287960Y131439D01*
X288335Y131063D01*
X279466Y131063D01*
X279237Y131047D01*
X279007Y131037D01*
X278953Y131027D01*
X278898Y131023D01*
X278673Y130975D01*
X278447Y130933D01*
X278394Y130916D01*
X278341Y130904D01*
X278125Y130825D01*
X277906Y130752D01*
X277857Y130727D01*
X277806Y130709D01*
X277603Y130600D01*
X277397Y130497D01*
X277352Y130466D01*
X277303Y130440D01*
X277118Y130304D01*
X276928Y130173D01*
X276888Y130136D01*
X276843Y130103D01*
X276679Y129943D01*
X276509Y129787D01*
X276474Y129744D01*
X276435Y129706D01*
X276294Y129524D01*
X276148Y129346D01*
X276120Y129299D01*
X276086Y129255D01*
X275972Y129055D01*
X275853Y128859D01*
X275831Y128808D01*
X275804Y128760D01*
X275719Y128546D01*
X275629Y128335D01*
X275614Y128282D01*
X275594Y128231D01*
X275540Y128006D01*
X275480Y127785D01*
X275475Y127741D01*
X275460Y127677D01*
X275405Y127110D01*
X275407Y127044D01*
X275403Y127000D01*
X275419Y126770D01*
X275429Y126540D01*
X275439Y126486D01*
X275443Y126431D01*
X275491Y126206D01*
X275533Y125980D01*
X275551Y125928D01*
X275562Y125874D01*
X275641Y125658D01*
X275714Y125440D01*
X275739Y125391D01*
X275758Y125339D01*
X275867Y125136D01*
X275970Y124930D01*
X276001Y124885D01*
X276027Y124837D01*
X276162Y124651D01*
X276293Y124462D01*
X276331Y124421D01*
X276363Y124377D01*
X276523Y124212D01*
X276680Y124043D01*
X276722Y124008D01*
X276761Y123969D01*
X276942Y123828D01*
X277121Y123682D01*
X277168Y123653D01*
X277211Y123620D01*
X277411Y123506D01*
X277608Y123386D01*
X277658Y123365D01*
X277706Y123338D01*
X277921Y123252D01*
X278132Y123162D01*
X278184Y123148D01*
X278236Y123127D01*
X278460Y123073D01*
X278682Y123013D01*
X278726Y123009D01*
X278790Y122993D01*
X279357Y122938D01*
X279422Y122941D01*
X279466Y122937D01*
X288335Y122937D01*
X287960Y122561D01*
X287809Y122387D01*
X287653Y122218D01*
X287622Y122173D01*
X287586Y122131D01*
X287461Y121938D01*
X287331Y121748D01*
X287306Y121699D01*
X287276Y121653D01*
X287179Y121444D01*
X287077Y121238D01*
X287060Y121186D01*
X287037Y121136D01*
X286970Y120916D01*
X286897Y120697D01*
X286887Y120643D01*
X286871Y120591D01*
X286836Y120364D01*
X286795Y120137D01*
X286792Y120082D01*
X286784Y120028D01*
X286781Y119798D01*
X286772Y119568D01*
X286777Y119513D01*
X286776Y119458D01*
X286805Y119230D01*
X286828Y119001D01*
X286841Y118947D01*
X286848Y118893D01*
X286909Y118670D01*
X286964Y118447D01*
X286984Y118396D01*
X286999Y118343D01*
X287090Y118132D01*
X287176Y117918D01*
X287203Y117870D01*
X287225Y117820D01*
X287345Y117624D01*
X287459Y117424D01*
X287487Y117390D01*
X287521Y117334D01*
X287883Y116894D01*
X287932Y116849D01*
X287960Y116815D01*
X296231Y108544D01*
X296231Y94656D01*
X287960Y86385D01*
X287809Y86211D01*
X287653Y86042D01*
X287622Y85996D01*
X287586Y85955D01*
X287461Y85761D01*
X287331Y85572D01*
X287306Y85523D01*
X287276Y85477D01*
X287179Y85268D01*
X287077Y85062D01*
X287060Y85010D01*
X287037Y84960D01*
X286970Y84739D01*
X286897Y84521D01*
X286887Y84467D01*
X286871Y84415D01*
X286836Y84187D01*
X286795Y83961D01*
X286792Y83906D01*
X286784Y83851D01*
X286781Y83622D01*
X286772Y83391D01*
X286777Y83337D01*
X286776Y83282D01*
X286805Y83053D01*
X286828Y82824D01*
X286841Y82771D01*
X286848Y82717D01*
X286909Y82494D01*
X286964Y82271D01*
X286984Y82220D01*
X286999Y82167D01*
X287090Y81956D01*
X287176Y81742D01*
X287203Y81694D01*
X287225Y81644D01*
X287345Y81447D01*
X287459Y81248D01*
X287487Y81213D01*
X287521Y81157D01*
X287883Y80717D01*
X287932Y80673D01*
X287960Y80639D01*
X288335Y80263D01*
X279466Y80263D01*
X270321Y80263D01*
X270321Y81026D01*
X270305Y81255D01*
X270295Y81486D01*
X270285Y81540D01*
X270281Y81594D01*
X270233Y81820D01*
X270191Y82046D01*
X270174Y82098D01*
X270162Y82152D01*
X270083Y82368D01*
X270010Y82586D01*
X269985Y82635D01*
X269966Y82687D01*
X269858Y82890D01*
X269755Y83095D01*
X269724Y83141D01*
X269698Y83189D01*
X269562Y83375D01*
X269431Y83564D01*
X269394Y83605D01*
X269361Y83649D01*
X269201Y83814D01*
X269045Y83983D01*
X269002Y84018D01*
X268964Y84057D01*
X268782Y84198D01*
X268604Y84344D01*
X268556Y84372D01*
X268513Y84406D01*
X268313Y84520D01*
X268116Y84639D01*
X268066Y84661D01*
X268018Y84688D01*
X267804Y84773D01*
X267593Y84864D01*
X267540Y84878D01*
X267489Y84898D01*
X267264Y84953D01*
X267043Y85013D01*
X266999Y85017D01*
X266935Y85033D01*
X266368Y85088D01*
X266302Y85085D01*
X266258Y85089D01*
X250716Y85089D01*
X244647Y87603D01*
X244386Y87864D01*
X244212Y88016D01*
X244042Y88171D01*
X243997Y88202D01*
X243956Y88238D01*
X243762Y88363D01*
X243573Y88494D01*
X243523Y88518D01*
X243477Y88548D01*
X243269Y88645D01*
X243063Y88747D01*
X243010Y88765D01*
X242961Y88788D01*
X242740Y88855D01*
X242522Y88927D01*
X242468Y88937D01*
X242415Y88953D01*
X242187Y88988D01*
X241961Y89030D01*
X241907Y89032D01*
X241852Y89040D01*
X241622Y89044D01*
X241392Y89053D01*
X241337Y89047D01*
X241283Y89048D01*
X241055Y89019D01*
X240825Y88996D01*
X240772Y88983D01*
X240717Y88976D01*
X240496Y88915D01*
X240272Y88861D01*
X240221Y88840D01*
X240168Y88826D01*
X239956Y88734D01*
X239743Y88649D01*
X239695Y88622D01*
X239645Y88600D01*
X239448Y88480D01*
X239248Y88365D01*
X239214Y88337D01*
X239158Y88303D01*
X238718Y87941D01*
X238674Y87893D01*
X238639Y87865D01*
X237160Y86385D01*
X237009Y86211D01*
X236853Y86042D01*
X236822Y85996D01*
X236786Y85955D01*
X236661Y85762D01*
X236531Y85572D01*
X236506Y85523D01*
X236476Y85477D01*
X236379Y85268D01*
X236277Y85062D01*
X236260Y85010D01*
X236237Y84960D01*
X236170Y84739D01*
X236097Y84521D01*
X236087Y84467D01*
X236071Y84415D01*
X236036Y84187D01*
X235995Y83961D01*
X235992Y83906D01*
X235984Y83851D01*
X235981Y83622D01*
X235972Y83391D01*
X235977Y83337D01*
X235976Y83282D01*
X236005Y83054D01*
X236028Y82824D01*
X236041Y82771D01*
X236048Y82717D01*
X236109Y82495D01*
X236164Y82271D01*
X236184Y82220D01*
X236199Y82167D01*
X236290Y81956D01*
X236376Y81742D01*
X236403Y81694D01*
X236425Y81644D01*
X236545Y81447D01*
X236659Y81248D01*
X236687Y81213D01*
X236721Y81157D01*
X237083Y80717D01*
X237132Y80673D01*
X237160Y80639D01*
X237535Y80263D01*
X228666Y80263D01*
X219797Y80263D01*
X220172Y80639D01*
X220323Y80813D01*
X220479Y80982D01*
X220510Y81027D01*
X220546Y81069D01*
X220671Y81262D01*
X220801Y81452D01*
X220826Y81501D01*
X220856Y81547D01*
X220953Y81756D01*
X221055Y81962D01*
X221072Y82014D01*
X221095Y82064D01*
X221162Y82284D01*
X221235Y82503D01*
X221245Y82557D01*
X221261Y82609D01*
X221296Y82836D01*
X221337Y83063D01*
X221340Y83118D01*
X221348Y83172D01*
X221351Y83402D01*
X221360Y83632D01*
X221355Y83687D01*
X221356Y83742D01*
X221327Y83970D01*
X221304Y84199D01*
X221291Y84253D01*
X221284Y84307D01*
X221223Y84530D01*
X221168Y84753D01*
X221148Y84804D01*
X221133Y84857D01*
X221042Y85068D01*
X220956Y85282D01*
X220929Y85330D01*
X220907Y85380D01*
X220787Y85576D01*
X220673Y85776D01*
X220645Y85810D01*
X220611Y85866D01*
X220249Y86306D01*
X220200Y86351D01*
X220172Y86385D01*
X211901Y94656D01*
X211901Y109075D01*
X211906Y109091D01*
X211930Y109147D01*
X211988Y109363D01*
X212054Y109579D01*
X212063Y109638D01*
X212079Y109697D01*
X212090Y109814D01*
X212141Y110142D01*
X212144Y110367D01*
X212155Y110481D01*
X212155Y143519D01*
X212151Y143579D01*
X212153Y143640D01*
X212131Y143863D01*
X212115Y144087D01*
X212103Y144146D01*
X212097Y144207D01*
X212043Y144425D01*
X211996Y144644D01*
X211975Y144701D01*
X211961Y144760D01*
X211901Y144909D01*
X211901Y157150D01*
X211889Y157322D01*
X211887Y157495D01*
X211869Y157606D01*
X211861Y157718D01*
X211825Y157887D01*
X211798Y158058D01*
X211766Y158166D01*
X211742Y158275D01*
X211683Y158437D01*
X211633Y158603D01*
X211585Y158705D01*
X211546Y158810D01*
X211465Y158963D01*
X211392Y159119D01*
X211331Y159214D01*
X211278Y159313D01*
X211176Y159452D01*
X211081Y159597D01*
X211008Y159682D01*
X210941Y159773D01*
X210821Y159897D01*
X210707Y160027D01*
X210622Y160100D01*
X210544Y160181D01*
X210407Y160287D01*
X210276Y160400D01*
X210182Y160461D01*
X210093Y160530D01*
X209943Y160615D01*
X209798Y160709D01*
X209696Y160756D01*
X209598Y160812D01*
X209437Y160876D01*
X209281Y160948D01*
X209173Y160981D01*
X209069Y161022D01*
X208900Y161063D01*
X208735Y161113D01*
X208624Y161130D01*
X208515Y161156D01*
X208343Y161173D01*
X208172Y161199D01*
X208060Y161201D01*
X207948Y161212D01*
X207775Y161204D01*
X207602Y161206D01*
X207491Y161192D01*
X207378Y161187D01*
X207208Y161155D01*
X207037Y161133D01*
X206955Y161108D01*
X206818Y161083D01*
X206676Y161035D01*
X199931Y161035D01*
X193770Y163588D01*
X189054Y168304D01*
X188273Y170187D01*
X188273Y170188D01*
X186501Y174465D01*
X186501Y181200D01*
X186508Y181223D01*
X186561Y181382D01*
X186582Y181498D01*
X186613Y181612D01*
X186624Y181726D01*
X186664Y181943D01*
X186678Y182281D01*
X186689Y182397D01*
X186689Y208026D01*
X186673Y208255D01*
X186663Y208486D01*
X186653Y208540D01*
X186649Y208594D01*
X186601Y208820D01*
X186559Y209046D01*
X186542Y209098D01*
X186530Y209152D01*
X186451Y209368D01*
X186378Y209586D01*
X186353Y209635D01*
X186334Y209687D01*
X186226Y209890D01*
X186123Y210095D01*
X186092Y210141D01*
X186066Y210189D01*
X185930Y210375D01*
X185799Y210564D01*
X185762Y210605D01*
X185729Y210649D01*
X185569Y210814D01*
X185413Y210983D01*
X185370Y211018D01*
X185332Y211057D01*
X185150Y211198D01*
X184972Y211344D01*
X184924Y211372D01*
X184881Y211406D01*
X184681Y211520D01*
X184484Y211639D01*
X184434Y211661D01*
X184386Y211688D01*
X184172Y211773D01*
X183961Y211864D01*
X183908Y211878D01*
X183857Y211898D01*
X183632Y211953D01*
X183411Y212013D01*
X183367Y212017D01*
X183303Y212033D01*
X182736Y212088D01*
X182670Y212085D01*
X182626Y212089D01*
X167885Y212089D01*
X167825Y212085D01*
X167765Y212087D01*
X167541Y212065D01*
X167317Y212049D01*
X167258Y212037D01*
X167198Y212031D01*
X166979Y211977D01*
X166760Y211930D01*
X166703Y211910D01*
X166644Y211895D01*
X166436Y211812D01*
X166225Y211734D01*
X166171Y211706D01*
X166115Y211684D01*
X165920Y211572D01*
X165722Y211466D01*
X165673Y211430D01*
X165621Y211400D01*
X165530Y211325D01*
X165262Y211129D01*
X165101Y210972D01*
X165012Y210899D01*
X161896Y207784D01*
X155735Y205231D01*
X149065Y205231D01*
X142904Y207784D01*
X138188Y212500D01*
X137200Y214883D01*
X135635Y218661D01*
X135635Y238539D01*
X138188Y244700D01*
X142904Y249416D01*
X149065Y251969D01*
X155735Y251969D01*
X161896Y249416D01*
X165012Y246301D01*
X165058Y246261D01*
X165099Y246217D01*
X165273Y246075D01*
X165442Y245927D01*
X165493Y245894D01*
X165540Y245856D01*
X165732Y245739D01*
X165920Y245617D01*
X165975Y245592D01*
X166027Y245561D01*
X166233Y245472D01*
X166437Y245377D01*
X166495Y245360D01*
X166551Y245336D01*
X166767Y245278D01*
X166983Y245212D01*
X167042Y245203D01*
X167101Y245187D01*
X167218Y245176D01*
X167546Y245125D01*
X167771Y245122D01*
X167885Y245111D01*
X182721Y245111D01*
X182893Y245123D01*
X183066Y245125D01*
X183177Y245143D01*
X183289Y245151D01*
X183458Y245187D01*
X183629Y245213D01*
X183737Y245246D01*
X183847Y245270D01*
X184009Y245329D01*
X184174Y245379D01*
X184276Y245427D01*
X184382Y245466D01*
X184534Y245547D01*
X184691Y245620D01*
X184785Y245681D01*
X184884Y245734D01*
X185023Y245836D01*
X185168Y245930D01*
X185253Y246004D01*
X185344Y246071D01*
X185468Y246191D01*
X185598Y246305D01*
X185671Y246390D01*
X185752Y246468D01*
X185858Y246605D01*
X185971Y246735D01*
X186032Y246830D01*
X186101Y246919D01*
X186186Y247069D01*
X186280Y247214D01*
X186327Y247316D01*
X186383Y247414D01*
X186447Y247575D01*
X186519Y247731D01*
X186552Y247839D01*
X186593Y247943D01*
X186634Y248111D01*
X186684Y248277D01*
X186701Y248388D01*
X186727Y248497D01*
X186744Y248669D01*
X186770Y248840D01*
X186772Y248952D01*
X186783Y249064D01*
X186775Y249237D01*
X186777Y249410D01*
X186763Y249521D01*
X186758Y249634D01*
X186727Y249804D01*
X186705Y249975D01*
X186680Y250056D01*
X186654Y250194D01*
X186501Y250649D01*
X186501Y257355D01*
X186530Y257421D01*
X186574Y257583D01*
X186627Y257742D01*
X186648Y257858D01*
X186679Y257971D01*
X186690Y258085D01*
X186730Y258302D01*
X186742Y258597D01*
X186754Y258716D01*
X186753Y258733D01*
X186755Y258756D01*
X186755Y258826D01*
X186753Y258857D01*
X186754Y258871D01*
X186748Y258926D01*
X186739Y259055D01*
X186729Y259286D01*
X186719Y259340D01*
X186715Y259394D01*
X186667Y259620D01*
X186625Y259846D01*
X186608Y259898D01*
X186596Y259952D01*
X186517Y260168D01*
X186444Y260386D01*
X186419Y260435D01*
X186400Y260487D01*
X186292Y260690D01*
X186189Y260895D01*
X186158Y260941D01*
X186132Y260989D01*
X185996Y261174D01*
X185865Y261364D01*
X185828Y261405D01*
X185795Y261449D01*
X185635Y261614D01*
X185479Y261783D01*
X185436Y261818D01*
X185398Y261857D01*
X185216Y261998D01*
X185038Y262144D01*
X184990Y262172D01*
X184947Y262206D01*
X184747Y262320D01*
X184550Y262439D01*
X184500Y262461D01*
X184452Y262488D01*
X184238Y262573D01*
X184027Y262664D01*
X183974Y262678D01*
X183923Y262698D01*
X183698Y262753D01*
X183477Y262813D01*
X183433Y262817D01*
X183369Y262833D01*
X182802Y262888D01*
X182736Y262885D01*
X182692Y262889D01*
X142485Y262889D01*
X142425Y262885D01*
X142365Y262887D01*
X142141Y262865D01*
X141917Y262849D01*
X141858Y262837D01*
X141798Y262831D01*
X141579Y262777D01*
X141360Y262730D01*
X141303Y262710D01*
X141244Y262695D01*
X141036Y262612D01*
X140825Y262534D01*
X140771Y262506D01*
X140715Y262484D01*
X140520Y262372D01*
X140322Y262266D01*
X140273Y262230D01*
X140221Y262200D01*
X140130Y262125D01*
X139862Y261929D01*
X139701Y261772D01*
X139612Y261699D01*
X136496Y258584D01*
X130335Y256031D01*
X123650Y256031D01*
X123565Y256060D01*
X123405Y256123D01*
X123295Y256150D01*
X123189Y256186D01*
X123019Y256217D01*
X122851Y256257D01*
X122739Y256268D01*
X122628Y256289D01*
X122456Y256296D01*
X122284Y256313D01*
X122171Y256308D01*
X122059Y256313D01*
X121887Y256296D01*
X121714Y256288D01*
X121604Y256268D01*
X121492Y256257D01*
X121324Y256216D01*
X121154Y256184D01*
X121048Y256148D01*
X120938Y256122D01*
X120778Y256058D01*
X120614Y256003D01*
X120513Y255952D01*
X120409Y255911D01*
X120259Y255825D01*
X120105Y255748D01*
X120012Y255684D01*
X119914Y255628D01*
X119778Y255522D01*
X119636Y255424D01*
X119553Y255348D01*
X119464Y255279D01*
X119344Y255155D01*
X119217Y255038D01*
X119146Y254951D01*
X119067Y254870D01*
X118966Y254730D01*
X118856Y254597D01*
X118798Y254500D01*
X118731Y254409D01*
X118650Y254257D01*
X118561Y254109D01*
X118516Y254006D01*
X118463Y253907D01*
X118404Y253744D01*
X118336Y253586D01*
X118307Y253477D01*
X118268Y253371D01*
X118232Y253202D01*
X118187Y253036D01*
X118179Y252951D01*
X118150Y252814D01*
X118112Y252264D01*
X118111Y252251D01*
X118111Y239960D01*
X118119Y239842D01*
X118118Y239725D01*
X118139Y239559D01*
X118151Y239392D01*
X118175Y239276D01*
X118190Y239160D01*
X118224Y239050D01*
X118270Y238835D01*
X118365Y238575D01*
X118365Y218661D01*
X115812Y212500D01*
X111096Y207784D01*
X104935Y205231D01*
X98265Y205231D01*
X92104Y207784D01*
X87388Y212500D01*
X86400Y214883D01*
X84835Y218661D01*
X84835Y238559D01*
X84864Y238625D01*
X84908Y238787D01*
X84961Y238946D01*
X84982Y239062D01*
X85013Y239175D01*
X85024Y239289D01*
X85064Y239506D01*
X85078Y239844D01*
X85089Y239960D01*
X85089Y282684D01*
X87603Y288753D01*
X92247Y293397D01*
X98316Y295911D01*
X111515Y295911D01*
X111575Y295915D01*
X111635Y295913D01*
X111859Y295935D01*
X112083Y295951D01*
X112142Y295963D01*
X112202Y295969D01*
X112421Y296023D01*
X112640Y296070D01*
X112697Y296090D01*
X112756Y296105D01*
X112964Y296188D01*
X113175Y296266D01*
X113229Y296294D01*
X113285Y296316D01*
X113480Y296428D01*
X113678Y296534D01*
X113727Y296570D01*
X113779Y296600D01*
X113870Y296675D01*
X114138Y296871D01*
X114299Y297028D01*
X114388Y297101D01*
X117504Y300216D01*
X123665Y302769D01*
X130335Y302769D01*
X136496Y300216D01*
X139612Y297101D01*
X139658Y297061D01*
X139699Y297017D01*
X139873Y296875D01*
X140042Y296727D01*
X140093Y296694D01*
X140140Y296656D01*
X140332Y296539D01*
X140520Y296417D01*
X140575Y296392D01*
X140627Y296361D01*
X140833Y296272D01*
X141037Y296177D01*
X141095Y296160D01*
X141151Y296136D01*
X141367Y296078D01*
X141583Y296012D01*
X141642Y296003D01*
X141701Y295987D01*
X141818Y295976D01*
X142146Y295925D01*
X142371Y295922D01*
X142485Y295911D01*
X206550Y295911D01*
X212619Y293397D01*
X212847Y293169D01*
X213021Y293017D01*
X213191Y292862D01*
X213236Y292831D01*
X213277Y292795D01*
X213471Y292670D01*
X213660Y292539D01*
X213709Y292515D01*
X213756Y292485D01*
X213965Y292388D01*
X214170Y292286D01*
X214223Y292268D01*
X214272Y292245D01*
X214493Y292178D01*
X214711Y292106D01*
X214765Y292096D01*
X214818Y292080D01*
X215045Y292045D01*
X215272Y292003D01*
X215327Y292001D01*
X215381Y291993D01*
X215610Y291989D01*
X215841Y291980D01*
X215896Y291986D01*
X215950Y291985D01*
X216179Y292014D01*
X216408Y292037D01*
X216461Y292050D01*
X216516Y292057D01*
X216737Y292118D01*
X216961Y292172D01*
X217012Y292193D01*
X217065Y292207D01*
X217276Y292298D01*
X217490Y292384D01*
X217538Y292411D01*
X217588Y292433D01*
X217785Y292553D01*
X217985Y292668D01*
X218019Y292696D01*
X218075Y292730D01*
X218515Y293092D01*
X218559Y293140D01*
X218594Y293168D01*
X220040Y294615D01*
X220191Y294789D01*
X220347Y294958D01*
X220378Y295004D01*
X220414Y295045D01*
X220539Y295238D01*
X220669Y295428D01*
X220694Y295477D01*
X220724Y295523D01*
X220821Y295732D01*
X220923Y295938D01*
X220940Y295990D01*
X220963Y296040D01*
X221030Y296261D01*
X221103Y296479D01*
X221113Y296533D01*
X221129Y296586D01*
X221164Y296813D01*
X221205Y297039D01*
X221208Y297094D01*
X221216Y297149D01*
X221219Y297378D01*
X221228Y297609D01*
X221223Y297664D01*
X221224Y297718D01*
X221195Y297947D01*
X221172Y298176D01*
X221159Y298229D01*
X221152Y298284D01*
X221091Y298506D01*
X221036Y298729D01*
X221016Y298780D01*
X221001Y298833D01*
X220910Y299045D01*
X220824Y299258D01*
X220797Y299306D01*
X220775Y299356D01*
X220655Y299553D01*
X220541Y299752D01*
X220513Y299787D01*
X220479Y299843D01*
X220117Y300283D01*
X220068Y300327D01*
X220040Y300361D01*
X219665Y300737D01*
X228534Y300737D01*
X237403Y300737D01*
X237028Y300361D01*
X236877Y300187D01*
X236721Y300018D01*
X236690Y299973D01*
X236654Y299931D01*
X236529Y299738D01*
X236399Y299548D01*
X236374Y299499D01*
X236344Y299453D01*
X236247Y299244D01*
X236145Y299038D01*
X236128Y298986D01*
X236105Y298936D01*
X236038Y298715D01*
X235965Y298497D01*
X235955Y298443D01*
X235939Y298391D01*
X235904Y298164D01*
X235863Y297937D01*
X235860Y297882D01*
X235852Y297828D01*
X235849Y297598D01*
X235840Y297368D01*
X235845Y297313D01*
X235844Y297258D01*
X235873Y297030D01*
X235896Y296801D01*
X235909Y296747D01*
X235916Y296693D01*
X235977Y296471D01*
X236032Y296247D01*
X236052Y296196D01*
X236067Y296143D01*
X236158Y295932D01*
X236244Y295718D01*
X236271Y295670D01*
X236293Y295620D01*
X236412Y295424D01*
X236527Y295224D01*
X236555Y295190D01*
X236589Y295134D01*
X236951Y294694D01*
X237000Y294649D01*
X237028Y294615D01*
X238573Y293069D01*
X238748Y292918D01*
X238917Y292763D01*
X238962Y292732D01*
X239004Y292696D01*
X239197Y292570D01*
X239387Y292440D01*
X239436Y292416D01*
X239482Y292386D01*
X239691Y292289D01*
X239897Y292187D01*
X239949Y292169D01*
X239999Y292146D01*
X240219Y292079D01*
X240437Y292007D01*
X240491Y291997D01*
X240544Y291981D01*
X240771Y291946D01*
X240998Y291904D01*
X241053Y291902D01*
X241107Y291894D01*
X241337Y291890D01*
X241567Y291881D01*
X241622Y291887D01*
X241677Y291886D01*
X241905Y291915D01*
X242134Y291938D01*
X242187Y291951D01*
X242242Y291958D01*
X242465Y292019D01*
X242688Y292074D01*
X242738Y292094D01*
X242792Y292108D01*
X243003Y292200D01*
X243217Y292285D01*
X243264Y292312D01*
X243315Y292334D01*
X243511Y292454D01*
X243711Y292569D01*
X243745Y292597D01*
X243801Y292631D01*
X244241Y292993D01*
X244285Y293041D01*
X244320Y293070D01*
X244647Y293397D01*
X250716Y295911D01*
X258826Y295911D01*
X259055Y295927D01*
X259286Y295937D01*
X259340Y295947D01*
X259394Y295951D01*
X259620Y295999D01*
X259846Y296041D01*
X259898Y296058D01*
X259952Y296070D01*
X260168Y296149D01*
X260386Y296222D01*
X260435Y296247D01*
X260487Y296266D01*
X260690Y296374D01*
X260895Y296477D01*
X260941Y296508D01*
X260989Y296534D01*
X261175Y296670D01*
X261364Y296801D01*
X261405Y296838D01*
X261449Y296871D01*
X261614Y297031D01*
X261783Y297187D01*
X261818Y297230D01*
X261857Y297268D01*
X261998Y297450D01*
X262144Y297628D01*
X262172Y297676D01*
X262206Y297719D01*
X262320Y297919D01*
X262439Y298116D01*
X262461Y298166D01*
X262488Y298214D01*
X262573Y298428D01*
X262664Y298639D01*
X262678Y298692D01*
X262698Y298743D01*
X262753Y298968D01*
X262813Y299189D01*
X262817Y299233D01*
X262833Y299297D01*
X262888Y299864D01*
X262885Y299930D01*
X262889Y299974D01*
X262889Y342392D01*
X262873Y342621D01*
X262863Y342852D01*
X262853Y342906D01*
X262849Y342960D01*
X262801Y343186D01*
X262759Y343412D01*
X262742Y343464D01*
X262730Y343518D01*
X262651Y343734D01*
X262578Y343952D01*
X262553Y344001D01*
X262534Y344053D01*
X262426Y344256D01*
X262323Y344461D01*
X262292Y344507D01*
X262266Y344555D01*
X262130Y344741D01*
X261999Y344930D01*
X261962Y344971D01*
X261929Y345015D01*
X261769Y345180D01*
X261613Y345349D01*
X261570Y345384D01*
X261532Y345423D01*
X261350Y345564D01*
X261172Y345710D01*
X261124Y345738D01*
X261081Y345772D01*
X260881Y345886D01*
X260684Y346005D01*
X260634Y346027D01*
X260586Y346054D01*
X260372Y346139D01*
X260161Y346230D01*
X260108Y346244D01*
X260057Y346264D01*
X259832Y346319D01*
X259611Y346379D01*
X259567Y346383D01*
X259503Y346399D01*
X258936Y346454D01*
X258870Y346451D01*
X258826Y346455D01*
X258129Y346455D01*
X258129Y355600D01*
X258129Y364469D01*
X258439Y364160D01*
X258613Y364009D01*
X258782Y363853D01*
X258827Y363822D01*
X258869Y363786D01*
X259062Y363661D01*
X259252Y363531D01*
X259301Y363506D01*
X259347Y363476D01*
X259556Y363379D01*
X259762Y363277D01*
X259814Y363260D01*
X259864Y363237D01*
X260084Y363170D01*
X260303Y363097D01*
X260357Y363087D01*
X260409Y363071D01*
X260636Y363036D01*
X260863Y362995D01*
X260918Y362992D01*
X260972Y362984D01*
X261202Y362981D01*
X261432Y362972D01*
X261487Y362977D01*
X261542Y362976D01*
X261770Y363005D01*
X261999Y363028D01*
X262053Y363041D01*
X262107Y363048D01*
X262330Y363109D01*
X262553Y363164D01*
X262604Y363184D01*
X262657Y363199D01*
X262868Y363290D01*
X263082Y363376D01*
X263130Y363403D01*
X263180Y363425D01*
X263376Y363545D01*
X263576Y363659D01*
X263610Y363687D01*
X263666Y363721D01*
X264106Y364083D01*
X264151Y364132D01*
X264185Y364160D01*
X272456Y372431D01*
X286344Y372431D01*
X296165Y362610D01*
X296165Y348191D01*
X296160Y348175D01*
X296136Y348119D01*
X296077Y347903D01*
X296012Y347688D01*
X296003Y347628D01*
X295987Y347570D01*
X295976Y347452D01*
X295925Y347125D01*
X295922Y346900D01*
X295911Y346785D01*
X295911Y276116D01*
X293397Y270047D01*
X288753Y265403D01*
X288697Y265380D01*
X288572Y265318D01*
X288444Y265265D01*
X288318Y265191D01*
X288187Y265125D01*
X288072Y265046D01*
X287953Y264976D01*
X287838Y264885D01*
X287718Y264802D01*
X287615Y264708D01*
X287507Y264622D01*
X287406Y264515D01*
X287298Y264416D01*
X287210Y264309D01*
X287115Y264208D01*
X287030Y264089D01*
X286937Y263976D01*
X286865Y263857D01*
X286784Y263744D01*
X286717Y263614D01*
X286641Y263489D01*
X286586Y263362D01*
X286522Y263238D01*
X286473Y263100D01*
X286416Y262966D01*
X286379Y262832D01*
X286333Y262701D01*
X286304Y262557D01*
X286266Y262416D01*
X286248Y262278D01*
X286221Y262142D01*
X286213Y261996D01*
X286195Y261851D01*
X286197Y261712D01*
X286189Y261573D01*
X286201Y261427D01*
X286203Y261281D01*
X286224Y261143D01*
X286236Y261005D01*
X286268Y260863D01*
X286291Y260718D01*
X286331Y260585D01*
X286362Y260450D01*
X286414Y260313D01*
X286457Y260173D01*
X286516Y260047D01*
X286565Y259917D01*
X286618Y259827D01*
X286698Y259656D01*
X286914Y259323D01*
X286964Y259237D01*
X287287Y258793D01*
X287659Y258063D01*
X279466Y258063D01*
X279237Y258047D01*
X279007Y258037D01*
X278953Y258027D01*
X278898Y258023D01*
X278673Y257975D01*
X278447Y257933D01*
X278394Y257916D01*
X278341Y257904D01*
X278125Y257825D01*
X277906Y257752D01*
X277857Y257727D01*
X277806Y257709D01*
X277603Y257600D01*
X277397Y257497D01*
X277352Y257466D01*
X277303Y257440D01*
X277118Y257304D01*
X276928Y257173D01*
X276888Y257136D01*
X276843Y257103D01*
X276679Y256943D01*
X276509Y256787D01*
X276474Y256744D01*
X276435Y256706D01*
X276294Y256524D01*
X276148Y256346D01*
X276120Y256299D01*
X276086Y256255D01*
X275972Y256055D01*
X275853Y255859D01*
X275831Y255808D01*
X275804Y255760D01*
X275719Y255546D01*
X275629Y255335D01*
X275614Y255282D01*
X275594Y255231D01*
X275540Y255006D01*
X275480Y254785D01*
X275475Y254741D01*
X275460Y254677D01*
X275405Y254110D01*
X275407Y254044D01*
X275403Y254000D01*
X275419Y253770D01*
X275429Y253540D01*
X275439Y253486D01*
X275443Y253431D01*
X275491Y253206D01*
X275533Y252980D01*
X275551Y252928D01*
X275562Y252874D01*
X275641Y252658D01*
X275714Y252440D01*
X275739Y252391D01*
X275758Y252339D01*
X275867Y252136D01*
X275970Y251930D01*
X276001Y251885D01*
X276027Y251837D01*
X276162Y251651D01*
X276293Y251462D01*
X276331Y251421D01*
X276363Y251377D01*
X276523Y251212D01*
X276680Y251043D01*
X276722Y251008D01*
X276761Y250969D01*
X276942Y250828D01*
X277121Y250682D01*
X277168Y250653D01*
X277211Y250620D01*
X277411Y250506D01*
X277608Y250386D01*
X277658Y250365D01*
X277706Y250338D01*
X277921Y250252D01*
X278132Y250162D01*
X278184Y250148D01*
X278236Y250127D01*
X278460Y250073D01*
X278682Y250013D01*
X278726Y250009D01*
X278790Y249993D01*
X279357Y249938D01*
X279422Y249941D01*
X279466Y249937D01*
X287799Y249937D01*
X287784Y249877D01*
X287782Y249864D01*
X287779Y249851D01*
X287753Y249578D01*
X287725Y249310D01*
X287725Y249297D01*
X287724Y249284D01*
X287736Y249010D01*
X287746Y248741D01*
X287748Y248728D01*
X287748Y248714D01*
X287798Y248447D01*
X287846Y248180D01*
X287850Y248167D01*
X287852Y248154D01*
X287939Y247897D01*
X288024Y247638D01*
X288030Y247627D01*
X288034Y247614D01*
X288156Y247370D01*
X288276Y247127D01*
X288283Y247116D01*
X288289Y247105D01*
X288444Y246880D01*
X288596Y246656D01*
X288605Y246647D01*
X288613Y246636D01*
X288798Y246434D01*
X288980Y246235D01*
X288990Y246227D01*
X288999Y246217D01*
X289211Y246044D01*
X289419Y245871D01*
X289430Y245864D01*
X289440Y245856D01*
X289673Y245715D01*
X289904Y245573D01*
X289916Y245567D01*
X289927Y245561D01*
X290177Y245453D01*
X290426Y245345D01*
X290439Y245341D01*
X290451Y245336D01*
X290714Y245265D01*
X290975Y245192D01*
X290988Y245191D01*
X291001Y245187D01*
X291053Y245182D01*
X291540Y245118D01*
X291694Y245120D01*
X291786Y245111D01*
X309930Y245111D01*
X310102Y245123D01*
X310275Y245125D01*
X310386Y245143D01*
X310498Y245151D01*
X310667Y245187D01*
X310838Y245213D01*
X310946Y245246D01*
X311055Y245270D01*
X311218Y245329D01*
X311383Y245379D01*
X311485Y245427D01*
X311591Y245466D01*
X311743Y245547D01*
X311899Y245620D01*
X311994Y245681D01*
X312093Y245734D01*
X312232Y245836D01*
X312377Y245930D01*
X312462Y246004D01*
X312553Y246071D01*
X312677Y246191D01*
X312807Y246305D01*
X312881Y246390D01*
X312961Y246468D01*
X313067Y246605D01*
X313180Y246735D01*
X313241Y246830D01*
X313310Y246919D01*
X313395Y247069D01*
X313489Y247214D01*
X313536Y247316D01*
X313592Y247414D01*
X313656Y247575D01*
X313728Y247731D01*
X313761Y247839D01*
X313802Y247943D01*
X313843Y248112D01*
X313893Y248277D01*
X313910Y248388D01*
X313936Y248497D01*
X313953Y248669D01*
X313979Y248840D01*
X313981Y248952D01*
X313992Y249064D01*
X313984Y249237D01*
X313986Y249410D01*
X313972Y249521D01*
X313967Y249634D01*
X313936Y249804D01*
X313913Y249975D01*
X313889Y250056D01*
X313863Y250194D01*
X313689Y250712D01*
X313689Y295919D01*
X313685Y295979D01*
X313687Y296039D01*
X313665Y296263D01*
X313649Y296487D01*
X313637Y296546D01*
X313631Y296606D01*
X313577Y296825D01*
X313530Y297044D01*
X313510Y297101D01*
X313495Y297160D01*
X313435Y297309D01*
X313435Y312275D01*
X313440Y312291D01*
X313464Y312347D01*
X313522Y312563D01*
X313588Y312779D01*
X313597Y312838D01*
X313613Y312897D01*
X313624Y313014D01*
X313675Y313342D01*
X313678Y313567D01*
X313689Y313681D01*
X313689Y358884D01*
X316203Y364953D01*
X316497Y365247D01*
X316649Y365421D01*
X316804Y365591D01*
X316835Y365636D01*
X316871Y365677D01*
X316997Y365871D01*
X317127Y366060D01*
X317151Y366109D01*
X317181Y366156D01*
X317278Y366364D01*
X317380Y366570D01*
X317398Y366623D01*
X317421Y366672D01*
X317488Y366893D01*
X317560Y367111D01*
X317570Y367165D01*
X317586Y367218D01*
X317621Y367445D01*
X317663Y367672D01*
X317665Y367727D01*
X317673Y367781D01*
X317677Y368010D01*
X317686Y368241D01*
X317680Y368296D01*
X317681Y368350D01*
X317652Y368579D01*
X317629Y368808D01*
X317616Y368861D01*
X317609Y368916D01*
X317548Y369137D01*
X317494Y369361D01*
X317473Y369412D01*
X317459Y369465D01*
X317368Y369676D01*
X317282Y369890D01*
X317255Y369938D01*
X317233Y369988D01*
X317113Y370185D01*
X316998Y370385D01*
X316970Y370419D01*
X316936Y370475D01*
X316574Y370915D01*
X316526Y370959D01*
X316498Y370994D01*
X313435Y374056D01*
X313435Y387944D01*
X323256Y397765D01*
X337675Y397765D01*
X337691Y397760D01*
X337747Y397736D01*
X337963Y397678D01*
X338179Y397612D01*
X338238Y397603D01*
X338297Y397587D01*
X338414Y397576D01*
X338742Y397525D01*
X338967Y397522D01*
X339081Y397511D01*
X511284Y397511D01*
X517353Y394997D01*
X521997Y390353D01*
X524511Y384284D01*
X524511Y364481D01*
X524515Y364421D01*
X524513Y364361D01*
X524535Y364137D01*
X524551Y363913D01*
X524563Y363854D01*
X524569Y363794D01*
X524623Y363575D01*
X524670Y363356D01*
X524690Y363299D01*
X524705Y363240D01*
X524765Y363091D01*
X524765Y348656D01*
X514944Y338835D01*
X501056Y338835D01*
X491235Y348656D01*
X491235Y360426D01*
X491219Y360655D01*
X491209Y360886D01*
X491199Y360940D01*
X491195Y360994D01*
X491147Y361220D01*
X491105Y361446D01*
X491088Y361498D01*
X491076Y361552D01*
X490997Y361768D01*
X490924Y361986D01*
X490899Y362035D01*
X490880Y362087D01*
X490772Y362290D01*
X490669Y362495D01*
X490638Y362541D01*
X490612Y362589D01*
X490476Y362775D01*
X490345Y362964D01*
X490308Y363005D01*
X490275Y363049D01*
X490115Y363214D01*
X489959Y363383D01*
X489916Y363418D01*
X489878Y363457D01*
X489696Y363598D01*
X489518Y363744D01*
X489470Y363772D01*
X489427Y363806D01*
X489227Y363920D01*
X489030Y364039D01*
X488980Y364061D01*
X488932Y364088D01*
X488718Y364173D01*
X488507Y364264D01*
X488454Y364278D01*
X488403Y364298D01*
X488178Y364353D01*
X487957Y364413D01*
X487913Y364417D01*
X487849Y364433D01*
X487282Y364488D01*
X487216Y364485D01*
X487172Y364489D01*
X427228Y364489D01*
X426999Y364473D01*
X426768Y364463D01*
X426714Y364453D01*
X426660Y364449D01*
X426434Y364401D01*
X426208Y364359D01*
X426156Y364342D01*
X426102Y364330D01*
X425886Y364251D01*
X425668Y364178D01*
X425619Y364153D01*
X425567Y364134D01*
X425364Y364026D01*
X425159Y363923D01*
X425113Y363892D01*
X425065Y363866D01*
X424879Y363730D01*
X424690Y363599D01*
X424649Y363562D01*
X424605Y363529D01*
X424440Y363369D01*
X424271Y363213D01*
X424236Y363170D01*
X424197Y363132D01*
X424056Y362950D01*
X423910Y362772D01*
X423882Y362724D01*
X423848Y362681D01*
X423734Y362481D01*
X423615Y362284D01*
X423593Y362234D01*
X423566Y362186D01*
X423481Y361972D01*
X423390Y361761D01*
X423376Y361708D01*
X423356Y361657D01*
X423301Y361432D01*
X423241Y361211D01*
X423237Y361167D01*
X423221Y361103D01*
X423166Y360536D01*
X423169Y360470D01*
X423165Y360426D01*
X423165Y350708D01*
X423181Y350479D01*
X423191Y350248D01*
X423201Y350194D01*
X423205Y350140D01*
X423253Y349914D01*
X423295Y349688D01*
X423312Y349636D01*
X423324Y349582D01*
X423403Y349366D01*
X423476Y349148D01*
X423501Y349099D01*
X423520Y349047D01*
X423628Y348844D01*
X423731Y348639D01*
X423762Y348593D01*
X423788Y348545D01*
X423924Y348359D01*
X424055Y348170D01*
X424092Y348129D01*
X424125Y348085D01*
X424285Y347920D01*
X424441Y347751D01*
X424484Y347716D01*
X424522Y347677D01*
X424704Y347536D01*
X424882Y347390D01*
X424930Y347362D01*
X424973Y347328D01*
X425173Y347214D01*
X425370Y347095D01*
X425420Y347073D01*
X425468Y347046D01*
X425682Y346961D01*
X425893Y346870D01*
X425946Y346856D01*
X425997Y346836D01*
X426222Y346781D01*
X426443Y346721D01*
X426487Y346717D01*
X426551Y346701D01*
X427118Y346646D01*
X427184Y346649D01*
X427228Y346645D01*
X448319Y346645D01*
X448379Y346649D01*
X448439Y346647D01*
X448663Y346669D01*
X448887Y346685D01*
X448946Y346697D01*
X449006Y346703D01*
X449225Y346757D01*
X449444Y346804D01*
X449501Y346824D01*
X449560Y346839D01*
X449709Y346899D01*
X464144Y346899D01*
X472415Y338628D01*
X472589Y338477D01*
X472758Y338321D01*
X472804Y338290D01*
X472845Y338254D01*
X473039Y338129D01*
X473228Y337999D01*
X473277Y337974D01*
X473323Y337944D01*
X473532Y337847D01*
X473738Y337745D01*
X473790Y337728D01*
X473840Y337705D01*
X474061Y337638D01*
X474279Y337565D01*
X474333Y337555D01*
X474385Y337539D01*
X474613Y337504D01*
X474839Y337463D01*
X474894Y337460D01*
X474949Y337452D01*
X475178Y337449D01*
X475409Y337440D01*
X475463Y337445D01*
X475518Y337444D01*
X475747Y337473D01*
X475976Y337496D01*
X476029Y337509D01*
X476083Y337516D01*
X476306Y337577D01*
X476529Y337632D01*
X476580Y337652D01*
X476633Y337667D01*
X476844Y337758D01*
X477058Y337844D01*
X477106Y337871D01*
X477156Y337893D01*
X477353Y338013D01*
X477552Y338127D01*
X477587Y338155D01*
X477643Y338189D01*
X478083Y338551D01*
X478127Y338600D01*
X478161Y338628D01*
X478537Y339003D01*
X478537Y330134D01*
X478553Y329905D01*
X478563Y329675D01*
X478573Y329621D01*
X478577Y329566D01*
X478625Y329341D01*
X478667Y329115D01*
X478684Y329062D01*
X478696Y329009D01*
X478775Y328793D01*
X478848Y328574D01*
X478873Y328525D01*
X478891Y328474D01*
X479000Y328271D01*
X479103Y328065D01*
X479134Y328020D01*
X479160Y327971D01*
X479296Y327786D01*
X479427Y327596D01*
X479464Y327556D01*
X479497Y327511D01*
X479657Y327347D01*
X479813Y327177D01*
X479814Y327177D01*
X479856Y327142D01*
X479894Y327103D01*
X479895Y327103D01*
X480076Y326962D01*
X480255Y326816D01*
X480302Y326787D01*
X480345Y326754D01*
X480545Y326640D01*
X480742Y326520D01*
X480792Y326499D01*
X480840Y326472D01*
X481055Y326386D01*
X481266Y326296D01*
X481318Y326282D01*
X481370Y326261D01*
X481594Y326207D01*
X481816Y326147D01*
X481860Y326143D01*
X481924Y326127D01*
X482491Y326072D01*
X482556Y326075D01*
X482600Y326071D01*
X491745Y326071D01*
X491745Y325374D01*
X491761Y325145D01*
X491771Y324914D01*
X491781Y324860D01*
X491785Y324806D01*
X491833Y324580D01*
X491875Y324354D01*
X491892Y324302D01*
X491904Y324248D01*
X491983Y324032D01*
X492056Y323814D01*
X492081Y323765D01*
X492100Y323713D01*
X492208Y323510D01*
X492311Y323305D01*
X492342Y323259D01*
X492368Y323211D01*
X492504Y323025D01*
X492635Y322836D01*
X492672Y322795D01*
X492705Y322751D01*
X492865Y322586D01*
X493021Y322417D01*
X493064Y322382D01*
X493102Y322343D01*
X493284Y322202D01*
X493462Y322056D01*
X493510Y322028D01*
X493553Y321994D01*
X493753Y321880D01*
X493950Y321761D01*
X494000Y321739D01*
X494048Y321712D01*
X494262Y321627D01*
X494473Y321536D01*
X494526Y321522D01*
X494577Y321502D01*
X494802Y321447D01*
X495023Y321387D01*
X495067Y321383D01*
X495131Y321367D01*
X495698Y321312D01*
X495764Y321315D01*
X495808Y321311D01*
X557004Y321311D01*
X563073Y318797D01*
X567717Y314153D01*
X570231Y308084D01*
X570231Y301244D01*
X570247Y301015D01*
X570257Y300784D01*
X570267Y300730D01*
X570271Y300676D01*
X570319Y300450D01*
X570361Y300224D01*
X570378Y300172D01*
X570390Y300118D01*
X570469Y299902D01*
X570542Y299684D01*
X570567Y299635D01*
X570586Y299583D01*
X570694Y299380D01*
X570797Y299175D01*
X570828Y299129D01*
X570854Y299081D01*
X570990Y298895D01*
X571121Y298706D01*
X571158Y298665D01*
X571191Y298621D01*
X571351Y298456D01*
X571507Y298287D01*
X571550Y298252D01*
X571588Y298213D01*
X571770Y298072D01*
X571948Y297926D01*
X571996Y297898D01*
X572039Y297864D01*
X572239Y297750D01*
X572436Y297631D01*
X572486Y297609D01*
X572534Y297582D01*
X572748Y297497D01*
X572959Y297406D01*
X573012Y297392D01*
X573063Y297372D01*
X573288Y297317D01*
X573509Y297257D01*
X573553Y297253D01*
X573617Y297237D01*
X574184Y297182D01*
X574250Y297185D01*
X574294Y297181D01*
X595357Y297181D01*
X601892Y294474D01*
X606894Y289472D01*
X609601Y282937D01*
X609601Y275863D01*
X606870Y269271D01*
X606832Y269230D01*
X606801Y269185D01*
X606765Y269143D01*
X606640Y268950D01*
X606510Y268760D01*
X606485Y268711D01*
X606456Y268665D01*
X606359Y268456D01*
X606256Y268250D01*
X606239Y268198D01*
X606216Y268148D01*
X606149Y267928D01*
X606076Y267709D01*
X606066Y267655D01*
X606050Y267603D01*
X606015Y267375D01*
X605974Y267149D01*
X605971Y267094D01*
X605963Y267040D01*
X605960Y266809D01*
X605951Y266579D01*
X605956Y266525D01*
X605955Y266470D01*
X605985Y266241D01*
X606007Y266013D01*
X606020Y265959D01*
X606027Y265905D01*
X606088Y265682D01*
X606143Y265459D01*
X606163Y265408D01*
X606178Y265355D01*
X606269Y265144D01*
X606355Y264930D01*
X606382Y264882D01*
X606404Y264832D01*
X606523Y264636D01*
X606638Y264436D01*
X606666Y264402D01*
X606700Y264346D01*
X606862Y264150D01*
X609601Y257537D01*
X609601Y250463D01*
X606870Y243871D01*
X606832Y243830D01*
X606801Y243785D01*
X606765Y243743D01*
X606640Y243550D01*
X606510Y243360D01*
X606485Y243311D01*
X606456Y243265D01*
X606359Y243056D01*
X606256Y242850D01*
X606239Y242798D01*
X606216Y242748D01*
X606149Y242528D01*
X606076Y242309D01*
X606066Y242255D01*
X606050Y242203D01*
X606015Y241975D01*
X605974Y241749D01*
X605971Y241694D01*
X605963Y241640D01*
X605960Y241409D01*
X605951Y241179D01*
X605956Y241125D01*
X605955Y241070D01*
X605985Y240841D01*
X606007Y240613D01*
X606020Y240559D01*
X606027Y240505D01*
X606088Y240282D01*
X606143Y240059D01*
X606163Y240008D01*
X606178Y239955D01*
X606269Y239744D01*
X606355Y239530D01*
X606382Y239482D01*
X606404Y239432D01*
X606523Y239236D01*
X606638Y239036D01*
X606666Y239002D01*
X606700Y238946D01*
X606862Y238750D01*
X609601Y232137D01*
X609601Y225063D01*
X606870Y218471D01*
X606832Y218430D01*
X606801Y218385D01*
X606765Y218343D01*
X606640Y218150D01*
X606510Y217960D01*
X606485Y217911D01*
X606456Y217865D01*
X606359Y217656D01*
X606256Y217450D01*
X606239Y217398D01*
X606216Y217348D01*
X606149Y217128D01*
X606076Y216909D01*
X606066Y216855D01*
X606050Y216803D01*
X606015Y216575D01*
X605974Y216349D01*
X605971Y216294D01*
X605963Y216240D01*
X605960Y216009D01*
X605951Y215779D01*
X605956Y215725D01*
X605955Y215670D01*
X605985Y215441D01*
X606007Y215213D01*
X606020Y215159D01*
X606027Y215105D01*
X606088Y214882D01*
X606143Y214659D01*
X606163Y214608D01*
X606178Y214555D01*
X606269Y214344D01*
X606355Y214130D01*
X606382Y214082D01*
X606404Y214032D01*
X606523Y213836D01*
X606638Y213636D01*
X606666Y213602D01*
X606700Y213546D01*
X606862Y213350D01*
X609601Y206737D01*
X609601Y199663D01*
X606894Y193128D01*
X601376Y187610D01*
X601270Y187488D01*
X601156Y187372D01*
X601083Y187273D01*
X601002Y187180D01*
X600914Y187044D01*
X600818Y186913D01*
X600759Y186805D01*
X600693Y186702D01*
X600624Y186555D01*
X600547Y186412D01*
X600505Y186297D01*
X600453Y186185D01*
X600406Y186030D01*
X600349Y185878D01*
X600323Y185757D01*
X600288Y185640D01*
X600263Y185480D01*
X600228Y185321D01*
X600219Y185198D01*
X600200Y185077D01*
X600198Y184915D01*
X600186Y184753D01*
X600194Y184630D01*
X600193Y184507D01*
X600213Y184346D01*
X600224Y184184D01*
X600249Y184064D01*
X600265Y183942D01*
X600307Y183785D01*
X600341Y183626D01*
X600374Y183541D01*
X600415Y183392D01*
X600610Y182941D01*
X600629Y182893D01*
X601153Y181863D01*
X584200Y181863D01*
X567132Y181863D01*
X567143Y181967D01*
X567171Y182236D01*
X567170Y182249D01*
X567171Y182262D01*
X567160Y182536D01*
X567150Y182805D01*
X567147Y182818D01*
X567147Y182832D01*
X567097Y183099D01*
X567049Y183366D01*
X567045Y183379D01*
X567043Y183392D01*
X566956Y183649D01*
X566871Y183908D01*
X566866Y183919D01*
X566861Y183932D01*
X566739Y184177D01*
X566620Y184419D01*
X566612Y184430D01*
X566606Y184441D01*
X566451Y184667D01*
X566299Y184890D01*
X566290Y184899D01*
X566282Y184910D01*
X566097Y185111D01*
X565915Y185311D01*
X565905Y185319D01*
X565896Y185329D01*
X565684Y185503D01*
X565477Y185675D01*
X565465Y185681D01*
X565455Y185690D01*
X565221Y185832D01*
X564991Y185973D01*
X564979Y185978D01*
X564968Y185985D01*
X564719Y186092D01*
X564469Y186201D01*
X564456Y186205D01*
X564444Y186210D01*
X564184Y186280D01*
X563920Y186354D01*
X563907Y186355D01*
X563894Y186359D01*
X563842Y186364D01*
X563355Y186428D01*
X563201Y186426D01*
X563110Y186435D01*
X554228Y186435D01*
X553999Y186419D01*
X553768Y186409D01*
X553714Y186399D01*
X553660Y186395D01*
X553434Y186347D01*
X553208Y186305D01*
X553156Y186288D01*
X553102Y186276D01*
X552886Y186197D01*
X552668Y186124D01*
X552619Y186099D01*
X552567Y186080D01*
X552364Y185972D01*
X552159Y185869D01*
X552113Y185838D01*
X552065Y185812D01*
X551879Y185676D01*
X551690Y185545D01*
X551649Y185508D01*
X551605Y185475D01*
X551440Y185315D01*
X551271Y185159D01*
X551236Y185116D01*
X551197Y185078D01*
X551056Y184896D01*
X550910Y184718D01*
X550882Y184670D01*
X550848Y184627D01*
X550734Y184427D01*
X550615Y184230D01*
X550593Y184180D01*
X550566Y184132D01*
X550481Y183918D01*
X550390Y183707D01*
X550376Y183654D01*
X550356Y183603D01*
X550301Y183378D01*
X550241Y183157D01*
X550237Y183113D01*
X550221Y183049D01*
X550166Y182482D01*
X550169Y182416D01*
X550165Y182372D01*
X550165Y170856D01*
X540344Y161035D01*
X528828Y161035D01*
X528599Y161019D01*
X528368Y161009D01*
X528314Y160999D01*
X528260Y160995D01*
X528034Y160947D01*
X527808Y160905D01*
X527756Y160888D01*
X527702Y160876D01*
X527486Y160797D01*
X527268Y160724D01*
X527219Y160699D01*
X527167Y160680D01*
X526964Y160572D01*
X526759Y160469D01*
X526713Y160438D01*
X526665Y160412D01*
X526479Y160276D01*
X526290Y160145D01*
X526249Y160108D01*
X526205Y160075D01*
X526040Y159915D01*
X525871Y159759D01*
X525836Y159716D01*
X525797Y159678D01*
X525656Y159496D01*
X525510Y159318D01*
X525482Y159270D01*
X525448Y159227D01*
X525334Y159027D01*
X525215Y158830D01*
X525193Y158780D01*
X525166Y158732D01*
X525081Y158518D01*
X524990Y158307D01*
X524976Y158254D01*
X524956Y158203D01*
X524901Y157978D01*
X524841Y157757D01*
X524837Y157713D01*
X524821Y157649D01*
X524766Y157082D01*
X524769Y157016D01*
X524765Y156972D01*
X524765Y145456D01*
X514944Y135635D01*
X503174Y135635D01*
X502945Y135619D01*
X502714Y135609D01*
X502660Y135599D01*
X502606Y135595D01*
X502380Y135547D01*
X502154Y135505D01*
X502102Y135488D01*
X502048Y135476D01*
X501832Y135397D01*
X501614Y135324D01*
X501565Y135299D01*
X501513Y135280D01*
X501310Y135172D01*
X501105Y135069D01*
X501059Y135038D01*
X501011Y135012D01*
X500825Y134876D01*
X500636Y134745D01*
X500595Y134708D01*
X500551Y134675D01*
X500386Y134515D01*
X500217Y134359D01*
X500182Y134316D01*
X500143Y134278D01*
X500002Y134096D01*
X499856Y133918D01*
X499828Y133870D01*
X499794Y133827D01*
X499680Y133627D01*
X499561Y133430D01*
X499539Y133380D01*
X499512Y133332D01*
X499427Y133118D01*
X499336Y132907D01*
X499322Y132854D01*
X499302Y132803D01*
X499247Y132578D01*
X499187Y132357D01*
X499183Y132313D01*
X499167Y132249D01*
X499112Y131682D01*
X499115Y131616D01*
X499111Y131572D01*
X499111Y97028D01*
X499127Y96799D01*
X499137Y96568D01*
X499147Y96514D01*
X499151Y96460D01*
X499199Y96234D01*
X499241Y96008D01*
X499258Y95956D01*
X499270Y95902D01*
X499349Y95686D01*
X499422Y95468D01*
X499447Y95419D01*
X499466Y95367D01*
X499574Y95164D01*
X499677Y94959D01*
X499708Y94913D01*
X499734Y94865D01*
X499870Y94679D01*
X500001Y94490D01*
X500038Y94449D01*
X500071Y94405D01*
X500231Y94240D01*
X500387Y94071D01*
X500430Y94036D01*
X500468Y93997D01*
X500650Y93856D01*
X500828Y93710D01*
X500876Y93682D01*
X500919Y93648D01*
X501119Y93534D01*
X501316Y93415D01*
X501366Y93393D01*
X501414Y93366D01*
X501628Y93281D01*
X501839Y93190D01*
X501892Y93176D01*
X501943Y93156D01*
X502168Y93101D01*
X502389Y93041D01*
X502433Y93037D01*
X502497Y93021D01*
X503064Y92966D01*
X503130Y92969D01*
X503174Y92965D01*
X514944Y92965D01*
X524765Y83144D01*
X524765Y69256D01*
X514944Y59435D01*
X500525Y59435D01*
X500509Y59440D01*
X500453Y59464D01*
X500237Y59522D01*
X500021Y59588D01*
X499962Y59597D01*
X499903Y59613D01*
X499786Y59624D01*
X499458Y59675D01*
X499233Y59678D01*
X499119Y59689D01*
X491481Y59689D01*
X491421Y59685D01*
X491361Y59687D01*
X491137Y59665D01*
X490913Y59649D01*
X490854Y59637D01*
X490794Y59631D01*
X490575Y59577D01*
X490356Y59530D01*
X490299Y59510D01*
X490240Y59495D01*
X490091Y59435D01*
X475656Y59435D01*
X465835Y69256D01*
X465835Y83675D01*
X465840Y83691D01*
X465864Y83747D01*
X465922Y83963D01*
X465988Y84179D01*
X465997Y84238D01*
X466013Y84297D01*
X466024Y84414D01*
X466075Y84742D01*
X466078Y84967D01*
X466089Y85081D01*
X466089Y158898D01*
X466088Y158911D01*
X466089Y158924D01*
X466068Y159193D01*
X466049Y159466D01*
X466047Y159479D01*
X466046Y159492D01*
X465987Y159756D01*
X465930Y160023D01*
X465926Y160036D01*
X465923Y160049D01*
X465828Y160302D01*
X465734Y160559D01*
X465728Y160570D01*
X465724Y160582D01*
X465595Y160820D01*
X465466Y161061D01*
X465458Y161072D01*
X465452Y161083D01*
X465289Y161302D01*
X465129Y161521D01*
X465120Y161530D01*
X465112Y161541D01*
X464922Y161734D01*
X464732Y161929D01*
X464721Y161937D01*
X464712Y161947D01*
X464495Y162112D01*
X464281Y162278D01*
X464270Y162284D01*
X464259Y162292D01*
X464022Y162426D01*
X463786Y162560D01*
X463774Y162565D01*
X463762Y162571D01*
X463512Y162669D01*
X463257Y162770D01*
X463244Y162773D01*
X463231Y162778D01*
X462970Y162840D01*
X462703Y162904D01*
X462690Y162906D01*
X462677Y162909D01*
X462408Y162933D01*
X462136Y162960D01*
X462123Y162959D01*
X462109Y162960D01*
X461838Y162947D01*
X461566Y162935D01*
X461553Y162933D01*
X461540Y162932D01*
X461489Y162921D01*
X461197Y162867D01*
X461197Y177800D01*
X461181Y178029D01*
X461171Y178259D01*
X461161Y178313D01*
X461157Y178368D01*
X461109Y178593D01*
X461067Y178819D01*
X461050Y178872D01*
X461038Y178925D01*
X460959Y179141D01*
X460886Y179360D01*
X460861Y179409D01*
X460843Y179460D01*
X460734Y179663D01*
X460631Y179869D01*
X460600Y179914D01*
X460574Y179963D01*
X460438Y180148D01*
X460307Y180338D01*
X460270Y180378D01*
X460237Y180423D01*
X460077Y180587D01*
X459921Y180757D01*
X459878Y180792D01*
X459840Y180831D01*
X459658Y180972D01*
X459480Y181118D01*
X459433Y181146D01*
X459389Y181180D01*
X459189Y181294D01*
X458993Y181413D01*
X458942Y181435D01*
X458894Y181462D01*
X458680Y181547D01*
X458469Y181637D01*
X458416Y181652D01*
X458365Y181672D01*
X458140Y181726D01*
X457919Y181786D01*
X457875Y181791D01*
X457811Y181806D01*
X457244Y181861D01*
X457178Y181859D01*
X457134Y181863D01*
X456904Y181847D01*
X456674Y181837D01*
X456620Y181827D01*
X456565Y181823D01*
X456340Y181775D01*
X456114Y181733D01*
X456062Y181715D01*
X456008Y181704D01*
X455792Y181625D01*
X455574Y181552D01*
X455525Y181527D01*
X455473Y181508D01*
X455270Y181399D01*
X455064Y181296D01*
X455019Y181265D01*
X454971Y181239D01*
X454785Y181104D01*
X454596Y180973D01*
X454555Y180935D01*
X454511Y180903D01*
X454346Y180743D01*
X454177Y180586D01*
X454142Y180544D01*
X454103Y180505D01*
X453962Y180324D01*
X453816Y180145D01*
X453787Y180098D01*
X453754Y180055D01*
X453640Y179855D01*
X453520Y179658D01*
X453499Y179608D01*
X453472Y179560D01*
X453386Y179345D01*
X453296Y179134D01*
X453282Y179081D01*
X453261Y179030D01*
X453207Y178806D01*
X453147Y178584D01*
X453143Y178540D01*
X453127Y178476D01*
X453072Y177909D01*
X453075Y177844D01*
X453071Y177800D01*
X453071Y163003D01*
X452341Y163375D01*
X452129Y163529D01*
X452011Y163602D01*
X451899Y163684D01*
X451770Y163753D01*
X451646Y163831D01*
X451519Y163887D01*
X451396Y163952D01*
X451259Y164002D01*
X451125Y164062D01*
X450991Y164100D01*
X450861Y164147D01*
X450718Y164178D01*
X450577Y164218D01*
X450440Y164237D01*
X450304Y164266D01*
X450157Y164276D01*
X450013Y164296D01*
X449874Y164295D01*
X449735Y164305D01*
X449589Y164294D01*
X449443Y164294D01*
X449305Y164274D01*
X449167Y164264D01*
X449024Y164233D01*
X448879Y164213D01*
X448745Y164174D01*
X448610Y164144D01*
X448472Y164094D01*
X448332Y164053D01*
X448205Y163996D01*
X448075Y163948D01*
X447946Y163879D01*
X447813Y163818D01*
X447696Y163744D01*
X447573Y163678D01*
X447455Y163592D01*
X447331Y163514D01*
X447225Y163423D01*
X447113Y163341D01*
X447009Y163239D01*
X446897Y163144D01*
X446805Y163040D01*
X446706Y162943D01*
X446616Y162828D01*
X446519Y162718D01*
X446442Y162602D01*
X446358Y162492D01*
X446308Y162400D01*
X446204Y162243D01*
X446033Y161884D01*
X445987Y161797D01*
X445946Y161700D01*
X441230Y156984D01*
X435069Y154431D01*
X428399Y154431D01*
X422238Y156984D01*
X417522Y161700D01*
X417481Y161797D01*
X417419Y161921D01*
X417366Y162049D01*
X417292Y162176D01*
X417227Y162306D01*
X417148Y162421D01*
X417078Y162541D01*
X416987Y162655D01*
X416904Y162776D01*
X416810Y162878D01*
X416723Y162987D01*
X416617Y163087D01*
X416518Y163195D01*
X416411Y163283D01*
X416310Y163379D01*
X416191Y163464D01*
X416077Y163556D01*
X415959Y163629D01*
X415846Y163709D01*
X415716Y163777D01*
X415591Y163853D01*
X415463Y163907D01*
X415340Y163971D01*
X415202Y164020D01*
X415067Y164078D01*
X414933Y164114D01*
X414802Y164160D01*
X414659Y164189D01*
X414517Y164227D01*
X414380Y164245D01*
X414243Y164272D01*
X414097Y164280D01*
X413952Y164299D01*
X413813Y164297D01*
X413675Y164305D01*
X413529Y164292D01*
X413382Y164290D01*
X413245Y164269D01*
X413107Y164257D01*
X412964Y164225D01*
X412819Y164202D01*
X412687Y164162D01*
X412551Y164131D01*
X412414Y164079D01*
X412274Y164036D01*
X412149Y163978D01*
X412019Y163928D01*
X411928Y163875D01*
X411758Y163796D01*
X411425Y163579D01*
X411339Y163529D01*
X411127Y163375D01*
X410397Y163003D01*
X410397Y177800D01*
X410381Y178029D01*
X410371Y178259D01*
X410361Y178313D01*
X410357Y178368D01*
X410309Y178593D01*
X410267Y178819D01*
X410250Y178872D01*
X410238Y178925D01*
X410159Y179141D01*
X410086Y179360D01*
X410061Y179409D01*
X410043Y179460D01*
X409934Y179663D01*
X409831Y179869D01*
X409800Y179914D01*
X409774Y179963D01*
X409638Y180148D01*
X409507Y180338D01*
X409470Y180378D01*
X409437Y180423D01*
X409277Y180587D01*
X409121Y180757D01*
X409078Y180792D01*
X409040Y180831D01*
X408858Y180972D01*
X408680Y181118D01*
X408633Y181146D01*
X408589Y181180D01*
X408389Y181294D01*
X408193Y181413D01*
X408142Y181435D01*
X408094Y181462D01*
X407880Y181547D01*
X407669Y181637D01*
X407616Y181652D01*
X407565Y181672D01*
X407340Y181726D01*
X407119Y181786D01*
X407075Y181791D01*
X407011Y181806D01*
X406444Y181861D01*
X406378Y181859D01*
X406334Y181863D01*
X406104Y181847D01*
X405874Y181837D01*
X405820Y181827D01*
X405765Y181823D01*
X405540Y181775D01*
X405314Y181733D01*
X405262Y181715D01*
X405208Y181704D01*
X404992Y181625D01*
X404774Y181552D01*
X404725Y181527D01*
X404673Y181508D01*
X404470Y181399D01*
X404264Y181296D01*
X404219Y181265D01*
X404171Y181239D01*
X403985Y181104D01*
X403796Y180973D01*
X403755Y180935D01*
X403711Y180903D01*
X403546Y180743D01*
X403377Y180586D01*
X403342Y180544D01*
X403303Y180505D01*
X403162Y180324D01*
X403016Y180145D01*
X402987Y180098D01*
X402954Y180055D01*
X402840Y179855D01*
X402720Y179658D01*
X402699Y179608D01*
X402672Y179560D01*
X402586Y179345D01*
X402496Y179134D01*
X402482Y179081D01*
X402461Y179030D01*
X402407Y178806D01*
X402347Y178584D01*
X402343Y178540D01*
X402327Y178476D01*
X402272Y177909D01*
X402275Y177844D01*
X402271Y177800D01*
X402271Y162802D01*
X402233Y162805D01*
X401964Y162833D01*
X401951Y162833D01*
X401938Y162834D01*
X401664Y162822D01*
X401395Y162812D01*
X401382Y162810D01*
X401368Y162810D01*
X401101Y162760D01*
X400834Y162712D01*
X400821Y162708D01*
X400808Y162706D01*
X400550Y162619D01*
X400292Y162534D01*
X400281Y162529D01*
X400268Y162524D01*
X400023Y162402D01*
X399781Y162282D01*
X399770Y162275D01*
X399759Y162269D01*
X399534Y162114D01*
X399310Y161962D01*
X399301Y161953D01*
X399290Y161945D01*
X399088Y161760D01*
X398889Y161578D01*
X398881Y161568D01*
X398871Y161559D01*
X398698Y161348D01*
X398525Y161139D01*
X398518Y161128D01*
X398510Y161118D01*
X398369Y160885D01*
X398227Y160654D01*
X398221Y160642D01*
X398215Y160631D01*
X398108Y160382D01*
X397999Y160132D01*
X397995Y160119D01*
X397990Y160107D01*
X397919Y159845D01*
X397846Y159583D01*
X397845Y159570D01*
X397841Y159557D01*
X397836Y159505D01*
X397772Y159018D01*
X397774Y158864D01*
X397765Y158772D01*
X397765Y145456D01*
X387944Y135635D01*
X374056Y135635D01*
X364235Y145456D01*
X364235Y150573D01*
X364223Y150746D01*
X364221Y150918D01*
X364203Y151029D01*
X364195Y151141D01*
X364159Y151310D01*
X364132Y151481D01*
X364100Y151589D01*
X364076Y151699D01*
X364017Y151861D01*
X363966Y152026D01*
X363919Y152128D01*
X363880Y152234D01*
X363799Y152387D01*
X363726Y152543D01*
X363665Y152637D01*
X363612Y152736D01*
X363510Y152876D01*
X363415Y153021D01*
X363342Y153105D01*
X363275Y153196D01*
X363155Y153320D01*
X363041Y153450D01*
X362956Y153524D01*
X362878Y153604D01*
X362741Y153710D01*
X362610Y153823D01*
X362516Y153884D01*
X362427Y153953D01*
X362277Y154039D01*
X362132Y154132D01*
X362030Y154180D01*
X361932Y154235D01*
X361771Y154299D01*
X361615Y154372D01*
X361507Y154404D01*
X361403Y154446D01*
X361234Y154486D01*
X361069Y154536D01*
X360958Y154553D01*
X360849Y154580D01*
X360677Y154596D01*
X360506Y154623D01*
X360394Y154624D01*
X360282Y154635D01*
X360109Y154627D01*
X359936Y154630D01*
X359825Y154615D01*
X359712Y154610D01*
X359542Y154579D01*
X359371Y154557D01*
X359289Y154532D01*
X359152Y154506D01*
X358929Y154431D01*
X352168Y154431D01*
X352166Y154432D01*
X352005Y154496D01*
X351895Y154523D01*
X351789Y154558D01*
X351619Y154589D01*
X351451Y154630D01*
X351339Y154641D01*
X351228Y154661D01*
X351056Y154669D01*
X350884Y154685D01*
X350771Y154681D01*
X350659Y154685D01*
X350487Y154668D01*
X350314Y154661D01*
X350204Y154640D01*
X350092Y154629D01*
X349924Y154588D01*
X349754Y154557D01*
X349648Y154521D01*
X349538Y154494D01*
X349378Y154431D01*
X349214Y154376D01*
X349114Y154325D01*
X349009Y154284D01*
X348859Y154198D01*
X348705Y154120D01*
X348612Y154057D01*
X348514Y154001D01*
X348378Y153895D01*
X348236Y153797D01*
X348153Y153720D01*
X348064Y153651D01*
X347944Y153527D01*
X347817Y153410D01*
X347746Y153323D01*
X347667Y153243D01*
X347565Y153103D01*
X347456Y152969D01*
X347398Y152873D01*
X347332Y152782D01*
X347250Y152630D01*
X347161Y152482D01*
X347116Y152379D01*
X347063Y152280D01*
X347004Y152117D01*
X346936Y151958D01*
X346907Y151850D01*
X346868Y151744D01*
X346832Y151575D01*
X346787Y151408D01*
X346779Y151323D01*
X346750Y151187D01*
X346712Y150636D01*
X346711Y150624D01*
X346711Y96774D01*
X346727Y96545D01*
X346737Y96314D01*
X346747Y96260D01*
X346751Y96206D01*
X346799Y95980D01*
X346841Y95754D01*
X346858Y95702D01*
X346870Y95648D01*
X346949Y95432D01*
X347022Y95214D01*
X347047Y95165D01*
X347066Y95113D01*
X347174Y94910D01*
X347277Y94705D01*
X347308Y94659D01*
X347334Y94611D01*
X347470Y94425D01*
X347601Y94236D01*
X347638Y94195D01*
X347671Y94151D01*
X347831Y93986D01*
X347987Y93817D01*
X348030Y93782D01*
X348068Y93743D01*
X348250Y93602D01*
X348428Y93456D01*
X348476Y93428D01*
X348519Y93394D01*
X348719Y93280D01*
X348916Y93161D01*
X348966Y93139D01*
X349014Y93112D01*
X349228Y93027D01*
X349439Y92936D01*
X349492Y92922D01*
X349543Y92902D01*
X349768Y92847D01*
X349989Y92787D01*
X350033Y92783D01*
X350097Y92767D01*
X350664Y92712D01*
X350730Y92715D01*
X350774Y92711D01*
X372119Y92711D01*
X372179Y92715D01*
X372239Y92713D01*
X372463Y92735D01*
X372687Y92751D01*
X372746Y92763D01*
X372806Y92769D01*
X373025Y92823D01*
X373244Y92870D01*
X373301Y92890D01*
X373360Y92905D01*
X373509Y92965D01*
X388475Y92965D01*
X388491Y92960D01*
X388547Y92936D01*
X388763Y92878D01*
X388979Y92812D01*
X389038Y92803D01*
X389097Y92787D01*
X389214Y92776D01*
X389542Y92725D01*
X389767Y92722D01*
X389881Y92711D01*
X397519Y92711D01*
X397579Y92715D01*
X397639Y92713D01*
X397863Y92735D01*
X398087Y92751D01*
X398146Y92763D01*
X398206Y92769D01*
X398425Y92823D01*
X398644Y92870D01*
X398701Y92890D01*
X398760Y92905D01*
X398909Y92965D01*
X413344Y92965D01*
X423165Y83144D01*
X423165Y69256D01*
X413344Y59435D01*
X398925Y59435D01*
X398909Y59440D01*
X398853Y59464D01*
X398637Y59522D01*
X398421Y59588D01*
X398362Y59597D01*
X398303Y59613D01*
X398186Y59624D01*
X397858Y59675D01*
X397633Y59678D01*
X397519Y59689D01*
X389881Y59689D01*
X389821Y59685D01*
X389761Y59687D01*
X389537Y59665D01*
X389313Y59649D01*
X389254Y59637D01*
X389194Y59631D01*
X388975Y59577D01*
X388756Y59530D01*
X388699Y59510D01*
X388640Y59495D01*
X388491Y59435D01*
X373525Y59435D01*
G37*
%LPD*%
%LPC*%
G36*
X47279Y312499D02*
X47279Y312499D01*
X40773Y315194D01*
X35794Y320173D01*
X33964Y324591D01*
X33099Y326679D01*
X33099Y333721D01*
X35815Y340276D01*
X35901Y340370D01*
X35932Y340416D01*
X35968Y340457D01*
X36093Y340650D01*
X36223Y340840D01*
X36248Y340889D01*
X36278Y340935D01*
X36375Y341144D01*
X36477Y341350D01*
X36494Y341402D01*
X36518Y341452D01*
X36584Y341673D01*
X36657Y341891D01*
X36667Y341945D01*
X36683Y341997D01*
X36718Y342225D01*
X36759Y342451D01*
X36762Y342506D01*
X36770Y342560D01*
X36773Y342790D01*
X36783Y343021D01*
X36777Y343075D01*
X36778Y343130D01*
X36749Y343359D01*
X36726Y343588D01*
X36713Y343641D01*
X36706Y343695D01*
X36645Y343918D01*
X36590Y344141D01*
X36570Y344192D01*
X36555Y344245D01*
X36464Y344457D01*
X36378Y344670D01*
X36351Y344718D01*
X36329Y344768D01*
X36210Y344965D01*
X36095Y345164D01*
X36067Y345199D01*
X36033Y345254D01*
X35818Y345516D01*
X33099Y352079D01*
X33099Y359121D01*
X35815Y365676D01*
X35901Y365770D01*
X35932Y365815D01*
X35968Y365857D01*
X36093Y366050D01*
X36223Y366240D01*
X36248Y366289D01*
X36278Y366335D01*
X36375Y366544D01*
X36477Y366750D01*
X36494Y366802D01*
X36518Y366852D01*
X36584Y367072D01*
X36657Y367291D01*
X36667Y367345D01*
X36683Y367397D01*
X36718Y367625D01*
X36759Y367851D01*
X36762Y367906D01*
X36770Y367960D01*
X36773Y368191D01*
X36783Y368421D01*
X36777Y368475D01*
X36778Y368530D01*
X36749Y368759D01*
X36726Y368987D01*
X36713Y369041D01*
X36706Y369095D01*
X36645Y369317D01*
X36590Y369541D01*
X36570Y369592D01*
X36555Y369645D01*
X36464Y369855D01*
X36379Y370070D01*
X36351Y370118D01*
X36330Y370168D01*
X36210Y370364D01*
X36095Y370564D01*
X36067Y370598D01*
X36033Y370654D01*
X35818Y370915D01*
X33099Y377479D01*
X33099Y384521D01*
X35794Y391027D01*
X40773Y396006D01*
X47279Y398701D01*
X54321Y398701D01*
X60827Y396006D01*
X66374Y390458D01*
X66497Y390352D01*
X66613Y390238D01*
X66712Y390165D01*
X66804Y390085D01*
X66941Y389996D01*
X67071Y389900D01*
X67179Y389842D01*
X67283Y389775D01*
X67430Y389707D01*
X67573Y389629D01*
X67688Y389587D01*
X67799Y389535D01*
X67955Y389488D01*
X68107Y389432D01*
X68227Y389406D01*
X68345Y389370D01*
X68505Y389345D01*
X68664Y389310D01*
X68786Y389301D01*
X68908Y389283D01*
X69070Y389280D01*
X69232Y389268D01*
X69355Y389277D01*
X69477Y389275D01*
X69639Y389295D01*
X69800Y389306D01*
X69921Y389331D01*
X70043Y389347D01*
X70199Y389390D01*
X70358Y389423D01*
X70444Y389457D01*
X70592Y389497D01*
X71043Y389692D01*
X71092Y389711D01*
X72137Y390243D01*
X72137Y381000D01*
X72137Y355600D01*
X72153Y355371D01*
X72163Y355141D01*
X72173Y355087D01*
X72177Y355032D01*
X72225Y354807D01*
X72267Y354581D01*
X72284Y354528D01*
X72296Y354475D01*
X72375Y354259D01*
X72448Y354040D01*
X72473Y353991D01*
X72491Y353940D01*
X72600Y353737D01*
X72703Y353531D01*
X72734Y353486D01*
X72760Y353437D01*
X72896Y353252D01*
X73027Y353062D01*
X73064Y353022D01*
X73097Y352977D01*
X73257Y352813D01*
X73413Y352643D01*
X73414Y352643D01*
X73456Y352608D01*
X73494Y352569D01*
X73495Y352569D01*
X73676Y352428D01*
X73855Y352282D01*
X73902Y352253D01*
X73945Y352220D01*
X74145Y352106D01*
X74342Y351986D01*
X74392Y351965D01*
X74440Y351938D01*
X74655Y351852D01*
X74866Y351762D01*
X74918Y351748D01*
X74970Y351727D01*
X75194Y351673D01*
X75416Y351613D01*
X75460Y351609D01*
X75524Y351593D01*
X76091Y351538D01*
X76156Y351541D01*
X76200Y351537D01*
X85443Y351537D01*
X84911Y350492D01*
X84848Y350342D01*
X84776Y350197D01*
X84737Y350081D01*
X84689Y349967D01*
X84647Y349811D01*
X84596Y349657D01*
X84574Y349536D01*
X84542Y349417D01*
X84522Y349256D01*
X84493Y349096D01*
X84488Y348973D01*
X84473Y348851D01*
X84477Y348689D01*
X84470Y348527D01*
X84482Y348404D01*
X84485Y348282D01*
X84511Y348121D01*
X84527Y347960D01*
X84556Y347841D01*
X84576Y347719D01*
X84624Y347564D01*
X84662Y347406D01*
X84708Y347292D01*
X84745Y347175D01*
X84814Y347028D01*
X84874Y346877D01*
X84935Y346771D01*
X84988Y346660D01*
X85077Y346524D01*
X85158Y346383D01*
X85216Y346312D01*
X85301Y346183D01*
X85625Y345815D01*
X85658Y345774D01*
X91206Y340227D01*
X93901Y333721D01*
X93901Y326679D01*
X91206Y320173D01*
X86227Y315194D01*
X79721Y312499D01*
X72679Y312499D01*
X66124Y315215D01*
X66030Y315301D01*
X65984Y315332D01*
X65943Y315368D01*
X65750Y315493D01*
X65560Y315623D01*
X65511Y315648D01*
X65465Y315678D01*
X65256Y315775D01*
X65050Y315877D01*
X64998Y315894D01*
X64948Y315918D01*
X64727Y315984D01*
X64509Y316057D01*
X64455Y316067D01*
X64403Y316083D01*
X64175Y316118D01*
X63949Y316159D01*
X63894Y316162D01*
X63840Y316170D01*
X63610Y316173D01*
X63379Y316183D01*
X63325Y316177D01*
X63270Y316178D01*
X63041Y316149D01*
X62812Y316126D01*
X62759Y316113D01*
X62705Y316106D01*
X62482Y316045D01*
X62259Y315990D01*
X62208Y315970D01*
X62155Y315955D01*
X61943Y315864D01*
X61730Y315778D01*
X61682Y315751D01*
X61632Y315729D01*
X61435Y315610D01*
X61236Y315495D01*
X61201Y315467D01*
X61146Y315433D01*
X60884Y315218D01*
X54321Y312499D01*
X47279Y312499D01*
G37*
%LPD*%
%LPC*%
G36*
X247122Y415035D02*
X247122Y415035D01*
X237301Y424856D01*
X237301Y438744D01*
X247122Y448565D01*
X261685Y448565D01*
X261763Y448544D01*
X261979Y448478D01*
X262038Y448469D01*
X262097Y448453D01*
X262214Y448442D01*
X262542Y448391D01*
X262767Y448388D01*
X262881Y448377D01*
X270519Y448377D01*
X270579Y448381D01*
X270640Y448379D01*
X270863Y448401D01*
X271087Y448417D01*
X271146Y448429D01*
X271207Y448435D01*
X271425Y448489D01*
X271644Y448536D01*
X271701Y448557D01*
X271760Y448571D01*
X271909Y448631D01*
X286784Y448631D01*
X286899Y448578D01*
X286957Y448560D01*
X287013Y448536D01*
X287229Y448478D01*
X287444Y448412D01*
X287504Y448403D01*
X287562Y448387D01*
X287679Y448376D01*
X288007Y448325D01*
X288233Y448322D01*
X288347Y448311D01*
X295985Y448311D01*
X296045Y448315D01*
X296106Y448313D01*
X296329Y448335D01*
X296553Y448351D01*
X296612Y448363D01*
X296673Y448369D01*
X296891Y448423D01*
X297110Y448470D01*
X297167Y448491D01*
X297226Y448505D01*
X297375Y448565D01*
X311810Y448565D01*
X321631Y438744D01*
X321631Y424856D01*
X311810Y415035D01*
X297391Y415035D01*
X297375Y415040D01*
X297319Y415064D01*
X297103Y415123D01*
X296888Y415188D01*
X296828Y415197D01*
X296770Y415213D01*
X296652Y415224D01*
X296325Y415275D01*
X296100Y415278D01*
X295985Y415289D01*
X288215Y415289D01*
X288155Y415285D01*
X288094Y415287D01*
X287872Y415265D01*
X287647Y415249D01*
X287587Y415237D01*
X287527Y415231D01*
X287309Y415177D01*
X287090Y415130D01*
X287033Y415109D01*
X286999Y415101D01*
X271925Y415101D01*
X271909Y415106D01*
X271853Y415130D01*
X271637Y415189D01*
X271422Y415254D01*
X271362Y415263D01*
X271304Y415279D01*
X271186Y415290D01*
X270859Y415341D01*
X270634Y415344D01*
X270519Y415355D01*
X263013Y415355D01*
X262953Y415351D01*
X262893Y415353D01*
X262669Y415331D01*
X262445Y415315D01*
X262386Y415303D01*
X262326Y415297D01*
X262107Y415243D01*
X261888Y415196D01*
X261831Y415176D01*
X261772Y415161D01*
X261564Y415078D01*
X261448Y415035D01*
X247122Y415035D01*
G37*
%LPD*%
%LPC*%
G36*
X584200Y105663D02*
X584200Y105663D01*
X575055Y105663D01*
X575055Y106426D01*
X575039Y106655D01*
X575029Y106886D01*
X575019Y106940D01*
X575015Y106994D01*
X574967Y107220D01*
X574925Y107446D01*
X574908Y107498D01*
X574896Y107552D01*
X574817Y107768D01*
X574744Y107986D01*
X574719Y108035D01*
X574700Y108087D01*
X574592Y108290D01*
X574489Y108495D01*
X574458Y108541D01*
X574432Y108589D01*
X574296Y108775D01*
X574165Y108964D01*
X574128Y109005D01*
X574095Y109049D01*
X573935Y109214D01*
X573779Y109383D01*
X573736Y109418D01*
X573698Y109457D01*
X573516Y109598D01*
X573338Y109744D01*
X573290Y109772D01*
X573247Y109806D01*
X573047Y109920D01*
X572850Y110039D01*
X572800Y110061D01*
X572752Y110088D01*
X572538Y110173D01*
X572327Y110264D01*
X572274Y110278D01*
X572223Y110298D01*
X571998Y110353D01*
X571777Y110413D01*
X571733Y110417D01*
X571669Y110433D01*
X571102Y110488D01*
X571036Y110485D01*
X570992Y110489D01*
X567681Y110489D01*
X567621Y110485D01*
X567561Y110487D01*
X567337Y110465D01*
X567113Y110449D01*
X567054Y110437D01*
X566994Y110431D01*
X566775Y110377D01*
X566556Y110330D01*
X566499Y110310D01*
X566440Y110295D01*
X566291Y110235D01*
X551856Y110235D01*
X542035Y120056D01*
X542035Y133944D01*
X551856Y143765D01*
X566275Y143765D01*
X566291Y143760D01*
X566347Y143736D01*
X566563Y143678D01*
X566779Y143612D01*
X566838Y143603D01*
X566897Y143587D01*
X567014Y143576D01*
X567342Y143525D01*
X567567Y143522D01*
X567681Y143511D01*
X575319Y143511D01*
X575379Y143515D01*
X575439Y143513D01*
X575663Y143535D01*
X575887Y143551D01*
X575946Y143563D01*
X576006Y143569D01*
X576225Y143623D01*
X576444Y143670D01*
X576501Y143690D01*
X576560Y143705D01*
X576709Y143765D01*
X591144Y143765D01*
X600965Y133944D01*
X600965Y120056D01*
X592694Y111785D01*
X592543Y111611D01*
X592387Y111442D01*
X592356Y111396D01*
X592320Y111355D01*
X592195Y111161D01*
X592065Y110972D01*
X592040Y110923D01*
X592010Y110877D01*
X591913Y110668D01*
X591811Y110462D01*
X591794Y110410D01*
X591771Y110360D01*
X591704Y110139D01*
X591631Y109921D01*
X591621Y109867D01*
X591605Y109815D01*
X591570Y109587D01*
X591529Y109361D01*
X591526Y109306D01*
X591518Y109251D01*
X591515Y109022D01*
X591506Y108791D01*
X591511Y108737D01*
X591510Y108682D01*
X591539Y108453D01*
X591562Y108224D01*
X591575Y108171D01*
X591582Y108117D01*
X591643Y107894D01*
X591698Y107671D01*
X591718Y107620D01*
X591733Y107567D01*
X591824Y107356D01*
X591910Y107142D01*
X591937Y107094D01*
X591959Y107044D01*
X592079Y106847D01*
X592193Y106648D01*
X592221Y106613D01*
X592255Y106557D01*
X592617Y106117D01*
X592666Y106073D01*
X592694Y106039D01*
X593069Y105663D01*
X584200Y105663D01*
X584200Y105663D01*
G37*
%LPD*%
%LPC*%
G36*
X374122Y415035D02*
X374122Y415035D01*
X364301Y424856D01*
X364301Y438744D01*
X374122Y448565D01*
X388541Y448565D01*
X388557Y448560D01*
X388613Y448536D01*
X388829Y448477D01*
X389044Y448412D01*
X389104Y448403D01*
X389162Y448387D01*
X389280Y448376D01*
X389607Y448325D01*
X389832Y448322D01*
X389947Y448311D01*
X397519Y448311D01*
X397579Y448315D01*
X397640Y448313D01*
X397863Y448335D01*
X398087Y448351D01*
X398146Y448363D01*
X398207Y448369D01*
X398425Y448423D01*
X398644Y448470D01*
X398701Y448491D01*
X398760Y448505D01*
X398909Y448565D01*
X413344Y448565D01*
X423165Y438744D01*
X423165Y424856D01*
X413344Y415035D01*
X398925Y415035D01*
X398909Y415040D01*
X398853Y415064D01*
X398637Y415123D01*
X398422Y415188D01*
X398362Y415197D01*
X398304Y415213D01*
X398186Y415224D01*
X397859Y415275D01*
X397634Y415278D01*
X397519Y415289D01*
X389947Y415289D01*
X389887Y415285D01*
X389826Y415287D01*
X389603Y415265D01*
X389379Y415249D01*
X389320Y415237D01*
X389259Y415231D01*
X389041Y415177D01*
X388822Y415130D01*
X388765Y415109D01*
X388706Y415095D01*
X388557Y415035D01*
X374122Y415035D01*
G37*
%LPD*%
%LPC*%
G36*
X588263Y167639D02*
X588263Y167639D01*
X588263Y173737D01*
X601153Y173737D01*
X600510Y172475D01*
X599570Y171181D01*
X598439Y170050D01*
X597145Y169110D01*
X595720Y168384D01*
X594199Y167889D01*
X592620Y167639D01*
X588263Y167639D01*
G37*
%LPD*%
%LPC*%
G36*
X575780Y167639D02*
X575780Y167639D01*
X574201Y167889D01*
X572680Y168384D01*
X571255Y169110D01*
X569961Y170050D01*
X568830Y171181D01*
X567890Y172475D01*
X567247Y173737D01*
X580137Y173737D01*
X580137Y167639D01*
X575780Y167639D01*
G37*
%LPD*%
%LPC*%
G36*
X80263Y359663D02*
X80263Y359663D01*
X80263Y364863D01*
X80483Y364745D01*
X80585Y364680D01*
X81484Y364222D01*
X82767Y363289D01*
X83889Y362167D01*
X84822Y360883D01*
X85443Y359663D01*
X80263Y359663D01*
G37*
%LPD*%
%LPC*%
G36*
X80263Y376937D02*
X80263Y376937D01*
X85443Y376937D01*
X84822Y375717D01*
X83889Y374433D01*
X82767Y373311D01*
X81484Y372378D01*
X80585Y371920D01*
X80515Y371879D01*
X80442Y371844D01*
X80271Y371732D01*
X80263Y371727D01*
X80263Y376937D01*
G37*
%LPD*%
%LPC*%
G36*
X80263Y385063D02*
X80263Y385063D01*
X80263Y390243D01*
X81483Y389622D01*
X82767Y388689D01*
X83889Y387567D01*
X84822Y386283D01*
X85443Y385063D01*
X80263Y385063D01*
G37*
%LPD*%
%LPC*%
G36*
X232597Y308863D02*
X232597Y308863D01*
X232597Y313669D01*
X237403Y308863D01*
X232597Y308863D01*
G37*
%LPD*%
%LPC*%
G36*
X486663Y334197D02*
X486663Y334197D01*
X486663Y339003D01*
X491469Y334197D01*
X486663Y334197D01*
G37*
%LPD*%
%LPC*%
G36*
X219665Y308863D02*
X219665Y308863D01*
X224471Y313669D01*
X224471Y308863D01*
X219665Y308863D01*
G37*
%LPD*%
%LPC*%
G36*
X232729Y72137D02*
X232729Y72137D01*
X237535Y72137D01*
X232729Y67331D01*
X232729Y72137D01*
G37*
%LPD*%
%LPC*%
G36*
X245197Y359663D02*
X245197Y359663D01*
X250003Y364469D01*
X250003Y359663D01*
X245197Y359663D01*
G37*
%LPD*%
%LPC*%
G36*
X283529Y72137D02*
X283529Y72137D01*
X288335Y72137D01*
X283529Y67331D01*
X283529Y72137D01*
G37*
%LPD*%
%LPC*%
G36*
X588263Y97537D02*
X588263Y97537D01*
X593069Y97537D01*
X588263Y92731D01*
X588263Y97537D01*
G37*
%LPD*%
%LPC*%
G36*
X245197Y351537D02*
X245197Y351537D01*
X250003Y351537D01*
X250003Y346731D01*
X245197Y351537D01*
G37*
%LPD*%
%LPC*%
G36*
X575331Y97537D02*
X575331Y97537D01*
X580137Y97537D01*
X580137Y92731D01*
X575331Y97537D01*
G37*
%LPD*%
%LPC*%
G36*
X270597Y72137D02*
X270597Y72137D01*
X275403Y72137D01*
X275403Y67331D01*
X270597Y72137D01*
G37*
%LPD*%
%LPC*%
G36*
X219797Y72137D02*
X219797Y72137D01*
X224603Y72137D01*
X224603Y67331D01*
X219797Y72137D01*
G37*
%LPD*%
D10*
X279466Y101600D03*
X279466Y76200D03*
X228666Y101600D03*
X228666Y76200D03*
X279466Y152400D03*
X279466Y127000D03*
X228534Y304800D03*
X228534Y279400D03*
D11*
X457200Y330134D03*
X482600Y330134D03*
D12*
X507934Y260604D02*
X507934Y247396D01*
X482534Y247396D02*
X482534Y260604D01*
X355534Y260604D02*
X355534Y247396D01*
X355534Y184404D02*
X355534Y171196D01*
X457134Y247396D02*
X457134Y260604D01*
X431734Y260604D02*
X431734Y247396D01*
X380934Y247396D02*
X380934Y260604D01*
X406334Y260604D02*
X406334Y247396D01*
X380934Y184404D02*
X380934Y171196D01*
X406334Y171196D02*
X406334Y184404D01*
X431734Y184404D02*
X431734Y171196D01*
X457134Y171196D02*
X457134Y184404D01*
X482534Y184404D02*
X482534Y171196D01*
X507934Y171196D02*
X507934Y184404D01*
D13*
X203266Y177800D03*
X228666Y177800D03*
X228666Y254000D03*
X203266Y254000D03*
X254066Y177800D03*
X279466Y177800D03*
X254066Y254000D03*
X279466Y254000D03*
D11*
X152466Y152400D03*
X228666Y152400D03*
X304866Y431800D03*
X381066Y431800D03*
X177866Y127000D03*
X254066Y127000D03*
D14*
X279400Y355666D03*
X279400Y431866D03*
X254066Y355600D03*
X254066Y431800D03*
D10*
X406400Y431800D03*
X406400Y355600D03*
D14*
X533400Y177800D03*
X533400Y254000D03*
X330200Y304800D03*
X330200Y381000D03*
X508000Y279400D03*
X508000Y355600D03*
X558800Y127000D03*
X558800Y203200D03*
D10*
X584200Y127000D03*
X584200Y101600D03*
D15*
X576580Y279400D02*
X591820Y279400D01*
X591820Y254000D02*
X576580Y254000D01*
X576580Y228600D02*
X591820Y228600D01*
X591820Y203200D02*
X576580Y203200D01*
X576580Y177800D02*
X591820Y177800D01*
D16*
X11000Y119500D03*
X72000Y119500D03*
X129000Y119500D03*
X35000Y139500D03*
X91000Y139500D03*
D14*
X355600Y279400D03*
X355600Y355600D03*
D17*
X50800Y355600D03*
X50800Y330200D03*
X50800Y381000D03*
X76200Y381000D03*
X76200Y355600D03*
X76200Y330200D03*
D10*
X381000Y152400D03*
X381000Y76200D03*
D11*
X406400Y76200D03*
X482600Y76200D03*
D14*
X508000Y76200D03*
X508000Y152400D03*
D12*
X152400Y221996D02*
X152400Y235204D01*
X127000Y272796D02*
X127000Y286004D01*
X101600Y235204D02*
X101600Y221996D01*
D18*
X254066Y177800D02*
X254066Y127000D01*
X254066Y101666D02*
X254000Y101600D01*
X279466Y101600D01*
X254066Y101666D02*
X254066Y127000D01*
X228666Y152400D02*
X228666Y177800D01*
X228666Y152400D02*
X228666Y101600D01*
X254066Y254000D02*
X254000Y254066D01*
X254000Y279400D01*
X279400Y279400D01*
X279400Y355666D01*
X431800Y228600D02*
X584200Y228600D01*
X431800Y228600D02*
X228600Y228600D01*
X228600Y253934D02*
X228666Y254000D01*
X228600Y253934D02*
X228600Y228600D01*
X228666Y254000D02*
X228534Y254132D01*
X228534Y279400D01*
X431734Y254000D02*
X431800Y253934D01*
X431800Y228600D01*
X584200Y177800D02*
X609600Y177800D01*
X609600Y195567D01*
X614870Y200837D01*
X228600Y304866D02*
X228534Y304800D01*
X228600Y304866D02*
X228600Y355600D01*
X228600Y406400D01*
X609600Y177800D02*
X609600Y101600D01*
X279466Y76200D02*
X228666Y76200D01*
X279466Y76200D02*
X304800Y76200D01*
X304800Y127000D01*
X584200Y101600D02*
X609600Y101600D01*
X11000Y119500D02*
X11000Y188800D01*
X25400Y203200D01*
X25400Y406400D01*
X76200Y406400D01*
X228600Y406400D01*
X76200Y406400D02*
X76200Y381000D01*
X279466Y127000D02*
X304800Y127000D01*
X76200Y355600D02*
X76200Y381000D01*
X304800Y76200D02*
X304800Y50800D01*
X431800Y152400D02*
X457200Y152400D01*
X457200Y177734D01*
X457134Y177800D01*
X431800Y50800D02*
X304800Y50800D01*
X431800Y50800D02*
X584200Y50800D01*
X584200Y101600D01*
X254066Y355600D02*
X228600Y355600D01*
X228600Y406400D02*
X304800Y406400D01*
X304800Y254000D02*
X279466Y254000D01*
X304800Y254000D02*
X304800Y406400D01*
X431800Y152400D02*
X431800Y50800D01*
X482600Y330134D02*
X482666Y330200D01*
X533400Y330200D01*
X609600Y330200D01*
X614870Y324930D01*
X533400Y406400D02*
X304800Y406400D01*
X533400Y406400D02*
X533400Y330200D01*
X406334Y177800D02*
X406400Y177734D01*
X406400Y152400D01*
X431800Y152400D01*
X614870Y200837D02*
X614870Y324930D01*
X203266Y279400D02*
X203266Y254000D01*
X203266Y279400D02*
X127000Y279400D01*
X101600Y279400D01*
X101600Y228600D01*
X203200Y228600D02*
X203200Y177800D01*
X203266Y177800D01*
X203200Y228600D02*
X152400Y228600D01*
X279466Y203068D02*
X279466Y177800D01*
X279466Y203068D02*
X279400Y203134D01*
X279400Y203200D01*
X431800Y203200D01*
X558800Y203200D01*
X279466Y177800D02*
X279466Y152466D01*
X279400Y152400D01*
X279466Y152400D01*
X558800Y203200D02*
X584200Y203200D01*
X431800Y177866D02*
X431734Y177800D01*
X431800Y177866D02*
X431800Y203200D01*
X355534Y254000D02*
X330200Y254000D01*
X330200Y304800D01*
X330200Y355600D01*
X355600Y355600D01*
X553720Y254000D02*
X584200Y254000D01*
X553720Y254000D02*
X553720Y304800D01*
X457200Y304800D02*
X457134Y304734D01*
X457134Y254000D01*
X457200Y304800D02*
X553720Y304800D01*
X254132Y431866D02*
X254066Y431800D01*
X254132Y431866D02*
X279400Y431866D01*
X279466Y431800D01*
X304866Y431800D01*
X406466Y330134D02*
X457200Y330134D01*
X406466Y330134D02*
X406400Y330200D01*
X406400Y355600D01*
X406334Y330002D02*
X406334Y254000D01*
X406334Y330002D02*
X406466Y330134D01*
X380934Y177800D02*
X381000Y177734D01*
X381000Y152400D01*
X508000Y355600D02*
X508000Y381000D01*
X330200Y381000D01*
X35000Y173500D02*
X35000Y139500D01*
X152466Y152400D02*
X152466Y173500D01*
X35000Y173500D01*
X381066Y431800D02*
X406400Y431800D01*
X558800Y127000D02*
X584200Y127000D01*
X177866Y127000D02*
X177866Y89600D01*
X107984Y89600D01*
X91000Y139500D01*
X380934Y254000D02*
X380934Y279400D01*
X355600Y279400D01*
X355600Y330200D01*
D19*
X355600Y330200D03*
D18*
X381000Y76200D02*
X406400Y76200D01*
X381000Y76200D02*
X330200Y76200D01*
X330200Y177800D02*
X355534Y177800D01*
X330200Y177800D02*
X330200Y76200D01*
X482600Y76200D02*
X508000Y76200D01*
X482600Y177734D02*
X482534Y177800D01*
X482600Y177734D02*
X482600Y76200D01*
X508000Y177734D02*
X507934Y177800D01*
X508000Y177734D02*
X508000Y152400D01*
X507934Y177800D02*
X533400Y177800D01*
X507934Y254000D02*
X482534Y254000D01*
X507934Y254000D02*
X508000Y254066D01*
X508000Y279400D01*
M02*
