G04 EAGLE Gerber RS-274X export*
G75*
%MOMM*%
%FSLAX34Y34*%
%LPD*%
%INSoldermask Bottom*%
%IPPOS*%
%AMOC8*
5,1,8,0,0,1.08239X$1,22.5*%
G01*
%ADD10C,2.203200*%
%ADD11C,1.524000*%
%ADD12P,1.951982X8X202.500000*%
%ADD13C,1.803400*%
%ADD14P,1.951982X8X22.500000*%
%ADD15P,1.649562X8X22.500000*%
%ADD16P,1.649562X8X292.500000*%
%ADD17R,1.981200X1.981200*%
%ADD18C,1.981200*%
%ADD19C,1.727200*%
%ADD20C,1.409600*%


D10*
X25400Y457200D03*
X25400Y25400D03*
X609600Y457200D03*
X609600Y25400D03*
D11*
X228600Y399862D02*
X228600Y413070D01*
X203200Y413070D02*
X203200Y399862D01*
X152400Y399862D02*
X152400Y413070D01*
X127000Y413070D02*
X127000Y399862D01*
X101600Y399862D02*
X101600Y413070D01*
D12*
X254000Y355534D03*
D13*
X279400Y355534D03*
D14*
X127000Y279466D03*
D13*
X101600Y279466D03*
D14*
X152400Y228534D03*
D13*
X127000Y228534D03*
D15*
X101666Y330200D03*
X127066Y330200D03*
X126934Y355600D03*
X152334Y355600D03*
D16*
X101666Y177800D03*
X101666Y101600D03*
X127000Y177734D03*
X127000Y101534D03*
D17*
X228600Y152400D03*
D18*
X254000Y152400D03*
X279400Y152400D03*
X304800Y152400D03*
X330200Y152400D03*
X355600Y152400D03*
X381000Y152400D03*
X406400Y152400D03*
X431800Y152400D03*
X457200Y152400D03*
X482600Y152400D03*
X508000Y152400D03*
X533400Y152400D03*
X558800Y152400D03*
X584200Y152400D03*
X228600Y304800D03*
X254000Y304800D03*
X279400Y304800D03*
X304800Y304800D03*
X330200Y304800D03*
X355600Y304800D03*
X381000Y304800D03*
X406400Y304800D03*
X431800Y304800D03*
X457200Y304800D03*
X482600Y304800D03*
X508000Y304800D03*
X533400Y304800D03*
X558800Y304800D03*
X584200Y304800D03*
D19*
X576580Y279400D02*
X591820Y279400D01*
X591820Y254000D02*
X576580Y254000D01*
X576580Y228600D02*
X591820Y228600D01*
X591820Y203200D02*
X576580Y203200D01*
X576580Y177800D02*
X591820Y177800D01*
X591820Y406400D02*
X576580Y406400D01*
X576580Y381000D02*
X591820Y381000D01*
X591820Y355600D02*
X576580Y355600D01*
D20*
X177800Y228600D03*
M02*
